<?xml version="1.0" encoding="utf-8"?>
<!-- Generator: Adobe Illustrator 23.0.1, SVG Export Plug-In . SVG Version: 6.00 Build 0)  -->
<svg version="1.1" id="Layer_1" xmlns="http://www.w3.org/2000/svg" xmlns:xlink="http://www.w3.org/1999/xlink" x="0px" y="0px"
	 viewBox="0 0 95 82.2" style="enable-background:new 0 0 95 82.2;" xml:space="preserve">
<style type="text/css">
	.st0{fill:#765738;}
	.st1{font-family:'MonotypeCorsiva';}
	.st2{font-size:15.658px;}
	.st3{fill:#FFFFFF;}
	.st4{fill:#9767C1;}
	.st5{fill:#C49A8B;}
	.st6{fill:#F4DAB5;}
	.st7{fill:#3C122C;}
</style>
<g>
	<g>
		<text transform="matrix(1.1357 -6.968934e-03 6.133811e-03 1 6.059 76.8367)" class="st0 st1 st2">Coffee Shop</text>
	</g>
	<g>
		<g>
			<path class="st3" d="M87.9,34c0-18.8-66.7-18.8-66.7,0c0,0.1,0,0.1,0,0.2c-5.3,0-10,1.1-11.2,3.2c-2.8,5,2.7,10.7,11.1,12.4
				c3.3,0.7,6.7,0.6,9.7,0c2.4,1.7,5.2,3.1,8.3,4.1c-1.3,0.5-2.1,1.2-2.1,1.9c0,2.5,7.8,5.5,17.5,5.5s17.5-3,17.5-5.5
				c0-0.8-0.8-1.4-2.1-1.9C80.6,50.2,87.9,42.7,87.9,34z M22.4,46.1c-4.7-0.9-7.7-4-6.2-6.6c0.6-1.1,2.9-1.6,5.6-1.7
				c0.8,3.1,2.5,6,5,8.5C25.3,46.5,23.8,46.4,22.4,46.1z"/>
			<path class="st4" d="M52.8,19.9c14.4,0.3,29.1,4.3,29.1,12C82,42.4,67.6,51,51.1,51c-15.9,0-28.9-7.9-29.8-18
				c0,0.3-0.1,0.6-0.1,0.9c0,12.4,14.9,22.5,33.3,22.5S87.9,46.4,87.9,34C87.9,24.2,70,19.5,52.8,19.9L52.8,19.9z"/>
			<path class="st5" d="M82,32.1c0,4.7-12.3,8.1-27.4,8.1s-27.4-3.4-27.4-8.1c0-4.7,12.3-8.9,27.4-8.9C69.7,23.2,82,27.4,82,32.1z"
				/>
			<path class="st6" d="M67.8,31.6c-2.9-0.8-7.6-0.8-10.5,0l-2.7,0.8l-2.7-0.8c-2.9-0.8-7.6-0.8-10.5,0c-2.9,0.8-2.9,2.2,0,3
				l2.7,0.8l7.4,2.1c1.9,0.5,4.3,0.5,6.3,0l7.4-2.1l2.7-0.8C70.7,33.8,70.7,32.4,67.8,31.6L67.8,31.6z"/>
			<path class="st6" d="M61.4,25.9c-1.5-0.6-3.9-0.6-5.4,0l-1.4,0.5l-1.4-0.5c-1.5-0.6-3.9-0.6-5.4,0c-1.5,0.6-1.5,1.5,0,2.1
				l1.4,0.5l3.8,1.5c1,0.4,2.2,0.4,3.2,0l3.8-1.5l1.4-0.5C62.9,27.4,62.9,26.5,61.4,25.9z"/>
			<path class="st0" d="M10.9,16.7l1.5,2.8c0.1,0.1,0.2,0.2,0.3,0.3l3.7,1.1c0.5,0.2,0.5,0.7,0,0.9l-3.7,1.1c-0.2,0-0.3,0.1-0.3,0.3
				l-1.5,2.8c-0.2,0.4-0.9,0.4-1.1,0l-1.5-2.8c-0.1-0.1-0.2-0.2-0.3-0.3l-3.7-1.1c-0.5-0.2-0.5-0.7,0-0.9L8,19.7
				c0.2,0,0.3-0.1,0.3-0.3l1.5-2.8C10,16.3,10.7,16.3,10.9,16.7z"/>
			<ellipse class="st0" cx="21.8" cy="10.4" rx="3.2" ry="2.2"/>
			<path class="st0" d="M84,9l1.1,2.1c0,0.1,0.1,0.2,0.3,0.2l2.7,0.8c0.4,0.1,0.4,0.5,0,0.6l-2.7,0.8c-0.1,0-0.2,0.1-0.3,0.2
				L84,15.9c-0.2,0.3-0.7,0.3-0.8,0l-1.1-2.1c0-0.1-0.1-0.2-0.3-0.2l-2.7-0.8c-0.4-0.1-0.4-0.5,0-0.6l2.7-0.8c0.1,0,0.2-0.1,0.3-0.2
				L83.2,9C83.3,8.8,83.9,8.8,84,9z"/>
		</g>
		<g>
			<path class="st7" d="M89.7,34c0-4.8-3.9-8.9-11.3-11.6c-6.3-2.4-14.8-3.7-23.8-3.7s-17.5,1.3-23.8,3.7C23.9,24.9,20,28.6,19.5,33
				c-2.1,0.1-4,0.4-5.7,0.8C11,34.5,9.2,35.6,8.4,37c-1.3,2.4-1.1,5.1,0.7,7.6c2.2,3,6.5,5.4,11.5,6.4c1.8,0.4,3.6,0.5,5.4,0.5
				c1.5,0,2.9-0.1,4.3-0.3c1.8,1.1,3.7,2.1,5.8,3c-0.5,0.5-0.8,1.1-0.8,1.7c0,1.7,2.2,3.5,6.1,4.8c3.7,1.2,8.4,1.9,13.1,1.9
				s9.4-0.7,13.1-1.9c3.9-1.3,6.1-3,6.1-4.8c0-0.7-0.3-1.2-0.8-1.7C83,50,89.7,42.5,89.7,34L89.7,34z M24,45.6
				c-0.4,0-0.9-0.1-1.3-0.2c-2.3-0.5-4.3-1.5-5.2-2.9c-0.5-0.7-0.9-1.7-0.3-2.8c0.2-0.4,1-0.7,1.6-0.8c0.4-0.1,0.9-0.2,1.4-0.3
				C20.9,41.1,22.2,43.5,24,45.6z M21.7,48.6c-4.1-0.8-7.6-2.7-9.3-5.1c-1.4-1.9-1.6-3.9-0.6-5.7c0.5-0.9,2.1-1.5,3.3-1.8
				c1.3-0.3,2.9-0.5,4.5-0.6c0.1,0.6,0.1,1.2,0.3,1.8c-0.7,0.1-1.3,0.2-1.8,0.3c-1.4,0.4-2.4,0.9-2.8,1.7c-0.7,1.3-0.6,2.7,0.4,4
				c1.2,1.7,3.7,3,6.6,3.6c1,0.2,2.1,0.3,3.2,0.3c0.1,0,0.1,0,0.2,0c0.7,0.7,1.3,1.3,2.1,1.9C25.6,49.1,23.6,49,21.7,48.6L21.7,48.6
				z M70.2,55.9c0,0.6-1.3,1.6-4.1,2.6c-3.2,1.1-7.4,1.7-11.6,1.7s-8.4-0.6-11.6-1.7c-2.8-0.9-4.1-2-4.1-2.6c0-0.2,0.1-0.4,0.4-0.5
				c4.6,1.5,9.8,2.3,15.2,2.3c5.5,0,10.6-0.8,15.2-2.3C70.1,55.5,70.2,55.7,70.2,55.9L70.2,55.9z M54.6,55.3
				C37.2,55.3,23,45.7,23,34c0-4.9,5.2-7.9,9.5-9.5c5.8-2.2,13.6-3.4,22-3.4c8.4,0,16.3,1.2,22,3.4c4.3,1.6,9.5,4.6,9.5,9.5
				C86.1,45.7,72,55.3,54.6,55.3L54.6,55.3z"/>
			<path class="st7" d="M54.6,53c-0.6,0-1.1-0.3-1.1-0.7c0-0.4,0.5-0.7,1.1-0.7c4.2,0,8.4-0.8,11.9-2c0.5-0.2,1.2-0.1,1.5,0.3
				s0.1,0.8-0.4,1C63.7,52.2,59.1,53,54.6,53C54.6,53,54.6,53,54.6,53L54.6,53z"/>
			<path class="st7" d="M71.9,48.4c-0.3,0-0.6-0.1-0.8-0.2c-0.4-0.3-0.4-0.8,0.1-1c0.8-0.5,1.5-1,2.1-1.5c0.4-0.3,1.1-0.3,1.5-0.1
				c0.4,0.3,0.5,0.7,0.1,1c-0.7,0.6-1.5,1.1-2.3,1.6C72.4,48.4,72.2,48.4,71.9,48.4L71.9,48.4z"/>
			<path class="st7" d="M54.6,40.9c-7.6,0-14.6-0.8-19.8-2.3c-5.6-1.6-8.7-3.9-8.7-6.5c0-2.6,3.1-5,8.6-6.9
				c5.4-1.8,12.5-2.8,19.9-2.8s14.5,1,19.9,2.8c5.6,1.8,8.6,4.3,8.6,6.9c0,2.6-3.1,4.8-8.7,6.5C69.2,40.1,62.1,40.9,54.6,40.9
				L54.6,40.9z M54.6,23.9c-15.5,0-26.3,4.3-26.3,8.2c0,1.9,2.6,3.8,7.4,5.1c5,1.4,11.7,2.2,19,2.2s14-0.8,19-2.2
				c4.8-1.4,7.4-3.2,7.4-5.1C80.9,28.2,70.1,23.9,54.6,23.9L54.6,23.9z"/>
			<path class="st7" d="M37.8,16.2c-0.3,0-0.6-0.1-0.9-0.2c-0.9-0.3-1.1-1.1-0.7-1.6c0,0,1.5-1.8,1.5-3.6c0-0.7-0.3-1-0.7-1.5
				C36.6,8.7,36,8,36,6.6c0-2.4,1.9-4.7,2-4.8c0.5-0.6,1.6-0.8,2.4-0.4c0.9,0.3,1.1,1.1,0.7,1.6c0,0-1.5,1.8-1.5,3.6
				c0,0.7,0.3,1,0.7,1.5c0.5,0.6,1.1,1.3,1.1,2.7c0,2.4-1.9,4.7-2,4.8C39,16,38.4,16.2,37.8,16.2z"/>
			<path class="st7" d="M66.3,16.2c-0.3,0-0.6-0.1-0.9-0.2c-0.9-0.3-1.1-1.1-0.7-1.6c0,0,1.5-1.8,1.5-3.6c0-0.7-0.3-1-0.7-1.5
				c-0.5-0.6-1.1-1.3-1.1-2.7c0-2.4,1.9-4.7,2-4.8C67,1.3,68.1,1.1,69,1.4c0.9,0.3,1.1,1.1,0.7,1.6c0,0-1.5,1.8-1.5,3.6
				c0,0.7,0.3,1,0.7,1.5c0.5,0.6,1.1,1.3,1.1,2.7c0,2.4-1.9,4.7-2,4.8C67.5,16,66.9,16.2,66.3,16.2z"/>
			<path class="st7" d="M52,16.2c-0.3,0-0.6-0.1-0.9-0.2c-0.9-0.3-1.1-1.1-0.7-1.6c0,0,1.5-1.8,1.5-3.6c0-0.7-0.3-1-0.7-1.5
				c-0.5-0.6-1.1-1.3-1.1-2.7c0-2.4,1.9-4.7,2-4.8c0.5-0.6,1.6-0.8,2.4-0.4c0.9,0.3,1.1,1.1,0.7,1.6c0,0-1.5,1.8-1.5,3.6
				c0,0.7,0.3,1,0.7,1.5c0.5,0.6,1.1,1.3,1.1,2.7c0,2.4-1.9,4.7-2,4.8C53.2,16,52.6,16.2,52,16.2z"/>
		</g>
	</g>
</g>
</svg>
