<svg xmlns="http://www.w3.org/2000/svg" width="22" height="24" viewBox="0 0 22 24">
    <g fill="none" fill-rule="evenodd">
        <g fill="#FFF" fill-rule="nonzero">
            <g>
                <g>
                    <path d="M19.536 8.334l-2.352-.856c.85-.703 1.214-1.818.953-2.877-.512-2.081-3.05-2.872-4.653-1.454L11.86 4.583l-.321-2.154C11.22.31 8.766-.71 7.039.552c-.863.632-1.322 1.72-1.118 2.827L3.703 2.57c-1.092-.397-2.303.168-2.7 1.26l-.96 2.638c-.133.364.055.767.42.9l10.972 3.994H.84c-.388 0-.702.314-.702.702v9.829c0 1.161.945 2.106 2.106 2.106H16.286c1.16 0 2.106-.945 2.106-2.106v-8l.543.198c.363.133.767-.053.9-.42l.96-2.638c.397-1.092-.167-2.303-1.259-2.7zM7.158 22.596H2.244c-.387 0-.702-.315-.702-.702v-9.127h5.616v9.829zm2.809 0H8.563v-9.83h1.404v9.83zm4.447-18.397c.815-.72 2.1-.316 2.36.737.276 1.124-.81 2.097-1.897 1.703l-2.283-.831 1.82-1.61zM7.87 1.686c.877-.642 2.12-.121 2.281.951l.36 2.412-2.283-.83c-1.086-.397-1.292-1.85-.358-2.533zm.33 7.005L1.603 6.289l.72-1.979c.133-.363.537-.552.9-.42L9.16 6.053 8.2 8.69zm2.64.96l-1.32-.48.96-2.639 1.32.48-.96 2.64zm6.149 12.243c0 .387-.315.702-.703.702h-4.914v-9.83h3.922l1.695.618v8.51zm2.488-11.34l-.72 1.979-6.598-2.402.96-2.638 5.938 2.16c.364.133.552.537.42.9z" transform="translate(-43 -632) translate(26 620) translate(17.711 12)"/>
                </g>
            </g>
        </g>
    </g>
</svg>
