<svg xmlns="http://www.w3.org/2000/svg" width="30" height="30" viewBox="0 0 30 30">
    <g fill="none" fill-rule="evenodd">
        <g fill="#F5E2C8" fill-rule="nonzero">
            <g>
                <g transform="translate(-57 -7098) translate(0 7039) translate(57 59)">
                    <path d="M15 2.703c4.005 0 4.48.015 6.063.087 1.462.066 2.255.312 2.783.516.7.273 1.2.598 1.725 1.123.525.525.85 1.025 1.123 1.725.205.529.45 1.322.516 2.785.072 1.587.087 2.062.087 6.062s-.015 4.484-.087 6.063c-.066 1.462-.312 2.258-.516 2.787-.273.7-.598 1.2-1.123 1.725-.525.525-1.025.85-1.725 1.123-.529.205-1.322.45-2.785.516-1.587.073-2.062.088-6.062.088s-4.484-.015-6.063-.088c-1.462-.066-2.258-.313-2.787-.516-.652-.241-1.241-.625-1.725-1.123-.525-.525-.85-1.025-1.123-1.725-.205-.53-.45-1.325-.516-2.787-.073-1.582-.088-2.056-.088-6.063 0-4.006.015-4.478.088-6.062.066-1.463.313-2.254.516-2.783.273-.7.598-1.2 1.123-1.725.525-.525 1.025-.85 1.725-1.122.53-.205 1.325-.45 2.787-.516 1.582-.073 2.056-.088 6.063-.088M15 0c-4.075 0-4.585.018-6.185.09-1.596.073-2.687.325-3.641.698-.988.383-1.825.896-2.663 1.73-.837.833-1.339 1.67-1.724 2.657-.37.953-.625 2.044-.697 3.64C.018 10.415 0 10.928 0 15c0 4.073.018 4.585.09 6.185.073 1.596.325 2.688.698 3.641.377 1.002.967 1.91 1.73 2.663.75.762 1.655 1.352 2.656 1.728.95.373 2.04.626 3.637.7 1.6.072 2.113.088 6.188.088 4.075 0 4.581-.016 6.181-.087 1.596-.075 2.688-.326 3.641-.7 1.001-.375 1.908-.966 2.656-1.73.763-.75 1.353-1.656 1.73-2.657.37-.952.625-2.043.697-3.64.072-1.6.09-2.112.09-6.185 0-4.072-.019-4.585-.091-6.185-.073-1.596-.326-2.687-.698-3.641-.377-1-.968-1.907-1.731-2.656-.75-.763-1.656-1.353-2.657-1.73-.95-.37-2.042-.625-3.637-.697C19.584.018 19.071 0 15 0z"/>
                    <path d="M15 7.298c-4.2.075-7.565 3.501-7.565 7.702 0 4.2 3.365 7.627 7.565 7.703 4.253 0 7.703-3.45 7.703-7.703 0-4.252-3.45-7.702-7.703-7.702zM15 20c-2.762 0-5-2.237-5-5 0-2.762 2.238-5 5-5 2.763 0 5 2.238 5 5 0 2.763-2.237 5-5 5z"/>
                    <circle cx="23.007" cy="6.993" r="1.8"/>
                </g>
            </g>
        </g>
    </g>
</svg>
