<?xml version="1.0" encoding="utf-8"?>
<!-- Generator: Adobe Illustrator 23.0.1, SVG Export Plug-In . SVG Version: 6.00 Build 0)  -->
<svg version="1.1" id="Layer_1" xmlns="http://www.w3.org/2000/svg" xmlns:xlink="http://www.w3.org/1999/xlink" x="0px" y="0px"
	 viewBox="0 0 37 37" style="enable-background:new 0 0 37 37;" xml:space="preserve">
<g>
	<g>
		<g transform="translate(-702 -4013) translate(702 4013)">
			<path d="M18.5,3.3c4.9,0,5.5,0,7.5,0.1c1.8,0.1,2.8,0.4,3.4,0.6c0.9,0.3,1.5,0.7,2.1,1.4c0.6,0.6,1,1.3,1.4,2.1
				c0.3,0.7,0.6,1.6,0.6,3.4c0.1,2,0.1,2.5,0.1,7.5c0,4.9,0,5.5-0.1,7.5c-0.1,1.8-0.4,2.8-0.6,3.4c-0.3,0.9-0.7,1.5-1.4,2.1
				c-0.6,0.6-1.3,1-2.1,1.4c-0.7,0.3-1.6,0.6-3.4,0.6c-2,0.1-2.5,0.1-7.5,0.1c-4.9,0-5.5,0-7.5-0.1c-1.8-0.1-2.8-0.4-3.4-0.6
				c-0.8-0.3-1.5-0.8-2.1-1.4c-0.6-0.6-1-1.3-1.4-2.1c-0.3-0.7-0.6-1.6-0.6-3.4c-0.1-2-0.1-2.5-0.1-7.5s0-5.5,0.1-7.5
				c0.1-1.8,0.4-2.8,0.6-3.4c0.3-0.9,0.7-1.5,1.4-2.1c0.6-0.6,1.3-1,2.1-1.4C8.2,3.8,9.2,3.5,11,3.4C13,3.4,13.6,3.3,18.5,3.3
				 M18.5,0c-5,0-5.7,0-7.6,0.1C8.9,0.2,7.6,0.5,6.4,1C5.2,1.4,4.1,2.1,3.1,3.1c-1,1-1.6,2.1-2.1,3.3c-0.5,1.2-0.8,2.5-0.9,4.5
				C0,12.8,0,13.5,0,18.5s0,5.7,0.1,7.6c0.1,2,0.4,3.3,0.9,4.5c0.5,1.2,1.2,2.4,2.1,3.3c0.9,0.9,2,1.7,3.3,2.1
				c1.2,0.5,2.5,0.8,4.5,0.9c2,0.1,2.6,0.1,7.6,0.1c5,0,5.6,0,7.6-0.1c2-0.1,3.3-0.4,4.5-0.9c1.2-0.5,2.4-1.2,3.3-2.1
				c0.9-0.9,1.7-2,2.1-3.3c0.5-1.2,0.8-2.5,0.9-4.5c0.1-2,0.1-2.6,0.1-7.6c0-5,0-5.7-0.1-7.6c-0.1-2-0.4-3.3-0.9-4.5
				c-0.5-1.2-1.2-2.4-2.1-3.3c-0.9-0.9-2-1.7-3.3-2.1c-1.2-0.5-2.5-0.8-4.5-0.9C24.2,0,23.5,0,18.5,0z"/>
			<path d="M18.5,9c-5.2,0.1-9.3,4.3-9.3,9.5s4.1,9.4,9.3,9.5c5.2,0,9.5-4.3,9.5-9.5S23.7,9,18.5,9z M18.5,24.7
				c-3.4,0-6.2-2.8-6.2-6.2s2.8-6.2,6.2-6.2s6.2,2.8,6.2,6.2S21.9,24.7,18.5,24.7z"/>
			<circle cx="28.4" cy="8.6" r="2.2"/>
		</g>
	</g>
</g>
</svg>
