<svg xmlns="http://www.w3.org/2000/svg" width="771" height="625" viewBox="0 0 771 625">
    <g fill="none" fill-rule="evenodd">
        <g fill="#FFF9E0" fill-rule="nonzero">
            <g>
                <path d="M553.302 24.464c46.006 33.946 67.892 102.731 106.751 163.923 39.306 60.746 96.031 113.898 107.198 173.75 11.166 59.405-22.78 125.51-79.058 156.776-56.279 31.266-134.89 27.693-192.063 46.9-57.618 18.759-93.35 60.744-128.19 58.065-34.393-2.234-67.445-49.58-96.031-84.865-29.033-35.733-53.152-59.852-110.324-88.885-56.726-28.586-146.95-61.638-159.903-102.284-12.953-40.2 51.365-88.438 108.984-116.13 57.619-28.14 108.537-35.733 150.076-72.36 41.54-36.178 73.699-100.497 125.064-133.55 51.366-33.499 121.49-34.839 167.496-1.34z" transform="translate(380 -4319) translate(-3 4761) translate(-376.307 -441.813)"/>
            </g>
        </g>
    </g>
</svg>
