<svg xmlns="http://www.w3.org/2000/svg" width="476" height="516" viewBox="0 0 476 516">
    <g fill="none" fill-rule="evenodd">
        <g fill="#FFF9E0" fill-rule="nonzero">
            <g>
                <g>
                    <path d="M395.201 114.97c36.63 33.336 69.555 67.496 77.786 107.006 8.231 39.51-9.055 84.37-30.868 130.054-22.224 46.095-48.976 93.014-94.66 126.35-45.683 33.337-110.299 53.092-139.52 22.225-28.81-31.279-22.636-112.769-58.853-172.034C112.868 269.717 33.436 233.5 8.742 177.94c-24.694-55.15 5.35-130.055 59.677-160.51 54.327-30.456 133.347-16.463 192.2 7.408 59.266 23.459 98.365 56.384 134.582 90.132z" transform="translate(-1117 -4389) translate(-3 4761) translate(-376.307 -441.813) translate(1497.116 69.813)"/>
                </g>
            </g>
        </g>
    </g>
</svg>
