<svg xmlns="http://www.w3.org/2000/svg" width="362" height="337" viewBox="0 0 362 337">
    <g fill="none" fill-rule="evenodd">
        <g fill="#FFF9E0" fill-rule="nonzero">
            <g>
                <g>
                    <path d="M261.144 2.223c29.118 8.564 48.448 42.576 68.512 76.343 19.82 33.767 40.863 67.29 25.937 92.247-14.681 24.959-65.087 41.598-90.045 66.8-25.203 24.959-24.713 58.726-39.15 78.056-14.192 19.575-43.31 24.958-67.29 16.394-23.979-8.564-43.31-30.83-60.682-48.448-17.618-17.618-33.767-30.342-54.32-46.98-20.31-16.64-45.513-36.948-44.045-56.523 1.468-19.33 29.608-37.927 46.736-60.194C64.17 97.896 70.777 71.96 86.926 56.055c16.149-16.15 41.597-22.267 73.895-33.767 32.3-11.5 71.205-28.384 100.323-20.065z" transform="translate(-1006 -5061) translate(-3 4761) translate(-376.307 -441.813) translate(1386.09 742.564)"/>
                </g>
            </g>
        </g>
    </g>
</svg>
