<svg xmlns="http://www.w3.org/2000/svg" width="298" height="293" viewBox="0 0 298 293">
    <g fill="none" fill-rule="evenodd">
        <g fill="#FFF9E0" fill-rule="nonzero">
            <g>
                <g>
                    <path d="M259.048 23.3c19.096 22.2 19.096 61.109 25.54 98.824 6.685 37.715 19.813 74.237 7.878 97.39-11.696 23.155-48.934 32.942-84.74 45.832-35.805 12.65-70.178 28.405-108.61 26.496-38.43-1.671-80.442-21.006-94.048-52.754-13.368-31.747 1.91-76.146 20.29-109.326 18.38-32.94 40.102-54.901 63.733-76.385 23.393-21.483 48.934-42.489 80.682-50.127 31.986-7.639 70.178-2.148 89.275 20.05z" transform="translate(-35 -5062) translate(-3 4761) translate(-376.307 -441.813) translate(414.317 742.875)"/>
                </g>
            </g>
        </g>
    </g>
</svg>
