<svg xmlns="http://www.w3.org/2000/svg" xmlns:xlink="http://www.w3.org/1999/xlink" width="95" height="83" viewBox="0 0 95 83">
    <defs>
        <path id="jlq7n3th9a" d="M0 0L94.603 0 94.603 82.2 0 82.2z"/>
        <path id="5fzk6mmuyc" d="M0 0l.002 61.098c14.702 0 26.373-11.961 26.373-26.662V0H0z"/>
        <path id="1t0tapl6oe" d="M0 0l.002 61.098c14.702 0 26.373-11.961 26.373-26.662V0H0z"/>
        <path id="amn3gakirg" d="M0 0l.002 61.098c14.702 0 26.373-11.961 26.373-26.662V0H0z"/>
        <path id="8g6jsa0x3i" d="M0 0l.002 61.098c14.702 0 26.373-11.961 26.373-26.662V0H0z"/>
        <path id="jor2bimwek" d="M0 0l.002 61.098c14.702 0 26.373-11.961 26.373-26.662V0H0z"/>
        <path id="9gtn0tm90m" d="M0 0l.002 61.098c14.702 0 26.373-11.961 26.373-26.662V0H0z"/>
        <path id="jfqjeaoyio" d="M0 0l.002 61.098c14.702 0 26.373-11.961 26.373-26.662V0H0z"/>
        <path id="nw9vcfrveq" d="M0 0l.002 61.098c14.702 0 26.373-11.961 26.373-26.662V0H0z"/>
        <path id="xf8wl9u9as" d="M0 0l.002 61.098c14.702 0 26.373-11.961 26.373-26.662V0"/>
        <path id="9278adl2ku" d="M0 0l.002 61.098c14.702 0 26.373-11.961 26.373-26.662V0"/>
        <path id="mza91tb4hw" d="M0 0l.002 61.098c14.702 0 26.373-11.961 26.373-26.662V0"/>
        <path id="ttbqix42zy" d="M0 0l.002 61.098c14.702 0 26.373-11.961 26.373-26.662V0"/>
    </defs>
    <g fill="none" fill-rule="evenodd">
        <g>
            <g>
                <g>
                    <g>
                        <g transform="translate(-130 -5320) translate(130.396 5320.4)">
                            <mask id="5vlgtzx68b" fill="#fff">
                                <use xlink:href="#jlq7n3th9a"/>
                            </mask>
                            <path fill="#2A101B" d="M73.691 0l.014 34.437c0 14.701-11.96 26.662-26.661 26.662h.278c-14.701 0-26.425-11.961-26.425-26.662V0H0v34.437C0 60.773 21.002 82.2 47.337 82.2h-.5c26.338 0 47.766-21.427 47.766-47.763V0H73.691z" mask="url(#5vlgtzx68b)"/>
                        </g>
                        <path fill="#FEF5D7" d="M7.52 6.71l1.067 2.028c-1.44.428-2.224 1.442-2.224 2.867 0 1.21.603 1.993 1.565 1.993.82 0 1.318-.516 1.567-1.638l.302-1.424c.481-2.208 1.708-3.524 3.721-3.524 2.421 0 3.773 1.958 3.773 4.555 0 2.296-.96 3.936-2.758 4.594l-.872-2.064c1.157-.428 1.761-1.228 1.761-2.475 0-1.157-.55-1.869-1.372-1.869-.745 0-1.154.534-1.35 1.514l-.303 1.406C11.844 15.11 10.6 16.5 8.41 16.5c-2.369 0-4.006-2.064-4.006-4.894 0-2.653 1.227-4.328 3.116-4.895M6.771 27.467L4.619 27.467 4.619 19.366 17.079 19.366 17.079 27.288 14.923 27.288 14.923 22.305 12.077 22.305 12.077 25.704 10.403 25.704 10.403 22.305 6.771 22.305zM13.502 37.081c.98-.02 1.463-.674 1.436-1.85l-.048-2.064-3.098.072.05 2.065c.024 1.174.608 1.801 1.66 1.777m-8.595 3.404l-.159.005-.075-3.258c.792-.41 1.68-.483 2.963-.477l.82.015c1.193.008 1.629-.392 1.601-1.568l-.045-1.923-5.429.127-.067-2.937 12.46-.288.126 5.392c.063 2.724-.988 4.368-3.123 4.418-1.636.037-2.696-1.076-3.02-2.798l-.035.001c-.178 1.608-1.07 2.27-2.652 2.342l-.732.053c-.96.056-1.883.15-2.633.896M21.14 50.929L8.04 51.546 6.861 48.453 17.072 40.271 18.233 43.313 10.606 49.235 20.226 48.533zM19.308 64.471L17.663 65.863 12.433 59.682 21.941 51.634 27.057 57.679 25.413 59.07 22.195 55.267 20.022 57.106 22.215 59.7 20.941 60.781 18.745 58.187 15.974 60.532zM34.603 65.23c-.125.332-.22.733-.256 1.33.992-.31 1.685-.677 1.954-1.392.158-.417.077-.808-.339-.965-.48-.184-1.005.093-1.359 1.027zm-3.474 7.517c.416.157.861.19 1.342.126-.246-.854-.445-1.94-.623-3.283-.032-.314-.064-.631-.088-.924-.802.36-1.318.87-1.639 1.717-.367.967-.056 1.959 1.008 2.364zm7.773 2.199c-1.052 1.467-2.375 1.747-3.758 1.222-.849-.32-1.482-.806-1.994-1.667-.96.226-1.967.168-3.049-.243-2.35-.887-3.078-2.63-2.322-4.627.655-1.731 2.235-2.485 4.016-2.82.077-.751.231-1.36.42-1.858.814-2.15 2.548-2.708 4.078-2.128 1.465.553 2.03 1.68 1.564 2.912-.48 1.265-1.817 1.883-3.462 2.306.034.259.057.555.104.877.146 1.179.283 2.124.45 2.893.934-.864 1.65-1.946 2.308-3.391l1.223 1.302c-.686 1.452-1.76 2.892-2.983 3.857.25.549.557.837.94.985.467.177.961.078 1.578-.851l.887 1.23zM55.134 68.085c-.173-1.055-.932-1.507-2.16-1.306l-1.88.307.526 3.23 1.88-.305c1.231-.2 1.806-.872 1.634-1.926m2.84-.608c.38 2.32-1.01 3.861-3.837 4.323l-2.214.362.832 5.092-2.897.473-2.009-12.292 5.111-.834c2.826-.462 4.634.557 5.013 2.876M66.177 63.065c-.494-.847-1.3-.952-2.313-.36l-1.784 1.04 1.564 2.674 1.782-1.041c1.014-.592 1.278-1.41.751-2.313m7.137 5.867l.081.138-2.814 1.64c-.74-.492-1.236-1.232-1.852-2.356l-.38-.726c-.572-1.046-1.135-1.234-2.15-.642l-1.659.97 2.74 4.687-2.539 1.48-6.283-10.754 4.656-2.721c2.353-1.373 4.297-1.252 5.376.59.826 1.414.363 2.88-.984 3.997l.018.03c1.49-.623 2.502-.162 3.331 1.188l.4.61c.515.814 1.042 1.576 2.06 1.869M77.497 55.374c-2.045-1.605-3.777-1.79-4.822-.46s-.466 2.982 1.577 4.59c2.043 1.604 3.774 1.765 4.819.434 1.045-1.33.469-2.96-1.574-4.564m-5.126 6.521c-3.107-2.44-3.714-5.702-1.56-8.445 2.167-2.758 5.47-2.926 8.577-.484 3.107 2.443 3.726 5.688 1.558 8.446-2.155 2.744-5.47 2.926-8.575.483M79.558 40.643L78.544 43.682 88.222 46.908 87.292 49.694 77.617 46.468 76.604 49.507 74.457 48.792 77.413 39.928zM87.922 30.574L90.074 30.621 89.897 38.72 77.437 38.447 77.61 30.525 79.765 30.572 79.654 35.555 82.504 35.619 82.576 32.22 84.251 32.257 84.177 35.656 87.808 35.736zM83.895 28.55c-4.308 0-6.585-2.439-6.585-5.68 0-2.473 1.28-4.359 4.041-4.857l.693 2.6c-1.746.284-2.42 1.137-2.42 2.241 0 1.531 1.371 2.652 4.271 2.652 2.6 0 3.952-.854 3.952-2.51 0-1.246-.872-2.084-2.723-2.422l.606-2.65c3.15.64 4.468 2.758 4.468 5.304 0 3.364-2.28 5.321-6.303 5.321M79.784 6.717L79.784 9.92 89.983 9.92 89.983 12.858 79.784 12.858 79.784 16.061 77.522 16.061 77.522 6.717z" transform="translate(-130 -5320) translate(130.396 5320.4)"/>
                        <path fill="#FABC2F" d="M20.902 17.56v16.876c0 14.702 11.724 26.663 26.426 26.663v-43.54H20.902z" transform="translate(-130 -5320) translate(130.396 5320.4)"/>
                        <path fill="#FEF5D7" d="M20.902 17.56L47.328 17.56 47.328 0 20.902 0z" transform="translate(-130 -5320) translate(130.396 5320.4)"/>
                        <path fill="#F37F2D" d="M73.7 0v34.436C73.7 49.138 62.018 61.1 47.316 61.1V0H73.7z" transform="translate(-130 -5320) translate(130.396 5320.4)"/>
                    </g>
                    <g>
                        <g transform="translate(-130 -5320) translate(130.396 5320.4) translate(47.326)">
                            <mask id="eqp20ino4d" fill="#fff">
                                <use xlink:href="#5fzk6mmuyc"/>
                            </mask>
                            <path fill="#7A2F3B" d="M.689 7.724C.689 2.642 5.452.562 5.452-3.39c0-3.951-4.763-6.101-4.763-11.115H-.986c0 5.014-4.763 7.164-4.763 11.115 0 3.952 4.762 6.032 4.762 11.114H.688z" mask="url(#eqp20ino4d)"/>
                        </g>
                        <g transform="translate(-130 -5320) translate(130.396 5320.4) translate(47.326)">
                            <mask id="x1znydldmf" fill="#fff">
                                <use xlink:href="#1t0tapl6oe"/>
                            </mask>
                            <path fill="#7A2F3B" d="M.689 29.951c0-5.082 4.763-7.162 4.763-11.114 0-3.951-4.763-6.1-4.763-11.114H-.986c0 5.013-4.763 7.163-4.763 11.114 0 3.953 4.762 6.032 4.762 11.114H.688z" mask="url(#x1znydldmf)"/>
                        </g>
                        <g transform="translate(-130 -5320) translate(130.396 5320.4) translate(47.326)">
                            <mask id="p57osgr3dh" fill="#fff">
                                <use xlink:href="#amn3gakirg"/>
                            </mask>
                            <path fill="#7A2F3B" d="M.689 52.179c0-5.082 4.763-7.162 4.763-11.114 0-3.952-4.763-6.101-4.763-11.115H-.986c0 5.014-4.763 7.163-4.763 11.115s4.762 6.032 4.762 11.114H.688z" mask="url(#p57osgr3dh)"/>
                        </g>
                        <g transform="translate(-130 -5320) translate(130.396 5320.4) translate(47.326)">
                            <mask id="5dmi5qfpbj" fill="#fff">
                                <use xlink:href="#8g6jsa0x3i"/>
                            </mask>
                            <path fill="#7A2F3B" d="M.689 74.407c0-5.082 4.763-7.162 4.763-11.114 0-3.952-4.763-6.102-4.763-11.115H-.986c0 5.013-4.763 7.163-4.763 11.115s4.762 6.032 4.762 11.114H.688z" mask="url(#5dmi5qfpbj)"/>
                        </g>
                        <g transform="translate(-130 -5320) translate(130.396 5320.4) translate(47.326)">
                            <mask id="wliqtuxlhl" fill="#fff">
                                <use xlink:href="#jor2bimwek"/>
                            </mask>
                            <path fill="#7A2F3B" d="M27.352 7.724c0-5.082 4.763-7.162 4.763-11.114 0-3.951-4.763-6.101-4.763-11.115h-1.676c0 5.014-4.761 7.164-4.761 11.115 0 3.952 4.76 6.032 4.76 11.114h1.677z" mask="url(#wliqtuxlhl)"/>
                        </g>
                        <g transform="translate(-130 -5320) translate(130.396 5320.4) translate(47.326)">
                            <mask id="2j5s70f6en" fill="#fff">
                                <use xlink:href="#9gtn0tm90m"/>
                            </mask>
                            <path fill="#7A2F3B" d="M27.352 29.951c0-5.082 4.763-7.162 4.763-11.114 0-3.951-4.763-6.1-4.763-11.114h-1.676c0 5.013-4.761 7.163-4.761 11.114 0 3.953 4.76 6.032 4.76 11.114h1.677z" mask="url(#2j5s70f6en)"/>
                        </g>
                        <g transform="translate(-130 -5320) translate(130.396 5320.4) translate(47.326)">
                            <mask id="et0kpoc2xp" fill="#fff">
                                <use xlink:href="#jfqjeaoyio"/>
                            </mask>
                            <path fill="#7A2F3B" d="M27.352 52.179c0-5.082 4.763-7.162 4.763-11.114 0-3.952-4.763-6.101-4.763-11.115h-1.676c0 5.014-4.761 7.163-4.761 11.115s4.76 6.032 4.76 11.114h1.677z" mask="url(#et0kpoc2xp)"/>
                        </g>
                        <g transform="translate(-130 -5320) translate(130.396 5320.4) translate(47.326)">
                            <mask id="m7k7m4hefr" fill="#fff">
                                <use xlink:href="#nw9vcfrveq"/>
                            </mask>
                            <path fill="#7A2F3B" d="M27.352 74.407c0-5.082 4.763-7.162 4.763-11.114 0-3.952-4.763-6.102-4.763-11.115h-1.676c0 5.013-4.761 7.163-4.761 11.115s4.76 6.032 4.76 11.114h1.677z" mask="url(#m7k7m4hefr)"/>
                        </g>
                        <g transform="translate(-130 -5320) translate(130.396 5320.4) translate(47.326)">
                            <mask id="sjl9xnpist" fill="#fff">
                                <use xlink:href="#xf8wl9u9as"/>
                            </mask>
                            <path fill="#7A2F3B" d="M17.165 73.068c0 2.599-1.847 4.705-4.122 4.705-2.276 0-4.122-2.106-4.122-4.705 0-2.6 1.846-4.706 4.122-4.706 1.131 0 2.156.519 2.9 1.36.753.856 1.222 2.037 1.222 3.346" mask="url(#sjl9xnpist)"/>
                        </g>
                        <g transform="translate(-130 -5320) translate(130.396 5320.4) translate(47.326)">
                            <mask id="26kkyd05tv" fill="#fff">
                                <use xlink:href="#9278adl2ku"/>
                            </mask>
                            <path fill="#7A2F3B" d="M17.165 51.19c0 2.6-1.847 4.706-4.122 4.706-2.276 0-4.122-2.106-4.122-4.706 0-2.6 1.846-4.705 4.122-4.705 1.131 0 2.156.518 2.9 1.36.753.855 1.222 2.037 1.222 3.345" mask="url(#26kkyd05tv)"/>
                        </g>
                        <g transform="translate(-130 -5320) translate(130.396 5320.4) translate(47.326)">
                            <mask id="e7x4ugvwox" fill="#fff">
                                <use xlink:href="#mza91tb4hw"/>
                            </mask>
                            <path fill="#7A2F3B" d="M17.165 29.313c0 2.599-1.847 4.706-4.122 4.706-2.276 0-4.122-2.107-4.122-4.706 0-2.6 1.846-4.705 4.122-4.705 1.131 0 2.156.518 2.9 1.36.753.855 1.222 2.036 1.222 3.345" mask="url(#e7x4ugvwox)"/>
                        </g>
                        <g transform="translate(-130 -5320) translate(130.396 5320.4) translate(47.326)">
                            <mask id="1zmgfzc5xz" fill="#fff">
                                <use xlink:href="#ttbqix42zy"/>
                            </mask>
                            <path fill="#7A2F3B" d="M17.165 7.436c0 2.599-1.847 4.705-4.122 4.705-2.276 0-4.122-2.106-4.122-4.705 0-2.601 1.846-4.706 4.122-4.706 1.131 0 2.156.519 2.9 1.36.753.855 1.222 2.037 1.222 3.346" mask="url(#1zmgfzc5xz)"/>
                        </g>
                    </g>
                </g>
            </g>
        </g>
    </g>
</svg>
