<svg xmlns="http://www.w3.org/2000/svg" width="26" height="38" viewBox="0 0 26 38">
    <g fill="none" fill-rule="evenodd">
        <g fill="#321A1F" fill-rule="nonzero">
            <g>
                <g>
                    <path d="M12.264 3.864h6.21c.3 0 .543-.243.543-.543 0-.3-.243-.543-.543-.543h-6.21c-.3 0-.544.243-.544.543 0 .3.244.543.544.543z" transform="translate(-1328 -71) translate(-1 41) translate(1329.994 30.215)"/>
                    <path d="M23.098 4.169c.177-.258.275-.54.275-.848C23.373.699 16.39 0 12.264 0S1.154.7 1.154 3.321c0 .309.098.59.276.848C.742 4.829 0 5.739 0 6.58v24.274c0 .632.387 1.192 1.154 1.676v1.149c0 2.62 6.984 3.32 11.11 3.32 4.126 0 11.11-.7 11.11-3.32v-1.15c.766-.483 1.153-1.043 1.153-1.675V6.581c0-.843-.742-1.751-1.43-2.412zM5.328 2.132c1.878-.44 4.342-.683 6.936-.683 2.594 0 5.058.243 6.936.683 2.043.479 2.655 1.02 2.722 1.189-.02.052-.093.139-.24.248l-.104.07c-.373.243-1.092.57-2.378.87-1.878.441-4.342.683-6.936.683-2.594 0-5.058-.242-6.936-.682-1.287-.302-2.006-.628-2.379-.87l-.103-.071c-.148-.11-.22-.196-.24-.248.067-.17.679-.71 2.721-1.19zm16.597 31.072v.464c-.042.156-.634.71-2.725 1.2-1.878.44-4.342.683-6.936.683-2.594 0-5.058-.243-6.936-.683-2.09-.49-2.684-1.044-2.725-1.189v-.475c.397.14.84.272 1.326.394 2.235.558 5.195.866 8.335.866 3.14 0 6.1-.308 8.335-.866.487-.122.93-.253 1.326-.394zm.037-28.115c.834.768 1.116 1.325 1.116 1.492v24.274c0 .125-.503.756-2.83 1.337-2.124.531-4.96.823-7.984.823-3.025 0-5.86-.292-7.984-.823-2.327-.581-2.831-1.212-2.831-1.337V6.581c0-.167.282-.724 1.116-1.492 2.255 1.188 6.721 1.552 9.699 1.552 2.978 0 7.443-.364 9.698-1.552z" transform="translate(-1328 -71) translate(-1 41) translate(1329.994 30.215)"/>
                </g>
            </g>
        </g>
    </g>
</svg>
