<svg xmlns="http://www.w3.org/2000/svg" width="409" height="331" viewBox="0 0 409 331">
    <g fill="none" fill-rule="evenodd">
        <g fill="#FBC16C" fill-rule="nonzero">
            <g>
                <path d="M293.499 12.977c24.403 18.007 36.013 54.494 56.625 86.953 20.85 32.222 50.94 60.417 56.863 92.165 5.923 31.511-12.083 66.577-41.936 83.162-29.853 16.585-71.552 14.69-101.88 24.877-30.563 9.951-49.517 32.223-67.998 30.801-18.243-1.185-35.776-26.299-50.94-45.016-15.4-18.955-28.194-31.749-58.52-47.15-30.09-15.163-77.95-32.695-84.821-54.256-6.87-21.323 27.247-46.912 57.81-61.601 30.564-14.927 57.574-18.954 79.608-38.382 22.035-19.192 39.094-53.31 66.34-70.842 27.247-17.77 64.445-18.48 88.849-.71z" transform="translate(0 -4656) translate(0 2415) translate(0 2241)"/>
            </g>
        </g>
    </g>
</svg>
