<svg xmlns="http://www.w3.org/2000/svg" width="331" height="359" viewBox="0 0 331 359">
    <g fill="none" fill-rule="evenodd">
        <g fill="#FBC16C" fill-rule="nonzero">
            <g>
                <path d="M274.19 79.765c25.413 23.13 48.257 46.83 53.968 74.242 5.71 27.412-6.282 58.536-21.416 90.231-15.42 31.98-33.98 64.533-65.675 87.662-31.695 23.129-76.525 36.835-96.799 15.419-19.988-21.701-15.705-78.239-40.833-119.357-25.127-40.833-80.237-65.96-97.37-104.509C-11.067 85.191 9.777 33.222 47.47 12.092 85.161-9.038 139.985.67 180.818 17.232c41.118 16.276 68.244 39.119 93.372 62.533z" transform="translate(-247 -2380) translate(0 2415) translate(247.813 -34.482)"/>
            </g>
        </g>
    </g>
</svg>
