<?xml version="1.0" encoding="utf-8"?>
<!-- Generator: Adobe Illustrator 23.0.1, SVG Export Plug-In . SVG Version: 6.00 Build 0)  -->
<svg version="1.1" id="Layer_1" xmlns="http://www.w3.org/2000/svg" xmlns:xlink="http://www.w3.org/1999/xlink" x="0px" y="0px"
	 viewBox="0 0 476 517" style="enable-background:new 0 0 476 517;" xml:space="preserve">
<style type="text/css">
	.st0{fill:#FFDCDC;}
</style>
<g>
	<g>
		<g>
			<g>
				<path class="st0" d="M395.3,115.5c36.6,33.3,69.6,67.5,77.8,107c8.2,39.5-9.1,84.4-30.9,130.1c-22.2,46.1-49,93-94.7,126.4
					C301.9,512.2,237.2,532,208,501.1c-28.8-31.3-22.6-112.8-58.9-172C112.9,270.2,33.5,234,8.8,178.5
					c-24.7-55.2,5.3-130.1,59.7-160.5c54.3-30.5,133.3-16.5,192.2,7.4C320,48.8,359.1,81.7,395.3,115.5L395.3,115.5z"/>
			</g>
		</g>
	</g>
</g>
</svg>
