<?xml version="1.0" encoding="utf-8"?>
<!-- Generator: Adobe Illustrator 23.0.1, SVG Export Plug-In . SVG Version: 6.00 Build 0)  -->
<svg version="1.1" id="Layer_1" xmlns="http://www.w3.org/2000/svg" xmlns:xlink="http://www.w3.org/1999/xlink" x="0px" y="0px"
	 viewBox="0 0 361 337" style="enable-background:new 0 0 361 337;" xml:space="preserve">
<style type="text/css">
	.st0{fill:#FFDCDC;}
</style>
<g>
	<g>
		<g>
			<g>
				<path class="st0" d="M261.2,2.5c29.1,8.6,48.4,42.6,68.5,76.3c19.8,33.8,40.9,67.3,25.9,92.2c-14.7,25-65.1,41.6-90,66.8
					c-25.2,25-24.7,58.7-39.1,78.1c-14.2,19.6-43.3,25-67.3,16.4c-24-8.6-43.3-30.8-60.7-48.4c-17.6-17.6-33.8-30.3-54.3-47
					c-20.3-16.6-45.5-36.9-44-56.5c1.5-19.3,29.6-37.9,46.7-60.2c17.4-22,24-48,40.1-63.9c16.1-16.2,41.6-22.3,73.9-33.8
					C193.2,11.1,232.1-5.8,261.2,2.5L261.2,2.5z"/>
			</g>
		</g>
	</g>
</g>
</svg>
