<?xml version="1.0" encoding="utf-8"?>
<!-- Generator: Adobe Illustrator 23.0.1, SVG Export Plug-In . SVG Version: 6.00 Build 0)  -->
<svg version="1.1" id="Layer_1" xmlns="http://www.w3.org/2000/svg" xmlns:xlink="http://www.w3.org/1999/xlink" x="0px" y="0px"
	 viewBox="0 0 298 293" style="enable-background:new 0 0 298 293;" xml:space="preserve">
<style type="text/css">
	.st0{fill:#FFDCDC;}
</style>
<g>
	<g>
		<g>
			<g>
				<path class="st0" d="M259.3,23.9c19.1,22.2,19.1,61.1,25.5,98.8c6.7,37.7,19.8,74.2,7.9,97.4C281,243.2,243.8,253,208,265.9
					c-35.8,12.6-70.2,28.4-108.6,26.5c-38.4-1.7-80.4-21-94-52.8C-8,207.9,7.3,163.5,25.6,130.3C44,97.4,65.7,75.4,89.4,54
					c23.4-21.5,48.9-42.5,80.7-50.1C202-3.8,240.2,1.7,259.3,23.9L259.3,23.9z"/>
			</g>
		</g>
	</g>
</g>
</svg>
