<?xml version="1.0" encoding="utf-8"?>
<!-- Generator: Adobe Illustrator 23.0.1, SVG Export Plug-In . SVG Version: 6.00 Build 0)  -->
<svg version="1.1" id="Layer_1" xmlns="http://www.w3.org/2000/svg" xmlns:xlink="http://www.w3.org/1999/xlink" x="0px" y="0px"
	 viewBox="0 0 598 485" style="enable-background:new 0 0 598 485;" xml:space="preserve">
<style type="text/css">
	.st0{fill:#FFDCDC;}
</style>
<g>
	<g>
		<g>
			<g>
				<path class="st0" d="M429.4,19.7c35.7,26.3,52.7,79.7,82.8,127.1c30.5,47.1,74.5,88.3,83.1,134.8c8.7,46.1-17.7,97.4-61.3,121.6
					c-43.7,24.3-104.6,21.5-149,36.4c-44.7,14.5-72.4,47.1-99.4,45c-26.7-1.7-52.3-38.5-74.5-65.8c-22.5-27.7-41.2-46.4-85.6-68.9
					c-44-22.2-114-47.8-124-79.3c-10-31.2,39.8-68.6,84.5-90.1c44.7-21.8,84.2-27.7,116.4-56.1c32.2-28.1,57.2-77.9,97-103.6
					C339.4-5.3,393.7-6.3,429.4,19.7L429.4,19.7z"/>
			</g>
		</g>
	</g>
</g>
</svg>
