<svg xmlns="http://www.w3.org/2000/svg" width="31" height="31" viewBox="0 0 31 31">
    <g fill="none" fill-rule="evenodd">
        <g fill="#F5E2C8" fill-rule="nonzero">
            <g>
                <g>
                    <path d="M15 0C6.716 0 0 6.716 0 15c0 8.285 6.716 15 15 15 8.284 0 15-6.715 15-15 0-8.284-6.715-15-15-15zm6.879 21.634c-.27.442-.845.58-1.286.311-3.522-2.153-7.956-2.64-13.177-1.446-.503.115-1.005-.2-1.12-.703-.114-.504.2-1.005.704-1.12 5.714-1.306 10.615-.744 14.569 1.672.44.27.58.846.31 1.286zm1.836-4.084c-.34.55-1.06.723-1.609.385-4.031-2.478-10.178-3.195-14.947-1.748-.618.187-1.272-.161-1.46-.779-.186-.618.163-1.27.78-1.458 5.448-1.653 12.22-.853 16.85 1.993.55.338.724 1.058.386 1.607zm.157-4.253c-4.835-2.871-12.81-3.135-17.426-1.734-.741.224-1.525-.194-1.75-.935-.224-.742.194-1.525.936-1.75 5.298-1.609 14.106-1.298 19.672 2.006.667.396.886 1.257.49 1.923-.394.666-1.257.886-1.921.49z" transform="translate(-57 -7213) translate(0 7039) translate(57.236 174.236)"/>
                </g>
            </g>
        </g>
    </g>
</svg>
