<?xml version="1.0" standalone="no"?>
<!DOCTYPE svg PUBLIC "-//W3C//DTD SVG 1.1//EN" "http://www.w3.org/Graphics/SVG/1.1/DTD/svg11.dtd" >
<svg xmlns="http://www.w3.org/2000/svg" xmlns:xlink="http://www.w3.org/1999/xlink" version="1.1">
<metadata>
Created by FontForge 20190801 at Wed Sep  4 08:54:55 2019
 By www-data
Copyright (c) 2019 by Colophon Foundry. All rights reserved.
</metadata>
<defs>
<font id="fanngrotesquesemiboldpro" horiz-adv-x="660" >
  <font-face 
    font-family="fanngrotesquesemiboldpro"
    font-weight="600"
    font-stretch="normal"
    units-per-em="1000"
    panose-1="2 11 7 2 6 4 2 4 3 3"
    ascent="800"
    descent="-200"
    x-height="510"
    cap-height="700"
    bbox="-344 -335 3608 950"
    underline-thickness="50"
    underline-position="-100"
    unicode-range="U+000D-FB02"
  />
<missing-glyph horiz-adv-x="843" 
d="M72 195l505 505h133l-638 -638v133zM72 464l236 236h133l-369 -369v133zM72 700h100l-100 -100v100zM772 626v-132l-494 -494h-132zM772 357v-132l-225 -225h-132zM772 89v-89h-89z" />
    <glyph glyph-name="fi" unicode="fi" horiz-adv-x="719" 
d="M284 510h125v-96h-125v-414h-153v414h-98v96h98v55q0 94 50.5 140.5t134.5 46.5q63 0 117 -33l-30 -102q-31 20 -60 20q-28 0 -43.5 -18.5t-15.5 -53.5v-55zM503 724h161v-143h-161v143zM507 510h153v-510h-153v510z" />
    <glyph glyph-name="fl" unicode="fl" horiz-adv-x="719" 
d="M284 510h125v-96h-125v-414h-153v414h-98v96h98v55q0 94 50.5 140.5t134.5 46.5q63 0 117 -33l-30 -102q-31 20 -60 20q-28 0 -43.5 -18.5t-15.5 -53.5v-55zM507 740h153v-740h-153v740z" />
    <glyph glyph-name="g_g.liga" unicode="gg" horiz-adv-x="1096" 
d="M387 525q0 46 27.5 75.5t73.5 29.5q37 0 70 -23l-33 -92q-15 11 -26 15.5t-25 4.5q-21 0 -35 -15.5t-12 -43.5q60 -48 60 -134q0 -85 -57.5 -132.5t-161.5 -47.5q-59 0 -104 15q-19 -15 -19 -35t12.5 -29t40.5 -9h144q87 0 134.5 -36.5t47.5 -106.5q0 -83 -73 -128
t-203 -45q-120 0 -175 28t-55 80q0 31 22 52t59 30v1q-34 11 -52.5 35t-18.5 58q0 84 106 118q-42 23 -64.5 61.5t-22.5 90.5q0 85 58.5 132.5t162.5 47.5q70 0 121 -23q-2 9 -2 26zM1048.5 68q47.5 -36 47.5 -104q0 -84 -79.5 -130t-211.5 -46q-127 0 -183.5 27.5
t-56.5 80.5q0 31 22 52t59 30v1q-34 11 -52.5 35t-18.5 58q0 84 106 118q-42 23 -64.5 61.5t-22.5 90.5q0 85 58 132.5t162 47.5q71 0 122 -23q-3 14 -3 28q0 44 27.5 73.5t73.5 29.5q38 0 71 -23l-33 -92q-15 11 -26 15.5t-25 4.5q-21 0 -35 -15.5t-12 -43.5
q60 -48 60 -134q0 -85 -58 -132.5t-162 -47.5q-58 0 -103 15q-19 -15 -19 -35t12.5 -29t40.5 -9h170q86 0 133.5 -36zM325 275q21 24 21 67t-21 66.5t-58 23.5t-57.5 -23.5t-20.5 -66.5t20.5 -67t57.5 -24t58 24zM756 408.5q-20 -23.5 -20 -66.5q0 -44 20.5 -67.5
t57.5 -23.5t58 24t21 67t-21 66.5t-58 23.5q-38 0 -58 -23.5zM161 -30q-15 0 -22 1q-23 -19 -23 -46q0 -66 132 -66q66 0 102 17t36 49q0 45 -68 45h-157zM920 -124q39 17 39 49q0 45 -68 45h-183q-15 0 -22 1q-23 -19 -23 -46q0 -33 34.5 -49.5t107.5 -16.5q76 0 115 17z
" />
    <glyph glyph-name=".notdef" horiz-adv-x="843" 
d="M72 195l505 505h133l-638 -638v133zM72 464l236 236h133l-369 -369v133zM72 700h100l-100 -100v100zM772 626v-132l-494 -494h-132zM772 357v-132l-225 -225h-132zM772 89v-89h-89z" />
    <glyph glyph-name=".null" horiz-adv-x="0" 
 />
    <glyph glyph-name="nonmarkingreturn" unicode="&#xd;" horiz-adv-x="600" 
 />
    <glyph glyph-name="space" unicode=" " horiz-adv-x="219" 
 />
    <glyph glyph-name="exclam" unicode="!" horiz-adv-x="304" 
d="M75 483v217h154v-217l-63 -288h-24zM75 157h154v-157h-154v157z" />
    <glyph glyph-name="quotedbl" unicode="&#x22;" horiz-adv-x="490" 
d="M211 700l-32 -258h-83l-33 258h148zM427 700l-32 -258h-83l-33 258h148z" />
    <glyph glyph-name="numbersign" unicode="#" horiz-adv-x="723" 
d="M550 434l-27 -160h119v-80h-133l-33 -194h-94l33 194h-160l-33 -194h-94l33 194h-100v80h114l27 160h-121v80h135l32 186h94l-32 -186h160l32 186h94l-32 -186h98v-80h-112zM456 434h-160l-27 -160h160z" />
    <glyph glyph-name="dollar" unicode="$" horiz-adv-x="606" 
d="M535 103.5q-31 -48.5 -85 -78.5t-122 -36v-86h-58v86q-95 6 -156.5 53t-83.5 126l117 55q13 -55 45 -87t78 -40v194l-30 7q-94 20 -145 70.5t-51 132.5q0 93 63 148.5t163 62.5v88h58v-88q82 -7 139 -46.5t81 -107.5l-114 -49q-29 89 -106 103v-173l25 -5
q102 -21 157.5 -75.5t55.5 -144.5q0 -61 -31 -109.5zM270 450v161q-41 -6 -62.5 -27.5t-21.5 -53.5q0 -63 84 -80zM391 126.5q23 23.5 23 59.5q0 34 -21.5 57.5t-64.5 33.5v-181q40 7 63 30.5z" />
    <glyph glyph-name="percent" unicode="%" horiz-adv-x="807" 
d="M121 429q-36 20 -56.5 54.5t-20.5 76.5q0 43 20.5 77.5t56.5 54.5t80 20q45 0 81 -20t56.5 -54.5t20.5 -77.5q0 -42 -20.5 -76.5t-56.5 -54.5t-81 -20q-44 0 -80 20zM605 700h105l-509 -700h-105zM251 505.5q19 20.5 19 54.5t-19 55.5t-49 21.5q-31 0 -50.5 -21.5
t-19.5 -55.5t19.5 -54.5t50.5 -20.5q30 0 49 20.5zM524.5 7.5q-35.5 19.5 -56 54t-20.5 77.5t20.5 77.5t56 54.5t80.5 20t81 -20t56.5 -54.5t20.5 -77.5q0 -42 -20.5 -76.5t-56.5 -54.5t-81 -20t-80.5 19.5zM655 84.5q19 20.5 19 54.5t-19 55.5t-49 21.5t-49.5 -21.5
t-19.5 -55.5q0 -33 19.5 -54t49.5 -21t49 20.5z" />
    <glyph glyph-name="ampersand" unicode="&#x26;" horiz-adv-x="759" 
d="M731 127q-19 -71 -63.5 -105t-109.5 -34q-39 0 -72.5 11t-65.5 37q-71 -48 -165 -48q-104 0 -159 52.5t-55 144.5q0 73 41.5 128.5t113.5 99.5q-15 56 -15 106q0 62 23 105.5t62.5 65.5t86.5 22q65 0 102.5 -33t37.5 -89q0 -53 -35.5 -98.5t-100.5 -91.5l9.5 -19
t13.5 -25q50 -95 81 -143q45 90 54 224l90 -44q-5 -69 -26 -138t-54 -124q33 -33 69 -33q23 0 39.5 16.5t26.5 59.5zM326 612.5q-14 -20.5 -14 -60.5q0 -33 13 -75q38 29 56.5 55.5t18.5 56.5q0 20 -9.5 32t-27.5 12q-23 0 -37 -20.5zM205.5 117.5q26.5 -29.5 73.5 -29.5
q36 0 73 20q-42 57 -98 160l-23 47q-27 -27 -39.5 -56t-12.5 -67q0 -45 26.5 -74.5z" />
    <glyph glyph-name="quotesingle" unicode="'" horiz-adv-x="274" 
d="M211 700l-32 -258h-83l-33 258h148z" />
    <glyph glyph-name="parenleft" unicode="(" horiz-adv-x="322" 
d="M320 770q-69 -109 -100.5 -220t-31.5 -239t31.5 -239.5t100.5 -219.5l-19 -18q-246 189 -246 477q0 286 246 477z" />
    <glyph glyph-name="parenright" unicode=")" horiz-adv-x="322" 
d="M2 -148q69 109 101 220t32 239t-32 239t-101 220l19 18q246 -189 246 -477q0 -286 -246 -477z" />
    <glyph glyph-name="asterisk" unicode="*" horiz-adv-x="421" 
d="M210 470l-60 -112l-83 60l89 92l-126 22l32 98l114 -55l-17 125h102l-17 -126l114 55l33 -97l-125 -22l87 -92l-82 -60z" />
    <glyph glyph-name="plus" unicode="+" horiz-adv-x="596" 
d="M528 272h-183v-183h-94v183h-183v94h183v183h94v-183h183v-94z" />
    <glyph glyph-name="comma" unicode="," horiz-adv-x="284" 
d="M221 157v-158q-32 -82 -96 -163l-62 55q37 29 62 53.5t46 55.5h-105v157h155z" />
    <glyph glyph-name="hyphen" unicode="-" horiz-adv-x="391" 
d="M83 350h225v-98h-225v98z" />
    <glyph glyph-name="period" unicode="." horiz-adv-x="281" 
d="M63 157h155v-157h-155v157z" />
    <glyph glyph-name="slash" unicode="/" horiz-adv-x="377" 
d="M263 777h110l-279 -933h-110z" />
    <glyph glyph-name="zero" unicode="0" horiz-adv-x="683" 
d="M128 81q-75 93 -75 269t75 269t213 93t213.5 -93t75.5 -269t-75.5 -269t-213.5 -93t-213 93zM438 173.5q33 59.5 33 176.5t-33 176.5t-96 59.5q-64 0 -97 -59.5t-33 -176.5t33 -176.5t97 -59.5q63 0 96 59.5z" />
    <glyph glyph-name="one" unicode="1" horiz-adv-x="439" 
d="M353 700v-700h-154v570q-46 -83 -165 -80v126q10 -1 30 -1q67 0 111 20t74 65h104z" />
    <glyph glyph-name="two" unicode="2" horiz-adv-x="626" 
d="M572 116v-116h-525v95q133 77 210.5 136.5t114.5 120t37 131.5q0 53 -26 82t-70 29q-51 0 -80.5 -37t-29.5 -116q0 -17 1 -27l-153 12q-2 94 33 158t96.5 96t139.5 32q112 0 179.5 -57.5t67.5 -163.5q0 -112 -88.5 -207.5t-258.5 -167.5h352z" />
    <glyph glyph-name="three" unicode="3" horiz-adv-x="623" 
d="M110 43q-66 55 -81 159l142 38q7 -67 38 -101t89 -34q53 0 84.5 30.5t31.5 82.5q0 46 -30 72.5t-83 26.5q-27 0 -42 -2.5t-35 -8.5v112q16 -5 30.5 -7t36.5 -2q46 0 75 27t29 71q0 42 -25 66t-67 24q-102 0 -118 -120l-135 35q17 93 85 146.5t178 53.5q104 0 169 -49.5
t65 -135.5q0 -57 -36.5 -98.5t-96.5 -57.5v-2q74 -13 114 -56.5t40 -111.5q0 -65 -35.5 -113t-96 -74t-134.5 -26q-126 0 -192 55z" />
    <glyph glyph-name="four" unicode="4" horiz-adv-x="710" 
d="M666 145h-127v-145h-149v145h-345v139l320 416h174v-442h127v-113zM390 258v308l-229 -308h229z" />
    <glyph glyph-name="five" unicode="5" horiz-adv-x="624" 
d="M467 465.5q49 -29.5 76.5 -85t27.5 -129.5q0 -82 -36 -141.5t-99.5 -90.5t-142.5 -31q-105 0 -170 47.5t-88 138.5l135 53q9 -60 39.5 -92.5t82.5 -32.5q57 0 89 39t32 110q0 68 -28 105.5t-80 37.5q-40 0 -72 -24.5t-49 -77.5l-122 40l55 368h420v-120h-325l-28 -182h2
q23 47 67.5 72t101.5 25q63 0 112 -29.5z" />
    <glyph glyph-name="six" unicode="6" horiz-adv-x="644" 
d="M538.5 396.5q56.5 -60.5 56.5 -163.5q0 -73 -34.5 -128.5t-95 -86t-138.5 -30.5q-134 0 -204 86.5t-70 254.5q0 119 36.5 205.5t103.5 132t157 45.5q92 0 151 -39.5t84 -116.5l-137 -54q-11 50 -35 73t-64 23q-62 0 -97.5 -62t-39.5 -186h2q25 53 69.5 80t103.5 27
q95 0 151.5 -60.5zM408.5 136.5q29.5 34.5 29.5 95.5t-27 95t-77 34q-41 0 -73 -25t-48 -79q12 -155 116 -155q50 0 79.5 34.5z" />
    <glyph glyph-name="seven" unicode="7" horiz-adv-x="592" 
d="M548 700v-80q-69 -96 -112 -185t-65 -194t-24 -241h-159q10 179 68 319t160 261h-371v120h503z" />
    <glyph glyph-name="eight" unicode="8" horiz-adv-x="631" 
d="M548 323.5q36 -47.5 36 -113.5q0 -70 -35 -120t-97 -76t-140 -26q-125 0 -195 51.5t-70 146.5q0 58 34.5 101.5t93.5 66.5q-51 25 -77 66t-26 96q0 60 31.5 104.5t87 68t127.5 23.5q112 0 176 -46t64 -128q0 -48 -30 -84t-82 -57q66 -26 102 -73.5zM244 587
q-28 -23 -28 -63q0 -64 85 -86l43 -11q73 34 73 98q0 39 -27 62t-72 23q-46 0 -74 -23zM398.5 122.5q32.5 28.5 32.5 77.5q0 82 -101 107l-51 14q-83 -42 -83 -123q0 -48 31.5 -76t85.5 -28q53 0 85.5 28.5z" />
    <glyph glyph-name="nine" unicode="9" horiz-adv-x="644" 
d="M521 625.5q70 -86.5 70 -254.5q0 -119 -36.5 -205.5t-103.5 -132t-157 -45.5q-92 0 -151 39.5t-84 116.5l137 54q10 -50 34.5 -73t64.5 -23q62 0 97.5 62t39.5 186h-2q-25 -53 -70 -80t-103 -27q-95 0 -151.5 60.5t-56.5 163.5q0 73 34.5 128.5t95 86t138.5 30.5
q134 0 204 -86.5zM383 364.5q32 25.5 48 79.5q-12 154 -116 154q-50 0 -79.5 -34.5t-29.5 -95.5t26.5 -95t76.5 -34q42 0 74 25.5z" />
    <glyph glyph-name="colon" unicode=":" horiz-adv-x="281" 
d="M63 157h155v-157h-155v157zM63 510h155v-157h-155v157z" />
    <glyph glyph-name="semicolon" unicode=";" horiz-adv-x="284" 
d="M221 157v-158q-32 -82 -96 -163l-62 55q37 29 62 53.5t46 55.5h-105v157h155zM64 510h155v-157h-155v157z" />
    <glyph glyph-name="less" unicode="&#x3c;" horiz-adv-x="565" 
d="M469 454l-299 -134l299 -134v-103l-403 188v98l403 188v-103z" />
    <glyph glyph-name="equal" unicode="=" horiz-adv-x="592" 
d="M78 477h436v-94h-436v94zM78 257h436v-94h-436v94z" />
    <glyph glyph-name="greater" unicode="&#x3e;" horiz-adv-x="549" 
d="M481 369v-98l-403 -188v103l298 134l-298 134v103z" />
    <glyph glyph-name="question" unicode="?" horiz-adv-x="600" 
d="M230 230q0 51 25 86t83 77q33 24 47.5 51t14.5 60q0 41 -26 65.5t-69 24.5q-57 0 -89 -38.5t-32 -120.5l-143 27q8 127 83.5 188.5t189.5 61.5q72 0 127 -24t85.5 -68t30.5 -102q0 -62 -32.5 -109t-102.5 -93q-30 -21 -43.5 -41t-13.5 -48v-18h-135v21zM221 151h155v-151
h-155v151z" />
    <glyph glyph-name="at" unicode="@" horiz-adv-x="916" 
d="M489.5 298.5q17.5 7.5 22.5 19.5v15q0 47 -48 47q-57 0 -77 -70l-97 33q19 58 66 91t119 33q74 0 115.5 -35.5t41.5 -102.5v-167q0 -46 38 -46q43 0 71.5 47.5t28.5 123.5q0 78 -38 140.5t-106 98t-155 35.5q-90 0 -164 -42.5t-117.5 -116.5t-43.5 -165t40 -162t112 -110
t164 -39q45 0 88.5 10.5t99.5 33.5l17 -68q-58 -24 -106.5 -33.5t-98.5 -9.5q-117 0 -206 47t-138 132.5t-49 197.5t52 201.5t144 140.5t206 51q110 0 195.5 -44t133 -121.5t47.5 -174.5q0 -78 -28 -134t-75 -85t-105 -29q-46 0 -77.5 20.5t-40.5 59.5h-1q-16 -38 -50.5 -59
t-76.5 -21q-57 0 -89.5 31.5t-32.5 82.5q0 45 23.5 71.5t58 38.5t84.5 21q35 5 52.5 12.5zM486 133.5q21 15.5 26 50.5v83h-1q-7 -12 -21 -20t-41 -16q-30 -9 -46 -23.5t-16 -40.5q0 -23 14.5 -36t38.5 -13q25 0 46 15.5z" />
    <glyph glyph-name="A" unicode="A" horiz-adv-x="640" 
d="M405 158h-209l-45 -158h-137l218 700h180l215 -700h-177zM379 252l-78 277l-79 -277h157z" />
    <glyph glyph-name="B" unicode="B" horiz-adv-x="643" 
d="M72 700h288q103 0 162.5 -45t59.5 -127q0 -52 -33.5 -93t-95.5 -55v-2q72 -12 113 -55t41 -113q0 -60 -30.5 -108t-89.5 -75t-140 -27h-275v700zM334 424q45 0 69 21t24 60t-24 59t-69 20h-97v-160h97zM328 116q55 0 85 26.5t30 76.5q0 51 -29 77.5t-83 26.5h-94v-207h91
z" />
    <glyph glyph-name="C" unicode="C" horiz-adv-x="671" 
d="M119.5 80.5q-78.5 92.5 -78.5 261.5q0 118 41 201.5t113.5 126t164.5 42.5q108 0 180.5 -57t92.5 -170l-146 -39q-22 136 -126 136q-67 0 -108 -61t-41 -179q0 -110 35.5 -166t105.5 -56q108 0 136 153l149 -34q-26 -127 -105.5 -189t-192.5 -62q-142 0 -220.5 92.5z" />
    <glyph glyph-name="D" unicode="D" horiz-adv-x="679" 
d="M558 612.5q81 -87.5 81 -262.5t-81 -262.5t-231 -87.5h-255v700h255q150 0 231 -87.5zM433.5 179q39.5 56 39.5 171t-39.5 171t-121.5 56h-75v-454h75q82 0 121.5 56z" />
    <glyph glyph-name="E" unicode="E" horiz-adv-x="563" 
d="M527 121v-121h-455v700h445v-121h-280v-160h191v-94h-191v-204h290z" />
    <glyph glyph-name="F" unicode="F" horiz-adv-x="559" 
d="M237 579v-181h195v-98h-195v-300h-165v700h453v-121h-288z" />
    <glyph glyph-name="G" unicode="G" horiz-adv-x="690" 
d="M631 345v-345h-117l-15 129h-1q-25 -68 -74 -104.5t-121 -36.5q-81 0 -140 42.5t-90.5 121.5t-31.5 187q0 114 40.5 198.5t112.5 129.5t165 45q106 0 177.5 -55.5t93.5 -158.5l-150 -38q-11 62 -41.5 92t-77.5 30q-72 0 -110.5 -64t-38.5 -179q0 -112 37 -169t108 -57
q51 0 85.5 32.5t40.5 100.5h-145v99h293z" />
    <glyph glyph-name="H" unicode="H" horiz-adv-x="693" 
d="M621 700v-700h-165v313h-219v-313h-165v700h165v-275h219v275h165z" />
    <glyph glyph-name="I" unicode="I" horiz-adv-x="308" 
d="M72 700h165v-700h-165v700z" />
    <glyph glyph-name="J" unicode="J" horiz-adv-x="582" 
d="M94 47q-59 59 -59 176v13l142 29v-41q0 -114 87 -114q85 0 85 112v478h165v-473q0 -116 -65 -177.5t-183 -61.5q-113 0 -172 59z" />
    <glyph glyph-name="K" unicode="K" horiz-adv-x="665" 
d="M321 333l-84 -102v-231h-165v700h165v-324l246 324h157l-200 -266l211 -434h-182z" />
    <glyph glyph-name="L" unicode="L" horiz-adv-x="556" 
d="M525 123v-123h-453v700h165v-577h288z" />
    <glyph glyph-name="M" unicode="M" horiz-adv-x="835" 
d="M763 700v-700h-154v511l-176 -511h-64l-177 511v-511h-120v700h210l146 -413l145 413h190z" />
    <glyph glyph-name="N" unicode="N" horiz-adv-x="711" 
d="M639 700v-700h-169l-272 512v-512h-126v700h197l244 -457v457h126z" />
    <glyph glyph-name="O" unicode="O" horiz-adv-x="720" 
d="M191 32q-72 44 -111 126t-39 192t39 192t111 126t169 44q98 0 170 -44t110.5 -126t38.5 -192t-38.5 -192t-110.5 -126t-170 -44q-97 0 -169 44zM469 181q38 59 38 169t-38 169.5t-109 59.5t-109.5 -59.5t-38.5 -169.5t38.5 -169t109.5 -59t109 59z" />
    <glyph glyph-name="P" unicode="P" horiz-adv-x="643" 
d="M549.5 647q65.5 -53 65.5 -152t-65.5 -152t-186.5 -53h-126v-290h-165v700h291q121 0 186.5 -53zM424.5 418.5q27.5 23.5 27.5 68.5t-27.5 68.5t-80.5 23.5h-107v-184h107q53 0 80.5 23.5z" />
    <glyph glyph-name="Q" unicode="Q" horiz-adv-x="720" 
d="M710 -23q-19 -50 -60 -76.5t-87 -26.5q-57 0 -93 29.5t-55 88.5q-24 -4 -55 -4q-97 0 -169 44t-111 126t-39 192t39 192t111 126t169 44q98 0 170 -44t110.5 -126t38.5 -192q0 -114 -42 -198t-118 -126q11 -26 24 -36t31 -10q41 0 64 57zM250.5 519.5
q-38.5 -59.5 -38.5 -169.5q0 -114 41 -173q-1 7 -1 20q0 49 28 78.5t75 29.5t77 -27t46 -81q29 58 29 153q0 110 -38 169.5t-109 59.5t-109.5 -59.5zM360 122q15 0 28 3q-11 53 -26.5 74t-40.5 21q-22 0 -34.5 -14.5t-12.5 -36.5q0 -6 2 -18q35 -29 84 -29z" />
    <glyph glyph-name="R" unicode="R" 
d="M598.5 72.5q8.5 -34.5 36.5 -63.5v-9h-183q-13 28 -18.5 59.5t-5.5 73.5l1 34l2 46q2 51 -17.5 71.5t-68.5 20.5h-108v-305h-165v700h303q116 0 180 -46t64 -135q0 -68 -43.5 -111t-117.5 -55v-2q66 -9 96 -46.5t32 -105.5l2 -41q2 -51 10.5 -85.5zM429 428.5
q26 23.5 26 67.5q0 41 -26 62t-76 21h-116v-174h116q50 0 76 23.5z" />
    <glyph glyph-name="S" unicode="S" horiz-adv-x="619" 
d="M125.5 34.5q-70.5 46.5 -95.5 128.5l114 60q18 -61 59.5 -93t101.5 -32q51 0 81.5 24t30.5 64q0 35 -22.5 56.5t-69.5 31.5l-80 17q-95 21 -146.5 73.5t-51.5 135.5q0 66 33 114t91 73t132 25q97 0 163.5 -40t94.5 -115l-116 -49q-37 99 -139 99q-48 0 -76.5 -21
t-28.5 -56q0 -31 21.5 -49.5t63.5 -26.5l79 -17q215 -49 215 -224q0 -65 -35.5 -116.5t-98 -80t-141.5 -28.5q-109 0 -179.5 46.5z" />
    <glyph glyph-name="T" unicode="T" horiz-adv-x="587" 
d="M556 573h-180v-573h-165v573h-180v127h525v-127z" />
    <glyph glyph-name="U" unicode="U" horiz-adv-x="662" 
d="M136.5 56q-68.5 68 -68.5 203v441h165v-460q0 -61 28 -92.5t82 -31.5q53 0 81 31.5t28 92.5v460h142v-445q0 -132 -69 -199.5t-189 -67.5q-131 0 -199.5 68z" />
    <glyph glyph-name="V" unicode="V" horiz-adv-x="668" 
d="M655 700l-230 -700h-186l-225 700h183l158 -519l156 519h144z" />
    <glyph glyph-name="W" unicode="W" horiz-adv-x="916" 
d="M889 700l-159 -700h-167l-108 439l-112 -439h-165l-151 700h165l96 -497l127 497h117l122 -498l105 498h130z" />
    <glyph glyph-name="X" unicode="X" horiz-adv-x="650" 
d="M451 0l-141 251l-142 -251h-156l214 360l-191 340h182l127 -225l129 225h144l-197 -325l217 -375h-186z" />
    <glyph glyph-name="Y" unicode="Y" horiz-adv-x="628" 
d="M396 269v-269h-165v265l-225 435h182l147 -293l151 293h136z" />
    <glyph glyph-name="Z" unicode="Z" horiz-adv-x="580" 
d="M535 598l-296 -476h296v-122h-498v106l296 473h-290v121h492v-102z" />
    <glyph glyph-name="bracketleft" unicode="[" horiz-adv-x="335" 
d="M308 679h-104v-736h104v-99h-229v934h229v-99z" />
    <glyph glyph-name="backslash" unicode="\" horiz-adv-x="377" 
d="M283 -156l-279 933h110l279 -933h-110z" />
    <glyph glyph-name="bracketright" unicode="]" horiz-adv-x="335" 
d="M27 -57h104v736h-104v99h230v-934h-230v99z" />
    <glyph glyph-name="asciicircum" unicode="^" horiz-adv-x="618" 
d="M453 355l-144 259l-144 -259h-111l198 345h114l198 -345h-111z" />
    <glyph glyph-name="underscore" unicode="_" horiz-adv-x="371" 
d="M-2 -78h375v-71h-375v71z" />
    <glyph glyph-name="grave" unicode="`" horiz-adv-x="296" 
d="M202 720l31 -147h-64l-106 147h139z" />
    <glyph glyph-name="a" unicode="a" horiz-adv-x="572" 
d="M556 18q-46 -30 -103 -30q-49 0 -78.5 25t-36.5 74v2q-21 -50 -60.5 -75.5t-92.5 -25.5q-72 0 -113 39t-41 102q0 56 30 90t74 50t104 27q41 7 61 15.5t28 23.5v20q0 30 -15.5 45.5t-42.5 15.5q-34 0 -59 -23t-39 -66l-119 41q24 71 84 112.5t147 41.5q93 0 143 -43.5
t50 -127.5v-225q0 -34 23 -34q15 0 34 12zM295.5 103.5q24.5 21.5 32.5 65.5v105h-1q-9 -16 -26 -27t-47 -19q-37 -12 -57.5 -31t-20.5 -52q0 -30 17.5 -46.5t46.5 -16.5q31 0 55.5 21.5z" />
    <glyph glyph-name="b" unicode="b" horiz-adv-x="590" 
d="M505 450.5q48 -71.5 48 -195.5q0 -123 -52.5 -195t-144.5 -72q-53 0 -91.5 26t-56.5 78l-17 -92h-129v740h153v-328h2q17 54 58 82t93 28q89 0 137 -71.5zM373.5 140.5q22.5 38.5 22.5 114.5q0 75 -22.5 114t-66.5 39q-41 0 -65 -35t-27 -99v-43q4 -64 28 -96.5t64 -32.5
q44 0 66.5 38.5z" />
    <glyph glyph-name="c" unicode="c" horiz-adv-x="539" 
d="M98.5 59.5q-61.5 71.5 -61.5 195.5q0 81 32 141.5t89 93t130 32.5q85 0 141.5 -41t74.5 -122l-129 -36q-15 87 -82 87q-47 0 -74.5 -39.5t-27.5 -115.5q0 -75 24 -115t73 -40q70 0 93 101l127 -39q-22 -84 -82.5 -129t-151.5 -45q-114 0 -175.5 71.5z" />
    <glyph glyph-name="d" unicode="d" horiz-adv-x="586" 
d="M527 740v-740h-147v102h-2q-17 -57 -55.5 -85.5t-90.5 -28.5q-92 0 -143.5 72t-51.5 195q0 80 23.5 140.5t68 93.5t103.5 33q51 0 87 -27.5t53 -82.5h2v328h153zM374 274q-3 65 -26 99.5t-63 34.5q-43 0 -67 -39.5t-24 -113.5q0 -75 24 -114t67 -39q40 0 62.5 33.5
t26.5 99.5v39z" />
    <glyph glyph-name="e" unicode="e" horiz-adv-x="543" 
d="M505 133q-25 -68 -82 -106.5t-144 -38.5q-116 0 -179 71.5t-63 195.5q0 79 31 139.5t87.5 94t129.5 33.5q106 0 162.5 -63t56.5 -167q0 -25 -3 -51h-307q1 -70 25.5 -108.5t72.5 -38.5q72 0 101 88zM223.5 390.5q-23.5 -28.5 -28.5 -80.5h171q0 109 -79 109
q-40 0 -63.5 -28.5z" />
    <glyph glyph-name="f" unicode="f" horiz-adv-x="445" 
d="M284 510h125v-96h-125v-414h-153v414h-98v96h98v55q0 94 50.5 140.5t134.5 46.5q63 0 117 -33l-30 -102q-31 20 -60 20q-28 0 -43.5 -18.5t-15.5 -53.5v-55z" />
    <glyph glyph-name="g" unicode="g" horiz-adv-x="549" 
d="M501.5 68q47.5 -36 47.5 -104q0 -84 -79.5 -130t-211.5 -46q-127 0 -183.5 27.5t-56.5 80.5q0 31 22 52t59 30v1q-34 11 -52.5 35t-18.5 58q0 84 106 118q-42 23 -64.5 61.5t-22.5 90.5q0 85 58.5 132.5t162.5 47.5q70 0 121 -23q-2 9 -2 26q0 46 27.5 75.5t73.5 29.5
q37 0 70 -23l-33 -92q-15 11 -26 15.5t-25 4.5q-21 0 -35 -15.5t-12 -43.5q60 -48 60 -134q0 -85 -57.5 -132.5t-161.5 -47.5q-59 0 -104 15q-19 -15 -19 -35t12.5 -29t40.5 -9h170q86 0 133.5 -36zM209.5 408.5q-20.5 -23.5 -20.5 -66.5t20.5 -67t57.5 -24t58 24t21 67
t-21 66.5t-58 23.5t-57.5 -23.5zM373 -124q39 17 39 49q0 45 -68 45h-183q-15 0 -22 1q-23 -19 -23 -46q0 -33 34.5 -49.5t107.5 -16.5q76 0 115 17z" />
    <glyph glyph-name="h" unicode="h" horiz-adv-x="586" 
d="M487 476.5q40 -45.5 40 -130.5v-346h-154v320q0 37 -16.5 57t-45.5 20q-43 0 -68 -39t-28 -121v-237h-153v740h153v-345h2q18 58 58 92.5t102 34.5q70 0 110 -45.5z" />
    <glyph glyph-name="i" unicode="i" horiz-adv-x="275" 
d="M58 724h161v-143h-161v143zM62 510h153v-510h-153v510z" />
    <glyph glyph-name="j" unicode="j" horiz-adv-x="275" 
d="M58 724h161v-143h-161v143zM-68 -180l34 94q22 -15 45 -15q51 0 51 63v548h153v-543q0 -94 -48.5 -136.5t-120.5 -42.5q-68 0 -114 32z" />
    <glyph glyph-name="k" unicode="k" horiz-adv-x="555" 
d="M376 319l163 -319h-161l-108 220l-55 -63v-157h-153v740h153v-428l169 198h156z" />
    <glyph glyph-name="l" unicode="l" horiz-adv-x="275" 
d="M62 740h153v-740h-153v740z" />
    <glyph glyph-name="m" unicode="m" horiz-adv-x="841" 
d="M743 481q39 -41 39 -124v-357h-153v330q0 35 -14.5 53t-38.5 18q-72 0 -77 -130v-271h-154v330q0 35 -14 53t-38 18q-73 0 -78 -137v-264h-153v510h148v-118h2q17 63 55 96.5t91 33.5q56 0 91 -32.5t45 -94.5h1q18 63 56.5 95t90.5 32q62 0 101 -41z" />
    <glyph glyph-name="n" unicode="n" horiz-adv-x="586" 
d="M487 476.5q40 -45.5 40 -130.5v-346h-154v326q0 37 -16.5 57t-46.5 20q-42 0 -67.5 -38.5t-27.5 -118.5v-246h-153v510h148v-120h2q19 61 61 96.5t104 35.5q70 0 110 -45.5z" />
    <glyph glyph-name="o" unicode="o" horiz-adv-x="574" 
d="M104 59q-67 71 -67 196q0 124 67 195.5t183 71.5t183 -71.5t67 -195.5q0 -125 -67 -196t-183 -71t-183 71zM357 142q25 39 25 113q0 73 -25 112.5t-70 39.5q-46 0 -71 -39.5t-25 -112.5q0 -74 25 -113t71 -39q45 0 70 39z" />
    <glyph glyph-name="p" unicode="p" horiz-adv-x="589" 
d="M502.5 450.5q49.5 -71.5 49.5 -195.5q0 -123 -51.5 -195t-141.5 -72q-51 0 -88 27.5t-54 82.5h-2v-298h-153v710h147v-104h1q18 58 58.5 87t93.5 29q91 0 140.5 -71.5zM372 141q23 39 23 114t-23 114t-66 39q-40 0 -64 -34t-27 -100v-39q3 -64 26.5 -98.5t64.5 -34.5
q43 0 66 39z" />
    <glyph glyph-name="q" unicode="q" horiz-adv-x="589" 
d="M527 510v-710h-153v298h-2q-18 -54 -56.5 -82t-89.5 -28q-89 0 -139 72t-50 195q0 80 25.5 140.5t71.5 93.5t107 33q51 0 87 -26t53 -78l17 92h129zM348 136q23 34 26 99v43q-9 130 -89 130q-43 0 -67 -39.5t-24 -113.5q0 -75 24 -114t67 -39q40 0 63 34z" />
    <glyph glyph-name="r" unicode="r" horiz-adv-x="461" 
d="M444 487l-58 -124q-20 17 -36 24.5t-34 7.5q-97 0 -101 -185v-210h-153v510h147v-136h2q16 80 52 114t90 34q47 0 91 -35z" />
    <glyph glyph-name="s" unicode="s" horiz-adv-x="496" 
d="M112 19.5q-55 31.5 -80 88.5l86 57q36 -88 127 -88q38 0 59.5 15.5t21.5 43.5q0 23 -15.5 36.5t-49.5 20.5l-65 12q-75 14 -112.5 52t-37.5 103q0 50 27 87t72.5 56t100.5 19q64 0 117 -26.5t78 -73.5l-84 -52q-35 66 -113 66q-34 0 -52.5 -14.5t-18.5 -36.5
q0 -20 14 -31t45 -16l63 -12q166 -30 166 -164q0 -81 -60.5 -127.5t-155.5 -46.5q-78 0 -133 31.5z" />
    <glyph glyph-name="t" unicode="t" horiz-adv-x="444" 
d="M420 25q-66 -37 -134 -37q-157 0 -157 161v265h-96v96h96v143h153v-143h119v-96h-119v-259q0 -57 48 -57q17 0 32 5t34 16z" />
    <glyph glyph-name="u" unicode="u" horiz-adv-x="586" 
d="M525 510v-510h-149v120h-1q-20 -61 -62 -96.5t-104 -35.5q-70 0 -110 45.5t-40 130.5v346h154v-326q0 -37 16.5 -57t46.5 -20q43 0 68.5 38t26.5 118v247h154z" />
    <glyph glyph-name="v" unicode="v" horiz-adv-x="552" 
d="M532 510l-171 -510h-169l-172 510h161l110 -358l115 358h126z" />
    <glyph glyph-name="w" unicode="w" horiz-adv-x="756" 
d="M734 510l-124 -510h-145l-86 301l-89 -301h-144l-124 510h155l73 -328l98 328h97l96 -336l77 336h116z" />
    <glyph glyph-name="x" unicode="x" horiz-adv-x="521" 
d="M342 0l-96 162l-96 -162h-135l160 260l-144 250h158l88 -152l90 152h125l-144 -239l158 -271h-164z" />
    <glyph glyph-name="y" unicode="y" horiz-adv-x="570" 
d="M551 510l-214 -565q-60 -157 -202 -157q-41 0 -73 13.5t-50 37.5l50 92q31 -39 73 -39q31 0 51 21t39 67l-199 530h165l113 -325l117 325h130z" />
    <glyph glyph-name="z" unicode="z" horiz-adv-x="480" 
d="M437 100v-100h-399v93l221 319h-213v98h389v-83l-225 -327h227z" />
    <glyph glyph-name="braceleft" unicode="{" horiz-adv-x="370" 
d="M370 756l-22 -72q-34 8 -54 8q-33 0 -51 -18.5t-18 -49.5q0 -6 2 -20l21 -169q3 -16 3 -30q0 -83 -86 -94v-2q45 -5 65.5 -30.5t20.5 -64.5q0 -15 -3 -30l-21 -168q-1 -6 -1 -17q0 -33 17.5 -52.5t50.5 -19.5q26 0 54 8l22 -73q-57 -23 -114 -23q-77 0 -116 37.5
t-39 105.5q0 28 6 59l28 149q3 15 3 27q0 49 -51 49q-18 0 -41 -5v98q22 -6 41 -6q26 0 38.5 11.5t12.5 36.5q0 13 -3 28l-28 148q-6 32 -6 58q0 70 39.5 108t115.5 38q57 0 114 -25z" />
    <glyph glyph-name="bar" unicode="|" horiz-adv-x="291" 
d="M93 777h105v-933h-105v933z" />
    <glyph glyph-name="braceright" unicode="}" horiz-adv-x="370" 
d="M-1 -136l23 72q30 -9 54 -9q32 0 50.5 18.5t18.5 49.5q0 6 -2 20l-22 169q-2 20 -2 29q0 85 86 95v2q-86 11 -86 97q0 9 2 29l22 168q1 6 1 17q0 33 -17.5 52.5t-50.5 19.5q-28 0 -54 -9l-23 73q56 24 114 24q77 0 116.5 -38t39.5 -107q0 -28 -6 -58l-28 -148
q-3 -15 -3 -28q0 -48 50 -48q20 0 42 5v-98q-27 6 -42 6q-50 0 -50 -48q0 -13 3 -28l28 -149q6 -30 6 -57q0 -69 -40 -107.5t-116 -38.5q-55 0 -114 25z" />
    <glyph glyph-name="asciitilde" unicode="~" horiz-adv-x="730" 
d="M299 318q-24 21 -40 30t-33 9q-32 0 -48.5 -32.5t-20.5 -102.5l-89 25q6 96 49 148t117 52q39 0 73 -14.5t71 -46.5l52 -47q24 -21 40.5 -30t34.5 -9q31 0 47 32.5t21 102.5l89 -25q-6 -96 -49 -148t-117 -52q-40 0 -73.5 14.5t-70.5 47.5z" />
    <glyph glyph-name="uni00A0" unicode="&#xa0;" horiz-adv-x="219" 
 />
    <glyph glyph-name="exclamdown" unicode="&#xa1;" horiz-adv-x="304" 
d="M229 403h-154v157h154v-157zM229 77v-217h-154v217l63 288h24z" />
    <glyph glyph-name="cent" unicode="&#xa2;" horiz-adv-x="536" 
d="M436 43q-50 -44 -125 -53v-87h-54v85q-106 6 -163 77t-57 190q0 75 28 133t78 92t114 41v86h54v-86q75 -6 124 -46.5t67 -115.5l-120 -36q-13 78 -71 91v-316q59 17 77 103l118 -39q-20 -75 -70 -119zM257 97v315q-39 -11 -60 -50.5t-21 -106.5q0 -139 81 -158z" />
    <glyph glyph-name="sterling" unicode="&#xa3;" horiz-adv-x="666" 
d="M621 187q-8 -107 -61.5 -153t-129.5 -46q-47 0 -84.5 16t-75.5 44q-24 -29 -56 -44.5t-71 -15.5q-53 0 -83 26.5t-30 73.5q0 48 36 78.5t90 30.5q30 0 64 -13q-3 12 -19 55q-22 44 -32 68h-110v56h90q-15 53 -15 109q0 71 29.5 125.5t85 84.5t131.5 30q108 0 167.5 -60
t64.5 -167l-137 -26q-1 68 -25.5 101.5t-65.5 33.5q-43 0 -67.5 -32t-24.5 -89q0 -48 10 -110h214v-56h-206q8 -53 8 -102q0 -36 -7 -64q33 -16 59 -25t49 -9q39 0 59.5 24.5t26.5 77.5zM190 51.5q20 12.5 29 36.5q-40 30 -73 30q-22 0 -35 -11t-13 -29t12.5 -28.5
t34.5 -10.5q25 0 45 12.5z" />
    <glyph glyph-name="currency" unicode="&#xa4;" horiz-adv-x="560" 
d="M438 236l70 -69l-42 -41l-71 71q-51 -35 -115 -35t-115 35l-71 -71l-42 41l70 69q-40 51 -40 115t40 115l-70 69l42 41l71 -71q51 35 115 35t115 -35l71 71l42 -41l-70 -69q40 -51 40 -115t-40 -115zM350.5 278.5q28.5 29.5 28.5 72.5t-28.5 72.5t-70.5 29.5t-70.5 -29.5
t-28.5 -72.5t28.5 -72.5t70.5 -29.5t70.5 29.5z" />
    <glyph glyph-name="yen" unicode="&#xa5;" horiz-adv-x="607" 
d="M402 307h137v-52h-159v-79h159v-52h-159v-124h-153v124h-161v52h161v79h-161v52h137l-192 393h172l138 -298l141 298h134z" />
    <glyph glyph-name="brokenbar" unicode="&#xa6;" horiz-adv-x="291" 
d="M93 777h105v-402h-105v402zM93 246h105v-402h-105v402z" />
    <glyph glyph-name="section" unicode="&#xa7;" horiz-adv-x="601" 
d="M547 -5q0 -60 -32.5 -107t-89.5 -73.5t-130 -26.5q-100 0 -165 43t-87 118l105 54q16 -55 54.5 -85t93.5 -30q47 0 75.5 22.5t28.5 59.5q0 62 -85 78l-115 23q-76 15 -117.5 55t-41.5 106q0 47 26.5 83.5t73.5 57.5q-82 50 -82 147q0 91 65 141.5t167 50.5
q90 0 151.5 -37t87.5 -107l-107 -45q-33 93 -132 93q-43 0 -68 -19.5t-25 -51.5q0 -28 19.5 -44.5t59.5 -24.5l117 -24q85 -17 127 -56.5t42 -104.5q0 -45 -26 -82t-72 -59q82 -51 82 -155zM351 192q11 -2 31 -8q37 25 37 65q0 26 -18 42.5t-56 24.5l-112 23q-7 1 -19 5
q-38 -24 -38 -63q0 -27 16.5 -43.5t52.5 -23.5z" />
    <glyph glyph-name="dieresis" unicode="&#xa8;" horiz-adv-x="448" 
d="M63 709h125v-124h-125v124zM259 709h126v-124h-126v124z" />
    <glyph glyph-name="copyright" unicode="&#xa9;" horiz-adv-x="848" 
d="M235.5 24.5q-86.5 50.5 -137 137t-50.5 188.5t50.5 188.5t137 137t188.5 50.5t188.5 -50.5t137 -137t50.5 -188.5t-50.5 -188.5t-137 -137t-188.5 -50.5t-188.5 50.5zM584.5 72.5q73.5 43.5 116.5 117.5t43 161q0 86 -43 159.5t-117 117t-160 43.5t-160 -43.5t-117 -117
t-43 -159.5q0 -87 43 -161t116.5 -117.5t160.5 -43.5t160.5 43.5zM545.5 171q-50.5 -38 -124.5 -38q-89 0 -139 55t-50 156q0 105 56 164t147 59q69 0 116 -35.5t59 -105.5l-111 -27q-11 70 -63 70q-35 0 -54.5 -32.5t-19.5 -92.5q0 -110 70 -110q53 0 68 79l113 -25
q-17 -79 -67.5 -117z" />
    <glyph glyph-name="ordfeminine" unicode="&#xaa;" horiz-adv-x="419" 
d="M399 357q-33 -21 -69 -21q-37 0 -58.5 18t-23.5 52h-1q-15 -35 -44 -53t-66 -18q-50 0 -78.5 27t-28.5 71q0 58 41 83t105 35q30 5 42 10t19 17v12q0 42 -41 42q-24 0 -40.5 -15.5t-24.5 -44.5l-84 29q17 50 58 78.5t101 28.5q66 0 101 -30.5t35 -89.5v-154q0 -23 17 -23
q9 0 23 8zM215.5 416.5q16.5 13.5 21.5 44.5v72h-1q-5 -10 -15 -16.5t-32 -14.5q-31 -10 -44 -23t-13 -33t12.5 -31.5t33.5 -11.5t37.5 13.5z" />
    <glyph glyph-name="guillemotleft" unicode="&#xab;" horiz-adv-x="595" 
d="M298 267v18l235 218l18 -13l-122 -214l122 -214l-18 -13zM44 267v18l235 218l18 -13l-122 -214l122 -214l-18 -13z" />
    <glyph glyph-name="logicalnot" unicode="&#xac;" horiz-adv-x="598" 
d="M426 358h-358v94h452v-265h-94v171z" />
    <glyph glyph-name="uni00AD" unicode="&#xad;" horiz-adv-x="391" 
d="M83 350h225v-98h-225v98z" />
    <glyph glyph-name="registered" unicode="&#xae;" horiz-adv-x="614" 
d="M434 678q58 -34 92 -92.5t34 -126.5q0 -69 -33.5 -127t-91.5 -92t-128 -34q-69 0 -127 34t-92 92t-34 127q0 68 34 126.5t92 92.5t127 34t127 -34zM411 281.5q47 27.5 74.5 75t27.5 104.5q0 55 -27.5 101.5t-74.5 74t-103 27.5t-103.5 -27.5t-75 -74t-27.5 -101.5
q0 -57 27.5 -104.5t74.5 -75t104 -27.5q56 0 103 27.5zM413 377q1 -17 4.5 -30t13.5 -24v-4h-82q-8 24 -8 59v22q0 18 -7.5 25.5t-26.5 7.5h-31v-114h-73v280h123q47 0 73 -18.5t26 -54.5q0 -26 -16.5 -43.5t-45.5 -22.5v-1q25 -6 36 -21t13 -44zM342.5 490.5
q9.5 8.5 9.5 23.5q0 16 -9 24.5t-26 8.5h-41v-65h41q16 0 25.5 8.5z" />
    <glyph glyph-name="macron" unicode="&#xaf;" horiz-adv-x="416" 
d="M63 687h290v-79h-290v79z" />
    <glyph glyph-name="degree" unicode="&#xb0;" horiz-adv-x="408" 
d="M128.5 434q-34.5 20 -54.5 54t-20 74q0 41 20 75.5t54.5 54.5t75.5 20t75.5 -20t54.5 -54.5t20 -75.5q0 -40 -20 -74t-54.5 -54t-75.5 -20t-75.5 20zM260 503q23 24 23 59q0 36 -23 60t-56 24t-56 -24t-23 -60q0 -35 23 -59t56 -24t56 24z" />
    <glyph glyph-name="plusminus" unicode="&#xb1;" horiz-adv-x="584" 
d="M506 427v-92h-167v-109h-94v109h-167v92h167v129h94v-129h167zM78 159h428v-88h-428v88z" />
    <glyph glyph-name="uni00B2" unicode="&#xb2;" horiz-adv-x="341" 
d="M306 517v-67h-272v57q68 39 104.5 64.5t57 53.5t20.5 63q0 24 -11.5 37.5t-31.5 13.5q-29 0 -42 -23t-11 -61l-84 7q-1 69 38.5 106.5t102.5 37.5q59 0 93.5 -31t34.5 -83q0 -53 -44 -99.5t-121 -75.5h166z" />
    <glyph glyph-name="uni00B3" unicode="&#xb3;" horiz-adv-x="331" 
d="M24 545l82 23q6 -57 56 -57q22 0 35.5 13t13.5 35q0 23 -14 34t-36 11q-17 0 -34 -6v65q17 -5 30 -5q20 0 33 10.5t13 31.5q0 20 -10.5 31t-30.5 11q-46 0 -52 -55l-76 20q10 47 45 73t88 26q55 0 89 -25.5t34 -69.5q0 -27 -16.5 -47.5t-44.5 -28.5v-1q34 -7 53 -29
t19 -53q0 -49 -39 -78.5t-99 -29.5q-123 0 -139 101z" />
    <glyph glyph-name="acute" unicode="&#xb4;" horiz-adv-x="296" 
d="M127 573h-64l32 147h138z" />
    <glyph glyph-name="uni00B5" unicode="&#xb5;" horiz-adv-x="589" 
d="M527 510v-510h-148v120h-2q-20 -61 -60.5 -96t-101.5 -36v-188h-153v710h153v-326q0 -37 16.5 -57t46.5 -20q43 0 68 38t27 118v247h154z" />
    <glyph glyph-name="paragraph" unicode="&#xb6;" horiz-adv-x="595" 
d="M517 -100h-76l-1 732h-79v-732h-76v440h-5q-105 0 -161.5 45t-56.5 130q0 89 56 137t162 48h237v-800z" />
    <glyph glyph-name="periodcentered" unicode="&#xb7;" horiz-adv-x="281" 
d="M63 429h155v-157h-155v157z" />
    <glyph glyph-name="cedilla" unicode="&#xb8;" horiz-adv-x="400" 
d="M239 -62q44 0 71 -22t27 -54q0 -45 -40 -68t-102 -23q-76 0 -132 37l22 54q49 -35 109 -35q24 0 38.5 9.5t14.5 25.5q0 13 -12 21t-32 8q-29 0 -64 -16l-29 36l75 103l51 -13l-53 -72q30 9 56 9z" />
    <glyph glyph-name="uni00B9" unicode="&#xb9;" horiz-adv-x="245" 
d="M195 800v-350h-88v272q-25 -38 -82 -37v73l19 -1q33 0 55 10.5t36 32.5h60z" />
    <glyph glyph-name="ordmasculine" unicode="&#xba;" horiz-adv-x="414" 
d="M78 384.5q-47 49.5 -47 137.5q0 87 47 136.5t129 49.5t129 -49.5t47 -136.5q0 -88 -47 -137.5t-129 -49.5t-129 49.5zM255 444q17 27 17 78t-17 78t-48 27t-48 -27.5t-17 -77.5q0 -51 16.5 -78t48.5 -27q31 0 48 27z" />
    <glyph glyph-name="guillemotright" unicode="&#xbb;" horiz-adv-x="595" 
d="M297 285v-18l-236 -218l-17 13l122 214l-122 214l17 13zM551 285v-18l-236 -218l-17 13l122 214l-122 214l17 13z" />
    <glyph glyph-name="onequarter" unicode="&#xbc;" horiz-adv-x="544" 
d="M405 516v-66h-265v66h94v206q-25 -38 -82 -37v73l19 -1q33 0 55 10.5t36 32.5h59v-284h84zM32 379h480v-58h-480v58zM430 -32h-60v-68h-86v68h-169v79l153 203h102v-217h60v-65zM284 33v140l-101 -140h101z" />
    <glyph glyph-name="onehalf" unicode="&#xbd;" horiz-adv-x="544" 
d="M405 516v-66h-265v66h94v206q-25 -38 -82 -37v73l19 -1q33 0 55 10.5t36 32.5h59v-284h84zM32 379h480v-58h-480v58zM409 -33v-67h-272v57q68 38 105 63.5t57 54t20 63.5q0 24 -11.5 37.5t-31.5 13.5q-29 0 -41.5 -23t-10.5 -61l-85 7q-1 69 38.5 106.5t102.5 37.5
q59 0 93.5 -31t34.5 -83q0 -53 -44 -99.5t-121 -75.5h166z" />
    <glyph glyph-name="threequarters" unicode="&#xbe;" horiz-adv-x="544" 
d="M134 545l82 23q6 -57 56 -57q22 0 35.5 13t13.5 35q0 23 -14 34t-36 11q-16 0 -34 -6v65q17 -5 30 -5q20 0 33 10.5t13 31.5q0 20 -10.5 31t-30.5 11q-46 0 -52 -55l-76 20q10 47 45.5 73t88.5 26q54 0 88 -25.5t34 -69.5q0 -27 -16.5 -47.5t-44.5 -28.5v-1q34 -7 53 -29
t19 -53q0 -49 -39 -78.5t-99 -29.5q-123 0 -139 101zM32 379h480v-58h-480v58zM430 -32h-60v-68h-86v68h-169v79l153 203h102v-217h60v-65zM284 33v140l-101 -140h101z" />
    <glyph glyph-name="questiondown" unicode="&#xbf;" horiz-adv-x="600" 
d="M380 359h-155v151h155v-151zM370 280q0 -51 -25 -86t-83 -77q-33 -24 -47.5 -51t-14.5 -60q0 -41 26 -65.5t69 -24.5q121 0 121 158l144 -26q-8 -127 -84 -188.5t-189 -61.5q-72 0 -127.5 24t-86 68t-30.5 101q0 61 32.5 108.5t102.5 94.5q30 20 43.5 40t13.5 48v18h135
v-20z" />
    <glyph glyph-name="Agrave" unicode="&#xc0;" horiz-adv-x="640" 
d="M405 158h-209l-45 -158h-137l218 700h180l215 -700h-177zM379 252l-78 277l-79 -277h157zM322 910l31 -147h-64l-106 147h139z" />
    <glyph glyph-name="Aacute" unicode="&#xc1;" horiz-adv-x="640" 
d="M405 158h-209l-45 -158h-137l218 700h180l215 -700h-177zM379 252l-78 277l-79 -277h157zM350 763h-64l32 147h138z" />
    <glyph glyph-name="Acircumflex" unicode="&#xc2;" horiz-adv-x="640" 
d="M405 158h-209l-45 -158h-137l218 700h180l215 -700h-177zM379 252l-78 277l-79 -277h157zM375 770l-55 59l-56 -59h-82l88 133h99l88 -133h-82z" />
    <glyph glyph-name="Atilde" unicode="&#xc3;" horiz-adv-x="640" 
d="M405 158h-209l-45 -158h-137l218 700h180l215 -700h-177zM379 252l-78 277l-79 -277h157zM153 787q5 59 29.5 91t69.5 32q25 0 45 -8.5t42 -28.5l23 -21q11 -10 18 -13.5t15 -3.5q16 0 23.5 16.5t9.5 58.5l61 -24q-4 -58 -29 -90.5t-70 -32.5q-24 0 -44.5 9t-41.5 29
l-23 21q-12 10 -19 13.5t-15 3.5q-16 0 -23.5 -17t-8.5 -59z" />
    <glyph glyph-name="Adieresis" unicode="&#xc4;" horiz-adv-x="640" 
d="M405 158h-209l-45 -158h-137l218 700h180l215 -700h-177zM379 252l-78 277l-79 -277h157zM159 899h125v-124h-125v124zM355 899h126v-124h-126v124z" />
    <glyph glyph-name="Aring" unicode="&#xc5;" horiz-adv-x="640" 
d="M405 158h-209l-45 -158h-137l218 700h180l215 -700h-177zM379 252l-78 277l-79 -277h157zM252.5 770q-27.5 26 -27.5 67t27.5 66.5t69.5 25.5q40 0 67 -26t27 -66q0 -42 -26.5 -67.5t-67.5 -25.5q-42 0 -69.5 26zM349.5 806.5q10.5 11.5 10.5 30.5q0 18 -10.5 29.5
t-27.5 11.5q-18 0 -29.5 -11.5t-11.5 -29.5q0 -19 11.5 -30.5t29.5 -11.5q17 0 27.5 11.5z" />
    <glyph glyph-name="AE" unicode="&#xc6;" horiz-adv-x="860" 
d="M824 121v-121h-374l-45 158h-209l-45 -158h-137l218 700h582v-121h-365l49 -160h227v-94h-198l63 -204h234zM379 252l-78 277l-79 -277h157z" />
    <glyph glyph-name="Ccedilla" unicode="&#xc7;" horiz-adv-x="671" 
d="M540.5 56.5q-73.5 -61.5 -178.5 -67.5l-43 -60q30 9 55 9q44 0 71.5 -22t27.5 -54q0 -45 -40 -68t-103 -23q-76 0 -132 37l23 54q47 -35 108 -35q25 0 39 9.5t14 25.5q0 13 -12 21t-32 8q-29 0 -64 -16l-29 36l57 79q-125 12 -193 103t-68 249q0 118 41 201.5t113.5 126
t164.5 42.5q108 0 180.5 -57t92.5 -170l-146 -39q-22 136 -126 136q-67 0 -108 -61t-41 -179q0 -110 35.5 -166t105.5 -56q108 0 136 153l149 -34q-24 -121 -97.5 -182.5z" />
    <glyph glyph-name="Egrave" unicode="&#xc8;" horiz-adv-x="563" 
d="M527 121v-121h-455v700h445v-121h-280v-160h191v-94h-191v-204h290zM294 910l31 -147h-64l-106 147h139z" />
    <glyph glyph-name="Eacute" unicode="&#xc9;" horiz-adv-x="563" 
d="M527 121v-121h-455v700h445v-121h-280v-160h191v-94h-191v-204h290zM322 763h-64l32 147h138z" />
    <glyph glyph-name="Ecircumflex" unicode="&#xca;" horiz-adv-x="563" 
d="M527 121v-121h-455v700h445v-121h-280v-160h191v-94h-191v-204h290zM347 770l-55 59l-56 -59h-82l88 133h99l88 -133h-82z" />
    <glyph glyph-name="Edieresis" unicode="&#xcb;" horiz-adv-x="563" 
d="M527 121v-121h-455v700h445v-121h-280v-160h191v-94h-191v-204h290zM131 899h125v-124h-125v124zM327 899h126v-124h-126v124z" />
    <glyph glyph-name="Igrave" unicode="&#xcc;" horiz-adv-x="308" 
d="M72 700h165v-700h-165v700zM156 910l31 -147h-64l-106 147h139z" />
    <glyph glyph-name="Iacute" unicode="&#xcd;" horiz-adv-x="308" 
d="M72 700h165v-700h-165v700zM184 763h-64l32 147h138z" />
    <glyph glyph-name="Icircumflex" unicode="&#xce;" horiz-adv-x="308" 
d="M72 700h165v-700h-165v700zM209 770l-55 59l-56 -59h-82l88 133h99l88 -133h-82z" />
    <glyph glyph-name="Idieresis" unicode="&#xcf;" horiz-adv-x="308" 
d="M72 700h165v-700h-165v700zM-7 899h125v-124h-125v124zM189 899h126v-124h-126v124z" />
    <glyph glyph-name="Eth" unicode="&#xd0;" horiz-adv-x="703" 
d="M582 612.5q81 -87.5 81 -262.5t-81 -262.5t-231 -87.5h-255v318h-96v64h96v318h255q150 0 231 -87.5zM457.5 179q39.5 56 39.5 171t-39.5 171t-120.5 56h-76v-195h130v-64h-130v-195h76q81 0 120.5 56z" />
    <glyph glyph-name="Ntilde" unicode="&#xd1;" horiz-adv-x="711" 
d="M639 700v-700h-169l-272 512v-512h-126v700h197l244 -457v457h126zM188 787q5 59 29.5 91t69.5 32q25 0 45 -8.5t42 -28.5l23 -21q11 -10 18 -13.5t15 -3.5q16 0 23.5 16.5t9.5 58.5l61 -24q-4 -58 -29 -90.5t-70 -32.5q-24 0 -44.5 9t-41.5 29l-23 21q-12 10 -19 13.5
t-15 3.5q-16 0 -23.5 -17t-8.5 -59z" />
    <glyph glyph-name="Ograve" unicode="&#xd2;" horiz-adv-x="720" 
d="M191 32q-72 44 -111 126t-39 192t39 192t111 126t169 44q98 0 170 -44t110.5 -126t38.5 -192t-38.5 -192t-110.5 -126t-170 -44q-97 0 -169 44zM469 181q38 59 38 169t-38 169.5t-109 59.5t-109.5 -59.5t-38.5 -169.5t38.5 -169t109.5 -59t109 59zM361 910l31 -147h-64
l-106 147h139z" />
    <glyph glyph-name="Oacute" unicode="&#xd3;" horiz-adv-x="720" 
d="M191 32q-72 44 -111 126t-39 192t39 192t111 126t169 44q98 0 170 -44t110.5 -126t38.5 -192t-38.5 -192t-110.5 -126t-170 -44q-97 0 -169 44zM469 181q38 59 38 169t-38 169.5t-109 59.5t-109.5 -59.5t-38.5 -169.5t38.5 -169t109.5 -59t109 59zM390 763h-64l32 147
h138z" />
    <glyph glyph-name="Ocircumflex" unicode="&#xd4;" horiz-adv-x="720" 
d="M191 32q-72 44 -111 126t-39 192t39 192t111 126t169 44q98 0 170 -44t110.5 -126t38.5 -192t-38.5 -192t-110.5 -126t-170 -44q-97 0 -169 44zM469 181q38 59 38 169t-38 169.5t-109 59.5t-109.5 -59.5t-38.5 -169.5t38.5 -169t109.5 -59t109 59zM415 770l-55 59
l-56 -59h-82l88 133h99l88 -133h-82z" />
    <glyph glyph-name="Otilde" unicode="&#xd5;" horiz-adv-x="720" 
d="M191 32q-72 44 -111 126t-39 192t39 192t111 126t169 44q98 0 170 -44t110.5 -126t38.5 -192t-38.5 -192t-110.5 -126t-170 -44q-97 0 -169 44zM469 181q38 59 38 169t-38 169.5t-109 59.5t-109.5 -59.5t-38.5 -169.5t38.5 -169t109.5 -59t109 59zM192 787q5 59 29.5 91
t69.5 32q25 0 45 -8.5t42 -28.5l23 -21q11 -10 18 -13.5t15 -3.5q16 0 23.5 16.5t9.5 58.5l61 -24q-4 -58 -29 -90.5t-70 -32.5q-24 0 -44.5 9t-41.5 29l-23 21q-12 10 -19 13.5t-15 3.5q-16 0 -23.5 -17t-8.5 -59z" />
    <glyph glyph-name="Odieresis" unicode="&#xd6;" horiz-adv-x="720" 
d="M191 32q-72 44 -111 126t-39 192t39 192t111 126t169 44q98 0 170 -44t110.5 -126t38.5 -192t-38.5 -192t-110.5 -126t-170 -44q-97 0 -169 44zM469 181q38 59 38 169t-38 169.5t-109 59.5t-109.5 -59.5t-38.5 -169.5t38.5 -169t109.5 -59t109 59zM199 899h125v-124h-125
v124zM395 899h126v-124h-126v124z" />
    <glyph glyph-name="multiply" unicode="&#xd7;" horiz-adv-x="565" 
d="M78 178l141 141l-141 140l64 64l140 -140l141 140l64 -64l-141 -140l141 -141l-64 -63l-141 140l-140 -140z" />
    <glyph glyph-name="Oslash" unicode="&#xd8;" horiz-adv-x="720" 
d="M641 541q38 -81 38 -191t-38.5 -192t-110.5 -126t-170 -44q-65 0 -120 20l-44 -98l-53 24l44 100q-70 45 -108 126t-38 190q0 110 39 192t111 126t169 44q65 0 119 -20l44 98l54 -25l-44 -99q70 -44 108 -125zM252 179l171 385q-27 15 -63 15q-71 0 -109.5 -59.5
t-38.5 -169.5q0 -111 40 -171zM469 181q38 59 38 169q0 113 -39 171l-171 -384q27 -15 63 -15q71 0 109 59z" />
    <glyph glyph-name="Ugrave" unicode="&#xd9;" horiz-adv-x="662" 
d="M136.5 56q-68.5 68 -68.5 203v441h165v-460q0 -61 28 -92.5t82 -31.5q53 0 81 31.5t28 92.5v460h142v-445q0 -132 -69 -199.5t-189 -67.5q-131 0 -199.5 68zM342 910l31 -147h-64l-106 147h139z" />
    <glyph glyph-name="Uacute" unicode="&#xda;" horiz-adv-x="662" 
d="M136.5 56q-68.5 68 -68.5 203v441h165v-460q0 -61 28 -92.5t82 -31.5q53 0 81 31.5t28 92.5v460h142v-445q0 -132 -69 -199.5t-189 -67.5q-131 0 -199.5 68zM370 763h-64l32 147h138z" />
    <glyph glyph-name="Ucircumflex" unicode="&#xdb;" horiz-adv-x="662" 
d="M136.5 56q-68.5 68 -68.5 203v441h165v-460q0 -61 28 -92.5t82 -31.5q53 0 81 31.5t28 92.5v460h142v-445q0 -132 -69 -199.5t-189 -67.5q-131 0 -199.5 68zM395 770l-55 59l-56 -59h-82l88 133h99l88 -133h-82z" />
    <glyph glyph-name="Udieresis" unicode="&#xdc;" horiz-adv-x="662" 
d="M136.5 56q-68.5 68 -68.5 203v441h165v-460q0 -61 28 -92.5t82 -31.5q53 0 81 31.5t28 92.5v460h142v-445q0 -132 -69 -199.5t-189 -67.5q-131 0 -199.5 68zM179 899h125v-124h-125v124zM375 899h126v-124h-126v124z" />
    <glyph glyph-name="Yacute" unicode="&#xdd;" horiz-adv-x="628" 
d="M396 269v-269h-165v265l-225 435h182l147 -293l151 293h136zM366 763h-64l32 147h138z" />
    <glyph glyph-name="Thorn" unicode="&#xde;" horiz-adv-x="643" 
d="M549.5 506q65.5 -53 65.5 -152t-65.5 -152t-186.5 -53h-126v-149h-165v700h165v-141h126q121 0 186.5 -53zM424.5 277.5q27.5 23.5 27.5 68.5t-27.5 68.5t-80.5 23.5h-107v-184h107q53 0 80.5 23.5z" />
    <glyph glyph-name="germandbls" unicode="&#xdf;" horiz-adv-x="636" 
d="M249 18l24 117q31 -27 71 -27q46 0 75 33t29 95q0 54 -31.5 84t-83.5 30q-29 0 -57 -7v118q7 -1 24 -1q40 0 66 23t26 69q0 39 -21.5 63t-58.5 24q-47 0 -72 -33.5t-25 -100.5v-505h-153v465q0 142 67.5 214.5t183.5 72.5q94 0 152.5 -49.5t58.5 -132.5q0 -49 -26 -88
t-70 -56v-2q80 -13 127 -65t47 -131t-33 -133t-87.5 -80.5t-119.5 -26.5q-69 0 -113 30z" />
    <glyph glyph-name="agrave" unicode="&#xe0;" horiz-adv-x="572" 
d="M556 18q-46 -30 -103 -30q-49 0 -78.5 25t-36.5 74v2q-21 -50 -60.5 -75.5t-92.5 -25.5q-72 0 -113 39t-41 102q0 56 30 90t74 50t104 27q41 7 61 15.5t28 23.5v20q0 30 -15.5 45.5t-42.5 15.5q-34 0 -59 -23t-39 -66l-119 41q24 71 84 112.5t147 41.5q93 0 143 -43.5
t50 -127.5v-225q0 -34 23 -34q15 0 34 12zM295.5 103.5q24.5 21.5 32.5 65.5v105h-1q-9 -16 -26 -27t-47 -19q-37 -12 -57.5 -31t-20.5 -52q0 -30 17.5 -46.5t46.5 -16.5q31 0 55.5 21.5zM281 720l31 -147h-64l-106 147h139z" />
    <glyph glyph-name="aacute" unicode="&#xe1;" horiz-adv-x="572" 
d="M556 18q-46 -30 -103 -30q-49 0 -78.5 25t-36.5 74v2q-21 -50 -60.5 -75.5t-92.5 -25.5q-72 0 -113 39t-41 102q0 56 30 90t74 50t104 27q41 7 61 15.5t28 23.5v20q0 30 -15.5 45.5t-42.5 15.5q-34 0 -59 -23t-39 -66l-119 41q24 71 84 112.5t147 41.5q93 0 143 -43.5
t50 -127.5v-225q0 -34 23 -34q15 0 34 12zM295.5 103.5q24.5 21.5 32.5 65.5v105h-1q-9 -16 -26 -27t-47 -19q-37 -12 -57.5 -31t-20.5 -52q0 -30 17.5 -46.5t46.5 -16.5q31 0 55.5 21.5zM310 573h-64l32 147h138z" />
    <glyph glyph-name="acircumflex" unicode="&#xe2;" horiz-adv-x="572" 
d="M556 18q-46 -30 -103 -30q-49 0 -78.5 25t-36.5 74v2q-21 -50 -60.5 -75.5t-92.5 -25.5q-72 0 -113 39t-41 102q0 56 30 90t74 50t104 27q41 7 61 15.5t28 23.5v20q0 30 -15.5 45.5t-42.5 15.5q-34 0 -59 -23t-39 -66l-119 41q24 71 84 112.5t147 41.5q93 0 143 -43.5
t50 -127.5v-225q0 -34 23 -34q15 0 34 12zM295.5 103.5q24.5 21.5 32.5 65.5v105h-1q-9 -16 -26 -27t-47 -19q-37 -12 -57.5 -31t-20.5 -52q0 -30 17.5 -46.5t46.5 -16.5q31 0 55.5 21.5zM335 580l-55 59l-56 -59h-82l88 133h99l88 -133h-82z" />
    <glyph glyph-name="atilde" unicode="&#xe3;" horiz-adv-x="572" 
d="M556 18q-46 -30 -103 -30q-49 0 -78.5 25t-36.5 74v2q-21 -50 -60.5 -75.5t-92.5 -25.5q-72 0 -113 39t-41 102q0 56 30 90t74 50t104 27q41 7 61 15.5t28 23.5v20q0 30 -15.5 45.5t-42.5 15.5q-34 0 -59 -23t-39 -66l-119 41q24 71 84 112.5t147 41.5q93 0 143 -43.5
t50 -127.5v-225q0 -34 23 -34q15 0 34 12zM295.5 103.5q24.5 21.5 32.5 65.5v105h-1q-9 -16 -26 -27t-47 -19q-37 -12 -57.5 -31t-20.5 -52q0 -30 17.5 -46.5t46.5 -16.5q31 0 55.5 21.5zM113 597q5 59 29.5 91t69.5 32q25 0 45 -8.5t42 -28.5l23 -21q11 -10 18 -13.5
t15 -3.5q16 0 23.5 16.5t9.5 58.5l61 -24q-4 -58 -29 -90.5t-70 -32.5q-24 0 -44.5 9t-41.5 29l-23 21q-12 10 -19 13.5t-15 3.5q-16 0 -23.5 -17t-8.5 -59z" />
    <glyph glyph-name="adieresis" unicode="&#xe4;" horiz-adv-x="572" 
d="M556 18q-46 -30 -103 -30q-49 0 -78.5 25t-36.5 74v2q-21 -50 -60.5 -75.5t-92.5 -25.5q-72 0 -113 39t-41 102q0 56 30 90t74 50t104 27q41 7 61 15.5t28 23.5v20q0 30 -15.5 45.5t-42.5 15.5q-34 0 -59 -23t-39 -66l-119 41q24 71 84 112.5t147 41.5q93 0 143 -43.5
t50 -127.5v-225q0 -34 23 -34q15 0 34 12zM295.5 103.5q24.5 21.5 32.5 65.5v105h-1q-9 -16 -26 -27t-47 -19q-37 -12 -57.5 -31t-20.5 -52q0 -30 17.5 -46.5t46.5 -16.5q31 0 55.5 21.5zM119 709h125v-124h-125v124zM315 709h126v-124h-126v124z" />
    <glyph glyph-name="aring" unicode="&#xe5;" horiz-adv-x="572" 
d="M556 18q-46 -30 -103 -30q-49 0 -78.5 25t-36.5 74v2q-21 -50 -60.5 -75.5t-92.5 -25.5q-72 0 -113 39t-41 102q0 56 30 90t74 50t104 27q41 7 61 15.5t28 23.5v20q0 30 -15.5 45.5t-42.5 15.5q-34 0 -59 -23t-39 -66l-119 41q24 71 84 112.5t147 41.5q93 0 143 -43.5
t50 -127.5v-225q0 -34 23 -34q15 0 34 12zM295.5 103.5q24.5 21.5 32.5 65.5v105h-1q-9 -16 -26 -27t-47 -19q-37 -12 -57.5 -31t-20.5 -52q0 -30 17.5 -46.5t46.5 -16.5q31 0 55.5 21.5zM212.5 580q-27.5 26 -27.5 67t27.5 66.5t69.5 25.5q40 0 67 -26t27 -66
q0 -42 -26.5 -67.5t-67.5 -25.5q-42 0 -69.5 26zM309.5 616.5q10.5 11.5 10.5 30.5q0 18 -10.5 29.5t-27.5 11.5q-18 0 -29.5 -11.5t-11.5 -29.5q0 -19 11.5 -30.5t29.5 -11.5q17 0 27.5 11.5z" />
    <glyph glyph-name="ae" unicode="&#xe6;" horiz-adv-x="829" 
d="M679 182l112 -49q-24 -68 -81 -106.5t-144 -38.5q-72 0 -123.5 27.5t-78.5 77.5q-23 -50 -67 -77.5t-102 -27.5q-75 0 -119.5 39t-44.5 102q0 56 30 90t74 50t104 27q41 7 61 15.5t28 23.5v20q0 30 -15.5 45.5t-42.5 15.5q-70 0 -98 -89l-119 41q24 71 82 112.5t141 41.5
q99 0 144 -61q28 30 67.5 45.5t85.5 15.5q106 0 162 -63t56 -169q0 -23 -3 -49h-308q2 -71 26.5 -109t72.5 -38q71 0 100 88zM510 390.5q-24 -28.5 -29 -80.5h171q0 109 -79 109q-39 0 -63 -28.5zM295.5 104q24.5 22 32.5 67v103h-1q-9 -16 -26 -27t-47 -19
q-37 -12 -57.5 -31t-20.5 -52q0 -30 17.5 -46.5t46.5 -16.5q31 0 55.5 22z" />
    <glyph glyph-name="ccedilla" unicode="&#xe7;" horiz-adv-x="539" 
d="M436 41q-53 -44 -131 -52l-44 -60q30 9 55 9q44 0 71.5 -22t27.5 -54q0 -45 -40 -68t-103 -23q-77 0 -132 37l23 54q47 -35 108 -35q25 0 39 9.5t14 25.5q0 13 -12 21t-32 8q-29 0 -64 -16l-29 36l57 78q-100 10 -153.5 80t-53.5 186q0 81 32 141.5t89 93t130 32.5
q85 0 141.5 -41t74.5 -122l-129 -36q-15 87 -82 87q-47 0 -74.5 -39.5t-27.5 -115.5q0 -75 24 -115t73 -40q70 0 93 101l127 -39q-19 -77 -72 -121z" />
    <glyph glyph-name="egrave" unicode="&#xe8;" horiz-adv-x="543" 
d="M505 133q-25 -68 -82 -106.5t-144 -38.5q-116 0 -179 71.5t-63 195.5q0 79 31 139.5t87.5 94t129.5 33.5q106 0 162.5 -63t56.5 -167q0 -25 -3 -51h-307q1 -70 25.5 -108.5t72.5 -38.5q72 0 101 88zM223.5 390.5q-23.5 -28.5 -28.5 -80.5h171q0 109 -79 109
q-40 0 -63.5 -28.5zM281 720l31 -147h-64l-106 147h139z" />
    <glyph glyph-name="eacute" unicode="&#xe9;" horiz-adv-x="543" 
d="M505 133q-25 -68 -82 -106.5t-144 -38.5q-116 0 -179 71.5t-63 195.5q0 79 31 139.5t87.5 94t129.5 33.5q106 0 162.5 -63t56.5 -167q0 -25 -3 -51h-307q1 -70 25.5 -108.5t72.5 -38.5q72 0 101 88zM223.5 390.5q-23.5 -28.5 -28.5 -80.5h171q0 109 -79 109
q-40 0 -63.5 -28.5zM310 573h-64l32 147h138z" />
    <glyph glyph-name="ecircumflex" unicode="&#xea;" horiz-adv-x="543" 
d="M505 133q-25 -68 -82 -106.5t-144 -38.5q-116 0 -179 71.5t-63 195.5q0 79 31 139.5t87.5 94t129.5 33.5q106 0 162.5 -63t56.5 -167q0 -25 -3 -51h-307q1 -70 25.5 -108.5t72.5 -38.5q72 0 101 88zM223.5 390.5q-23.5 -28.5 -28.5 -80.5h171q0 109 -79 109
q-40 0 -63.5 -28.5zM335 580l-55 59l-56 -59h-82l88 133h99l88 -133h-82z" />
    <glyph glyph-name="edieresis" unicode="&#xeb;" horiz-adv-x="543" 
d="M505 133q-25 -68 -82 -106.5t-144 -38.5q-116 0 -179 71.5t-63 195.5q0 79 31 139.5t87.5 94t129.5 33.5q106 0 162.5 -63t56.5 -167q0 -25 -3 -51h-307q1 -70 25.5 -108.5t72.5 -38.5q72 0 101 88zM223.5 390.5q-23.5 -28.5 -28.5 -80.5h171q0 109 -79 109
q-40 0 -63.5 -28.5zM119 709h125v-124h-125v124zM315 709h126v-124h-126v124z" />
    <glyph glyph-name="igrave" unicode="&#xec;" horiz-adv-x="277" 
d="M62 510h153v-510h-153v510zM140 720l31 -147h-64l-106 147h139z" />
    <glyph glyph-name="iacute" unicode="&#xed;" horiz-adv-x="277" 
d="M62 510h153v-510h-153v510zM168 573h-64l32 147h138z" />
    <glyph glyph-name="icircumflex" unicode="&#xee;" horiz-adv-x="277" 
d="M62 510h153v-510h-153v510zM193 580l-55 59l-56 -59h-82l88 133h99l88 -133h-82z" />
    <glyph glyph-name="idieresis" unicode="&#xef;" horiz-adv-x="277" 
d="M62 510h153v-510h-153v510zM-23 709h125v-124h-125v124zM173 709h126v-124h-126v124z" />
    <glyph glyph-name="eth" unicode="&#xf0;" horiz-adv-x="553" 
d="M483 453.5q33 -90.5 33 -180.5q0 -141 -65 -213t-174 -72q-111 0 -175.5 69t-64.5 187q0 107 51 170t136 63q73 0 111 -61h4q-26 77 -86 157l-133 -55l-13 57l109 45q-37 42 -94 96l149 46q39 -36 81 -85l126 52l14 -57l-103 -43q61 -85 94 -175.5zM365 256q0 30 -3 58
q-25 66 -85 66q-42 0 -65.5 -36t-23.5 -103t23 -103t66 -36q88 0 88 154z" />
    <glyph glyph-name="ntilde" unicode="&#xf1;" horiz-adv-x="586" 
d="M487 476.5q40 -45.5 40 -130.5v-346h-154v326q0 37 -16.5 57t-46.5 20q-42 0 -67.5 -38.5t-27.5 -118.5v-246h-153v510h148v-120h2q19 61 61 96.5t104 35.5q70 0 110 -45.5zM127 597q5 59 29.5 91t69.5 32q25 0 45 -8.5t42 -28.5l23 -21q11 -10 18 -13.5t15 -3.5
q16 0 23.5 16.5t9.5 58.5l61 -24q-4 -58 -29 -90.5t-70 -32.5q-24 0 -44.5 9t-41.5 29l-23 21q-12 10 -19 13.5t-15 3.5q-16 0 -23.5 -17t-8.5 -59z" />
    <glyph glyph-name="ograve" unicode="&#xf2;" horiz-adv-x="574" 
d="M104 59q-67 71 -67 196q0 124 67 195.5t183 71.5t183 -71.5t67 -195.5q0 -125 -67 -196t-183 -71t-183 71zM357 142q25 39 25 113q0 73 -25 112.5t-70 39.5q-46 0 -71 -39.5t-25 -112.5q0 -74 25 -113t71 -39q45 0 70 39zM288 720l31 -147h-64l-106 147h139z" />
    <glyph glyph-name="oacute" unicode="&#xf3;" horiz-adv-x="574" 
d="M104 59q-67 71 -67 196q0 124 67 195.5t183 71.5t183 -71.5t67 -195.5q0 -125 -67 -196t-183 -71t-183 71zM357 142q25 39 25 113q0 73 -25 112.5t-70 39.5q-46 0 -71 -39.5t-25 -112.5q0 -74 25 -113t71 -39q45 0 70 39zM317 573h-64l32 147h138z" />
    <glyph glyph-name="ocircumflex" unicode="&#xf4;" horiz-adv-x="574" 
d="M104 59q-67 71 -67 196q0 124 67 195.5t183 71.5t183 -71.5t67 -195.5q0 -125 -67 -196t-183 -71t-183 71zM357 142q25 39 25 113q0 73 -25 112.5t-70 39.5q-46 0 -71 -39.5t-25 -112.5q0 -74 25 -113t71 -39q45 0 70 39zM342 580l-55 59l-56 -59h-82l88 133h99l88 -133
h-82z" />
    <glyph glyph-name="otilde" unicode="&#xf5;" horiz-adv-x="574" 
d="M104 59q-67 71 -67 196q0 124 67 195.5t183 71.5t183 -71.5t67 -195.5q0 -125 -67 -196t-183 -71t-183 71zM357 142q25 39 25 113q0 73 -25 112.5t-70 39.5q-46 0 -71 -39.5t-25 -112.5q0 -74 25 -113t71 -39q45 0 70 39zM119 597q5 59 29.5 91t69.5 32q25 0 45 -8.5
t42 -28.5l23 -21q11 -10 18 -13.5t15 -3.5q16 0 23.5 16.5t9.5 58.5l61 -24q-4 -58 -29 -90.5t-70 -32.5q-24 0 -44.5 9t-41.5 29l-23 21q-12 10 -19 13.5t-15 3.5q-16 0 -23.5 -17t-8.5 -59z" />
    <glyph glyph-name="odieresis" unicode="&#xf6;" horiz-adv-x="574" 
d="M104 59q-67 71 -67 196q0 124 67 195.5t183 71.5t183 -71.5t67 -195.5q0 -125 -67 -196t-183 -71t-183 71zM357 142q25 39 25 113q0 73 -25 112.5t-70 39.5q-46 0 -71 -39.5t-25 -112.5q0 -74 25 -113t71 -39q45 0 70 39zM126 709h125v-124h-125v124zM322 709h126v-124
h-126v124z" />
    <glyph glyph-name="divide" unicode="&#xf7;" horiz-adv-x="596" 
d="M239 567h118v-116h-118v116zM68 366h460v-94h-460v94zM239 187h118v-116h-118v116z" />
    <glyph glyph-name="oslash" unicode="&#xf8;" horiz-adv-x="574" 
d="M507 398q30 -60 30 -143q0 -124 -67 -195.5t-183 -71.5q-43 0 -84 11l-38 -86l-49 22l38 85q-57 32 -87 92t-30 143q0 125 67 196t183 71q44 0 85 -11l38 86l49 -22l-38 -85q56 -32 86 -92zM210 147l114 256q-15 7 -37 7q-48 0 -73.5 -40t-25.5 -115q0 -69 22 -108z
M360.5 140.5q25.5 39.5 25.5 114.5q0 69 -21 108l-114 -255q15 -7 36 -7q48 0 73.5 39.5z" />
    <glyph glyph-name="ugrave" unicode="&#xf9;" horiz-adv-x="586" 
d="M525 510v-510h-149v120h-1q-20 -61 -62 -96.5t-104 -35.5q-70 0 -110 45.5t-40 130.5v346h154v-326q0 -37 16.5 -57t46.5 -20q43 0 68.5 38t26.5 118v247h154zM296 720l31 -147h-64l-106 147h139z" />
    <glyph glyph-name="uacute" unicode="&#xfa;" horiz-adv-x="586" 
d="M525 510v-510h-149v120h-1q-20 -61 -62 -96.5t-104 -35.5q-70 0 -110 45.5t-40 130.5v346h154v-326q0 -37 16.5 -57t46.5 -20q43 0 68.5 38t26.5 118v247h154zM324 573h-64l32 147h138z" />
    <glyph glyph-name="ucircumflex" unicode="&#xfb;" horiz-adv-x="586" 
d="M525 510v-510h-149v120h-1q-20 -61 -62 -96.5t-104 -35.5q-70 0 -110 45.5t-40 130.5v346h154v-326q0 -37 16.5 -57t46.5 -20q43 0 68.5 38t26.5 118v247h154zM349 580l-55 59l-56 -59h-82l88 133h99l88 -133h-82z" />
    <glyph glyph-name="udieresis" unicode="&#xfc;" horiz-adv-x="586" 
d="M525 510v-510h-149v120h-1q-20 -61 -62 -96.5t-104 -35.5q-70 0 -110 45.5t-40 130.5v346h154v-326q0 -37 16.5 -57t46.5 -20q43 0 68.5 38t26.5 118v247h154zM133 709h125v-124h-125v124zM329 709h126v-124h-126v124z" />
    <glyph glyph-name="yacute" unicode="&#xfd;" horiz-adv-x="570" 
d="M551 510l-214 -565q-60 -157 -202 -157q-41 0 -73 13.5t-50 37.5l50 92q31 -39 73 -39q31 0 51 21t39 67l-199 530h165l113 -325l117 325h130zM333 573h-64l32 147h138z" />
    <glyph glyph-name="thorn" unicode="&#xfe;" horiz-adv-x="589" 
d="M503 450q49 -72 49 -195t-51 -195t-139 -72q-53 0 -90.5 27.5t-54.5 82.5h-2v-298h-153v940h153v-333h2q17 58 56.5 86.5t90.5 28.5q90 0 139 -72zM372 141q23 39 23 114t-23 114t-66 39q-40 0 -64 -34t-27 -100v-39q3 -64 26.5 -98.5t64.5 -34.5q43 0 66 39z" />
    <glyph glyph-name="ydieresis" unicode="&#xff;" horiz-adv-x="570" 
d="M551 510l-214 -565q-60 -157 -202 -157q-41 0 -73 13.5t-50 37.5l50 92q31 -39 73 -39q31 0 51 21t39 67l-199 530h165l113 -325l117 325h130zM142 709h125v-124h-125v124zM338 709h126v-124h-126v124z" />
    <glyph glyph-name="Amacron" unicode="&#x100;" horiz-adv-x="640" 
d="M405 158h-209l-45 -158h-137l218 700h180l215 -700h-177zM379 252l-78 277l-79 -277h157zM175 877h290v-79h-290v79z" />
    <glyph glyph-name="amacron" unicode="&#x101;" horiz-adv-x="572" 
d="M556 18q-46 -30 -103 -30q-49 0 -78.5 25t-36.5 74v2q-21 -50 -60.5 -75.5t-92.5 -25.5q-72 0 -113 39t-41 102q0 56 30 90t74 50t104 27q41 7 61 15.5t28 23.5v20q0 30 -15.5 45.5t-42.5 15.5q-34 0 -59 -23t-39 -66l-119 41q24 71 84 112.5t147 41.5q93 0 143 -43.5
t50 -127.5v-225q0 -34 23 -34q15 0 34 12zM295.5 103.5q24.5 21.5 32.5 65.5v105h-1q-9 -16 -26 -27t-47 -19q-37 -12 -57.5 -31t-20.5 -52q0 -30 17.5 -46.5t46.5 -16.5q31 0 55.5 21.5zM135 687h290v-79h-290v79z" />
    <glyph glyph-name="Abreve" unicode="&#x102;" horiz-adv-x="640" 
d="M405 158h-209l-45 -158h-137l218 700h180l215 -700h-177zM379 252l-78 277l-79 -277h157zM225.5 808q-35.5 33 -37.5 91h81q2 -26 15.5 -40.5t38.5 -14.5t38.5 14.5t15.5 40.5h81q-1 -58 -37 -91t-98 -33t-97.5 33z" />
    <glyph glyph-name="abreve" unicode="&#x103;" horiz-adv-x="572" 
d="M556 18q-46 -30 -103 -30q-49 0 -78.5 25t-36.5 74v2q-21 -50 -60.5 -75.5t-92.5 -25.5q-72 0 -113 39t-41 102q0 56 30 90t74 50t104 27q41 7 61 15.5t28 23.5v20q0 30 -15.5 45.5t-42.5 15.5q-34 0 -59 -23t-39 -66l-119 41q24 71 84 112.5t147 41.5q93 0 143 -43.5
t50 -127.5v-225q0 -34 23 -34q15 0 34 12zM295.5 103.5q24.5 21.5 32.5 65.5v105h-1q-9 -16 -26 -27t-47 -19q-37 -12 -57.5 -31t-20.5 -52q0 -30 17.5 -46.5t46.5 -16.5q31 0 55.5 21.5zM185.5 618q-35.5 33 -37.5 91h81q2 -26 15.5 -40.5t38.5 -14.5t38.5 14.5t15.5 40.5
h81q-1 -58 -37 -91t-98 -33t-97.5 33z" />
    <glyph glyph-name="Aogonek" unicode="&#x104;" horiz-adv-x="640" 
d="M562.5 -127.5q14.5 -14.5 44.5 -14.5q18 0 48 8l-7 -61q-45 -13 -80 -13q-54 0 -82 28t-28 74q0 31 18 57.5t50 46.5l-75 -2l-46 162h-209l-45 -158h-137l218 700h180l215 -700q-42 -22 -60.5 -43t-18.5 -46q0 -24 14.5 -38.5zM379 252l-79 277l-78 -277h157z" />
    <glyph glyph-name="aogonek" unicode="&#x105;" horiz-adv-x="572" 
d="M458.5 -127q14.5 -15 44.5 -15q19 0 49 8l-7 -61q-43 -13 -79 -13q-55 0 -83.5 28t-28.5 73q0 58 62 99q-33 8 -53 32t-25 63v2q-21 -50 -60.5 -75.5t-92.5 -25.5q-72 0 -113 39t-41 102q0 56 30 90t74 50t104 27q41 7 61 15.5t28 23.5v20q0 30 -15.5 45.5t-42.5 15.5
q-34 0 -59 -23t-39 -66l-119 41q24 71 84 112.5t147 41.5q93 0 143 -43.5t50 -127.5v-225q0 -34 23 -34q15 0 34 12l22 -86q-12 -8 -34 -19q-41 -21 -59.5 -41t-18.5 -46q0 -24 14.5 -39zM295.5 103.5q24.5 21.5 32.5 65.5v105h-1q-9 -16 -26 -27t-47 -19q-37 -12 -57.5 -31
t-20.5 -52q0 -30 17.5 -46.5t46.5 -16.5q31 0 55.5 21.5z" />
    <glyph glyph-name="Cacute" unicode="&#x106;" horiz-adv-x="671" 
d="M119.5 80.5q-78.5 92.5 -78.5 261.5q0 118 41 201.5t113.5 126t164.5 42.5q108 0 180.5 -57t92.5 -170l-146 -39q-22 136 -126 136q-67 0 -108 -61t-41 -179q0 -110 35.5 -166t105.5 -56q108 0 136 153l149 -34q-26 -127 -105.5 -189t-192.5 -62q-142 0 -220.5 92.5z
M391 763h-64l32 147h138z" />
    <glyph glyph-name="cacute" unicode="&#x107;" horiz-adv-x="539" 
d="M98.5 59.5q-61.5 71.5 -61.5 195.5q0 81 32 141.5t89 93t130 32.5q85 0 141.5 -41t74.5 -122l-129 -36q-15 87 -82 87q-47 0 -74.5 -39.5t-27.5 -115.5q0 -75 24 -115t73 -40q70 0 93 101l127 -39q-22 -84 -82.5 -129t-151.5 -45q-114 0 -175.5 71.5zM316 573h-64l32 147
h138z" />
    <glyph glyph-name="Ccircumflex" unicode="&#x108;" horiz-adv-x="671" 
d="M119.5 80.5q-78.5 92.5 -78.5 261.5q0 118 41 201.5t113.5 126t164.5 42.5q108 0 180.5 -57t92.5 -170l-146 -39q-22 136 -126 136q-67 0 -108 -61t-41 -179q0 -110 35.5 -166t105.5 -56q108 0 136 153l149 -34q-26 -127 -105.5 -189t-192.5 -62q-142 0 -220.5 92.5z
M416 770l-55 59l-56 -59h-82l88 133h99l88 -133h-82z" />
    <glyph glyph-name="ccircumflex" unicode="&#x109;" horiz-adv-x="539" 
d="M98.5 59.5q-61.5 71.5 -61.5 195.5q0 81 32 141.5t89 93t130 32.5q85 0 141.5 -41t74.5 -122l-129 -36q-15 87 -82 87q-47 0 -74.5 -39.5t-27.5 -115.5q0 -75 24 -115t73 -40q70 0 93 101l127 -39q-22 -84 -82.5 -129t-151.5 -45q-114 0 -175.5 71.5zM341 580l-55 59
l-56 -59h-82l88 133h99l88 -133h-82z" />
    <glyph glyph-name="Cdotaccent" unicode="&#x10a;" horiz-adv-x="671" 
d="M119.5 80.5q-78.5 92.5 -78.5 261.5q0 118 41 201.5t113.5 126t164.5 42.5q108 0 180.5 -57t92.5 -170l-146 -39q-22 136 -126 136q-67 0 -108 -61t-41 -179q0 -110 35.5 -166t105.5 -56q108 0 136 153l149 -34q-26 -127 -105.5 -189t-192.5 -62q-142 0 -220.5 92.5z
M289 907h143v-134h-143v134z" />
    <glyph glyph-name="cdotaccent" unicode="&#x10b;" horiz-adv-x="539" 
d="M98.5 59.5q-61.5 71.5 -61.5 195.5q0 81 32 141.5t89 93t130 32.5q85 0 141.5 -41t74.5 -122l-129 -36q-15 87 -82 87q-47 0 -74.5 -39.5t-27.5 -115.5q0 -75 24 -115t73 -40q70 0 93 101l127 -39q-22 -84 -82.5 -129t-151.5 -45q-114 0 -175.5 71.5zM214 717h143v-134
h-143v134z" />
    <glyph glyph-name="Ccaron" unicode="&#x10c;" horiz-adv-x="671" 
d="M119.5 80.5q-78.5 92.5 -78.5 261.5q0 118 41 201.5t113.5 126t164.5 42.5q108 0 180.5 -57t92.5 -170l-146 -39q-22 136 -126 136q-67 0 -108 -61t-41 -179q0 -110 35.5 -166t105.5 -56q108 0 136 153l149 -34q-26 -127 -105.5 -189t-192.5 -62q-142 0 -220.5 92.5z
M498 903l-88 -133h-99l-88 133h82l56 -59l55 59h82z" />
    <glyph glyph-name="ccaron" unicode="&#x10d;" horiz-adv-x="539" 
d="M98.5 59.5q-61.5 71.5 -61.5 195.5q0 81 32 141.5t89 93t130 32.5q85 0 141.5 -41t74.5 -122l-129 -36q-15 87 -82 87q-47 0 -74.5 -39.5t-27.5 -115.5q0 -75 24 -115t73 -40q70 0 93 101l127 -39q-22 -84 -82.5 -129t-151.5 -45q-114 0 -175.5 71.5zM423 713l-88 -133
h-99l-88 133h82l56 -59l55 59h82z" />
    <glyph glyph-name="Dcaron" unicode="&#x10e;" horiz-adv-x="679" 
d="M558 612.5q81 -87.5 81 -262.5t-81 -262.5t-231 -87.5h-255v700h255q150 0 231 -87.5zM433.5 179q39.5 56 39.5 171t-39.5 171t-121.5 56h-75v-454h75q82 0 121.5 56zM455 903l-88 -133h-99l-88 133h82l56 -59l55 59h82z" />
    <glyph glyph-name="dcaron" unicode="&#x10f;" horiz-adv-x="734" 
d="M527 740v-740h-147v102h-2q-17 -57 -55.5 -85.5t-90.5 -28.5q-92 0 -143.5 72t-51.5 195q0 80 23.5 140.5t68 93.5t103.5 33q51 0 87 -27.5t53 -82.5h2v328h153zM374 274q-3 65 -26 99.5t-63 34.5q-43 0 -67 -39.5t-24 -113.5q0 -75 24 -114t67 -39q40 0 62.5 33.5
t26.5 99.5v39zM734 740v-129q-17 -41 -39 -75t-55 -72l-55 47q40 29 63 51t42 50h-94v128h138z" />
    <glyph glyph-name="Dcroat" unicode="&#x110;" horiz-adv-x="703" 
d="M582 612.5q81 -87.5 81 -262.5t-81 -262.5t-231 -87.5h-255v318h-96v64h96v318h255q150 0 231 -87.5zM457.5 179q39.5 56 39.5 171t-39.5 171t-120.5 56h-76v-195h130v-64h-130v-195h76q81 0 120.5 56z" />
    <glyph glyph-name="dcroat" unicode="&#x111;" horiz-adv-x="586" 
d="M615 594h-88v-594h-147v102h-2q-17 -57 -55.5 -85.5t-90.5 -28.5q-92 0 -143.5 72t-51.5 195q0 80 23.5 140.5t68 93.5t103.5 33q51 0 87 -27.5t53 -82.5h2v182h-170v58h170v88h153v-88h88v-58zM374 274q-3 65 -26 99.5t-63 34.5q-43 0 -67 -39.5t-24 -113.5
q0 -75 24 -114t67 -39q40 0 62.5 33.5t26.5 99.5v39z" />
    <glyph glyph-name="Emacron" unicode="&#x112;" horiz-adv-x="563" 
d="M527 121v-121h-455v700h445v-121h-280v-160h191v-94h-191v-204h290zM147 877h290v-79h-290v79z" />
    <glyph glyph-name="emacron" unicode="&#x113;" horiz-adv-x="543" 
d="M505 133q-25 -68 -82 -106.5t-144 -38.5q-116 0 -179 71.5t-63 195.5q0 79 31 139.5t87.5 94t129.5 33.5q106 0 162.5 -63t56.5 -167q0 -25 -3 -51h-307q1 -70 25.5 -108.5t72.5 -38.5q72 0 101 88zM223.5 390.5q-23.5 -28.5 -28.5 -80.5h171q0 109 -79 109
q-40 0 -63.5 -28.5zM135 687h290v-79h-290v79z" />
    <glyph glyph-name="Ebreve" unicode="&#x114;" horiz-adv-x="563" 
d="M527 121v-121h-455v700h445v-121h-280v-160h191v-94h-191v-204h290zM197.5 808q-35.5 33 -37.5 91h81q2 -26 15.5 -40.5t38.5 -14.5t38.5 14.5t15.5 40.5h81q-1 -58 -37 -91t-98 -33t-97.5 33z" />
    <glyph glyph-name="ebreve" unicode="&#x115;" horiz-adv-x="543" 
d="M505 133q-25 -68 -82 -106.5t-144 -38.5q-116 0 -179 71.5t-63 195.5q0 79 31 139.5t87.5 94t129.5 33.5q106 0 162.5 -63t56.5 -167q0 -25 -3 -51h-307q1 -70 25.5 -108.5t72.5 -38.5q72 0 101 88zM223.5 390.5q-23.5 -28.5 -28.5 -80.5h171q0 109 -79 109
q-40 0 -63.5 -28.5zM184.5 618q-35.5 33 -37.5 91h81q2 -26 15.5 -40.5t38.5 -14.5t38.5 14.5t15.5 40.5h81q-1 -58 -37 -91t-98 -33t-97.5 33z" />
    <glyph glyph-name="Edotaccent" unicode="&#x116;" horiz-adv-x="563" 
d="M527 121v-121h-455v700h445v-121h-280v-160h191v-94h-191v-204h290zM221 907h143v-134h-143v134z" />
    <glyph glyph-name="edotaccent" unicode="&#x117;" horiz-adv-x="543" 
d="M505 133q-25 -68 -82 -106.5t-144 -38.5q-116 0 -179 71.5t-63 195.5q0 79 31 139.5t87.5 94t129.5 33.5q106 0 162.5 -63t56.5 -167q0 -25 -3 -51h-307q1 -70 25.5 -108.5t72.5 -38.5q72 0 101 88zM223.5 390.5q-23.5 -28.5 -28.5 -80.5h171q0 109 -79 109
q-40 0 -63.5 -28.5zM208 717h143v-134h-143v134z" />
    <glyph glyph-name="Eogonek" unicode="&#x118;" horiz-adv-x="563" 
d="M463 -127.5q14 -14.5 44 -14.5q19 0 49 8l-7 -61q-45 -13 -80 -13q-55 0 -83 28t-28 74q0 31 19 58.5t53 47.5h-358v700h445v-121h-280v-160h191v-94h-191v-204h290v-121q-41 -22 -59.5 -43t-18.5 -46q0 -24 14 -38.5z" />
    <glyph glyph-name="eogonek" unicode="&#x119;" horiz-adv-x="543" 
d="M345.5 -36.5q-16.5 -23.5 -16.5 -50.5q0 -24 14.5 -39.5t44.5 -15.5q18 0 48 8l-7 -61q-45 -13 -80 -13q-55 0 -83 27.5t-28 72.5q0 54 53 96h-12q-116 0 -179 71.5t-63 195.5q0 79 31 139.5t87.5 94t129.5 33.5q106 0 162.5 -63t56.5 -167q0 -25 -3 -51h-307
q1 -70 25.5 -108.5t72.5 -38.5q72 0 101 88l112 -49q-12 -35 -35.5 -63t-69.5 -58q-38 -25 -54.5 -48.5zM223.5 390.5q-23.5 -28.5 -28.5 -80.5h171q0 109 -79 109q-40 0 -63.5 -28.5z" />
    <glyph glyph-name="Ecaron" unicode="&#x11a;" horiz-adv-x="563" 
d="M527 121v-121h-455v700h445v-121h-280v-160h191v-94h-191v-204h290zM429 903l-88 -133h-99l-88 133h82l56 -59l55 59h82z" />
    <glyph glyph-name="ecaron" unicode="&#x11b;" horiz-adv-x="543" 
d="M505 133q-25 -68 -82 -106.5t-144 -38.5q-116 0 -179 71.5t-63 195.5q0 79 31 139.5t87.5 94t129.5 33.5q106 0 162.5 -63t56.5 -167q0 -25 -3 -51h-307q1 -70 25.5 -108.5t72.5 -38.5q72 0 101 88zM223.5 390.5q-23.5 -28.5 -28.5 -80.5h171q0 109 -79 109
q-40 0 -63.5 -28.5zM417 713l-88 -133h-99l-88 133h82l56 -59l55 59h82z" />
    <glyph glyph-name="Gcircumflex" unicode="&#x11c;" horiz-adv-x="690" 
d="M631 345v-345h-117l-15 129h-1q-25 -68 -74 -104.5t-121 -36.5q-81 0 -140 42.5t-90.5 121.5t-31.5 187q0 114 40.5 198.5t112.5 129.5t165 45q106 0 177.5 -55.5t93.5 -158.5l-150 -38q-11 62 -41.5 92t-77.5 30q-72 0 -110.5 -64t-38.5 -179q0 -112 37 -169t108 -57
q51 0 85.5 32.5t40.5 100.5h-145v99h293zM409 770l-55 59l-56 -59h-82l88 133h99l88 -133h-82z" />
    <glyph glyph-name="gcircumflex" unicode="&#x11d;" horiz-adv-x="549" 
d="M220 580h-82l88 133h99l88 -133h-82l-55 59zM466 493q-14 -16 -11 -46q32 -43 32 -105q0 -85 -57.5 -132.5t-161.5 -47.5q-59 0 -104 15q-19 -15 -19 -35t12.5 -29t40.5 -9h170q86 0 133.5 -35.5t47.5 -102.5q0 -85 -79.5 -131.5t-211.5 -46.5q-127 0 -183.5 27.5
t-56.5 80.5q0 31 22 52t59 30v1q-34 11 -52.5 35t-18.5 58q0 84 106 118q-42 23 -64.5 61.5t-22.5 90.5q0 85 58.5 132.5t162.5 47.5q99 0 157 -44q-4 16 -4 33q0 41 25.5 66.5t68.5 25.5q40 0 70 -22l-33 -93q-14 11 -25.5 16t-24.5 5q-22 0 -36 -16zM325 275q21 24 21 67
t-21 66.5t-58 23.5t-57.5 -23.5t-20.5 -66.5t20.5 -67t57.5 -24t58 24zM161 -30q-15 0 -22 1q-23 -19 -23 -46q0 -33 34.5 -49.5t107.5 -16.5q76 0 115 17t39 49q0 45 -68 45h-183z" />
    <glyph glyph-name="Gbreve" unicode="&#x11e;" horiz-adv-x="690" 
d="M631 345v-345h-117l-15 129h-1q-25 -68 -74 -104.5t-121 -36.5q-81 0 -140 42.5t-90.5 121.5t-31.5 187q0 114 40.5 198.5t112.5 129.5t165 45q106 0 177.5 -55.5t93.5 -158.5l-150 -38q-11 62 -41.5 92t-77.5 30q-72 0 -110.5 -64t-38.5 -179q0 -112 37 -169t108 -57
q51 0 85.5 32.5t40.5 100.5h-145v99h293zM259.5 808q-35.5 33 -37.5 91h81q2 -26 15.5 -40.5t38.5 -14.5t38.5 14.5t15.5 40.5h81q-1 -58 -37 -91t-98 -33t-97.5 33z" />
    <glyph glyph-name="gbreve" unicode="&#x11f;" horiz-adv-x="549" 
d="M178 618q-36 33 -37 91h81q2 -26 15.5 -40.5t38.5 -14.5t38.5 14.5t15.5 40.5h81q-2 -58 -38 -91t-97 -33q-62 0 -98 33zM466 493q-14 -16 -11 -46q32 -43 32 -105q0 -85 -57.5 -132.5t-161.5 -47.5q-59 0 -104 15q-19 -15 -19 -35t12.5 -29t40.5 -9h170
q86 0 133.5 -35.5t47.5 -102.5q0 -85 -79.5 -131.5t-211.5 -46.5q-127 0 -183.5 27.5t-56.5 80.5q0 31 22 52t59 30v1q-34 11 -52.5 35t-18.5 58q0 84 106 118q-42 23 -64.5 61.5t-22.5 90.5q0 85 58.5 132.5t162.5 47.5q99 0 157 -44q-4 16 -4 33q0 41 25.5 66.5t68.5 25.5
q40 0 70 -22l-33 -93q-14 11 -25.5 16t-24.5 5q-22 0 -36 -16zM325 275q21 24 21 67t-21 66.5t-58 23.5t-57.5 -23.5t-20.5 -66.5t20.5 -67t57.5 -24t58 24zM161 -30q-15 0 -22 1q-23 -19 -23 -46q0 -33 34.5 -49.5t107.5 -16.5q76 0 115 17t39 49q0 45 -68 45h-183z" />
    <glyph glyph-name="Gdotaccent" unicode="&#x120;" horiz-adv-x="690" 
d="M631 345v-345h-117l-15 129h-1q-25 -68 -74 -104.5t-121 -36.5q-81 0 -140 42.5t-90.5 121.5t-31.5 187q0 114 40.5 198.5t112.5 129.5t165 45q106 0 177.5 -55.5t93.5 -158.5l-150 -38q-11 62 -41.5 92t-77.5 30q-72 0 -110.5 -64t-38.5 -179q0 -112 37 -169t108 -57
q51 0 85.5 32.5t40.5 100.5h-145v99h293zM283 907h143v-134h-143v134z" />
    <glyph glyph-name="gdotaccent" unicode="&#x121;" horiz-adv-x="549" 
d="M347 583h-143v134h143v-134zM466 493q-14 -16 -11 -46q32 -43 32 -105q0 -85 -57.5 -132.5t-161.5 -47.5q-59 0 -104 15q-19 -15 -19 -35t12.5 -29t40.5 -9h170q86 0 133.5 -35.5t47.5 -102.5q0 -85 -79.5 -131.5t-211.5 -46.5q-127 0 -183.5 27.5t-56.5 80.5q0 31 22 52
t59 30v1q-34 11 -52.5 35t-18.5 58q0 84 106 118q-42 23 -64.5 61.5t-22.5 90.5q0 85 58.5 132.5t162.5 47.5q99 0 157 -44q-4 16 -4 33q0 41 25.5 66.5t68.5 25.5q40 0 70 -22l-33 -93q-14 11 -25.5 16t-24.5 5q-22 0 -36 -16zM325 275q21 24 21 67t-21 66.5t-58 23.5
t-57.5 -23.5t-20.5 -66.5t20.5 -67t57.5 -24t58 24zM161 -30q-15 0 -22 1q-23 -19 -23 -46q0 -33 34.5 -49.5t107.5 -16.5q76 0 115 17t39 49q0 45 -68 45h-183z" />
    <glyph glyph-name="uni0122" unicode="&#x122;" horiz-adv-x="690" 
d="M631 345v-345h-117l-15 129h-1q-25 -68 -74 -104.5t-121 -36.5q-81 0 -140 42.5t-90.5 121.5t-31.5 187q0 114 40.5 198.5t112.5 129.5t165 45q106 0 177.5 -55.5t93.5 -158.5l-150 -38q-11 62 -41.5 92t-77.5 30q-72 0 -110.5 -64t-38.5 -179q0 -112 37 -169t108 -57
q51 0 85.5 32.5t40.5 100.5h-145v99h293zM420 -59v-129q-17 -41 -39 -75t-55 -72l-55 47q39 28 62.5 50.5t42.5 51.5h-94v127h138z" />
    <glyph glyph-name="uni0123" unicode="&#x123;" horiz-adv-x="549" 
d="M347 574h-138v129q17 41 39.5 75t55.5 72l54 -47q-39 -28 -62.5 -50.5t-42.5 -51.5h94v-127zM466 493q-14 -16 -11 -46q32 -43 32 -105q0 -85 -57.5 -132.5t-161.5 -47.5q-59 0 -104 15q-19 -15 -19 -35t12.5 -29t40.5 -9h170q86 0 133.5 -36t47.5 -104q0 -84 -79.5 -130
t-211.5 -46q-127 0 -183.5 27.5t-56.5 80.5q0 31 22 52t59 30v1q-34 11 -52.5 35t-18.5 58q0 84 106 118q-42 23 -64.5 61.5t-22.5 90.5q0 85 58.5 132.5t162.5 47.5q99 0 157 -44q-4 16 -4 33q0 41 25.5 66.5t68.5 25.5q40 0 70 -22l-33 -93q-14 11 -25.5 16t-24.5 5
q-22 0 -36 -16zM325 275q21 24 21 67t-21 66.5t-58 23.5t-57.5 -23.5t-20.5 -66.5t20.5 -67t57.5 -24t58 24zM161 -30q-15 0 -22 1q-23 -19 -23 -46q0 -33 34.5 -49.5t107.5 -16.5q76 0 115 17t39 49q0 45 -68 45h-183z" />
    <glyph glyph-name="Hcircumflex" unicode="&#x124;" horiz-adv-x="693" 
d="M621 700v-700h-165v313h-219v-313h-165v700h165v-275h219v275h165zM401 770l-55 59l-56 -59h-82l88 133h99l88 -133h-82z" />
    <glyph glyph-name="hcircumflex" unicode="&#x125;" horiz-adv-x="586" 
d="M487 476.5q40 -45.5 40 -130.5v-346h-154v320q0 37 -16.5 57t-45.5 20q-43 0 -68 -39t-28 -121v-237h-153v740h153v-345h2q18 58 58 92.5t102 34.5q70 0 110 -45.5zM193 810l-55 59l-56 -59h-82l88 133h99l88 -133h-82z" />
    <glyph glyph-name="Hbar" unicode="&#x126;" horiz-adv-x="740" 
d="M740 540h-96v-540h-164v313h-220v-313h-165v540h-95v64h95v96h165v-96h220v96h164v-96h96v-64zM480 540h-220v-115h220v115z" />
    <glyph glyph-name="hbar" unicode="&#x127;" horiz-adv-x="586" 
d="M487 476.5q40 -45.5 40 -130.5v-346h-154v320q0 37 -16.5 57t-45.5 20q-43 0 -68 -39t-28 -121v-237h-153v594h-90v58h90v88h153v-88h169v-58h-169v-199h2q18 58 58 92.5t102 34.5q70 0 110 -45.5z" />
    <glyph glyph-name="Itilde" unicode="&#x128;" horiz-adv-x="308" 
d="M72 700h165v-700h-165v700zM-13 787q5 59 29.5 91t69.5 32q25 0 45 -8.5t42 -28.5l23 -21q11 -10 18 -13.5t15 -3.5q16 0 23.5 16.5t9.5 58.5l61 -24q-4 -58 -29 -90.5t-70 -32.5q-24 0 -44.5 9t-41.5 29l-23 21q-12 10 -19 13.5t-15 3.5q-16 0 -23.5 -17t-8.5 -59z" />
    <glyph glyph-name="itilde" unicode="&#x129;" horiz-adv-x="277" 
d="M62 510h153v-510h-153v510zM-29 597q5 59 29.5 91t69.5 32q25 0 45 -8.5t42 -28.5l23 -21q11 -10 18 -13.5t15 -3.5q16 0 23.5 16.5t9.5 58.5l61 -24q-4 -58 -29 -90.5t-70 -32.5q-24 0 -44.5 9t-41.5 29l-23 21q-12 10 -19 13.5t-15 3.5q-16 0 -23.5 -17t-8.5 -59z" />
    <glyph glyph-name="Imacron" unicode="&#x12a;" horiz-adv-x="308" 
d="M72 700h165v-700h-165v700zM9 877h290v-79h-290v79z" />
    <glyph glyph-name="imacron" unicode="&#x12b;" horiz-adv-x="277" 
d="M62 510h153v-510h-153v510zM-7 687h290v-79h-290v79z" />
    <glyph glyph-name="Ibreve" unicode="&#x12c;" horiz-adv-x="308" 
d="M72 700h165v-700h-165v700zM59.5 808q-35.5 33 -37.5 91h81q2 -26 15.5 -40.5t38.5 -14.5t38.5 14.5t15.5 40.5h81q-1 -58 -37 -91t-98 -33t-97.5 33z" />
    <glyph glyph-name="ibreve" unicode="&#x12d;" horiz-adv-x="277" 
d="M62 510h153v-510h-153v510zM43.5 618q-35.5 33 -37.5 91h81q2 -26 15.5 -40.5t38.5 -14.5t38.5 14.5t15.5 40.5h81q-1 -58 -37 -91t-98 -33t-97.5 33z" />
    <glyph glyph-name="Iogonek" unicode="&#x12e;" horiz-adv-x="308" 
d="M172.5 -127.5q14.5 -14.5 44.5 -14.5q19 0 49 8l-7 -61q-45 -13 -81 -13q-54 0 -82 28t-28 74q0 31 19 58.5t53 47.5h-68v700h165v-700q-42 -22 -60.5 -43t-18.5 -46q0 -24 14.5 -38.5z" />
    <glyph glyph-name="iogonek" unicode="&#x12f;" horiz-adv-x="277" 
d="M209 583h-143v134h144zM151 -127.5q14 -14.5 44 -14.5q19 0 49 8l-7 -61q-45 -13 -80 -13q-55 0 -83 28t-28 74q0 31 19 58.5t53 47.5h-56v510h153v-510q-41 -22 -59.5 -43t-18.5 -46q0 -24 14 -38.5z" />
    <glyph glyph-name="Idotaccent" unicode="&#x130;" horiz-adv-x="308" 
d="M72 700h165v-700h-165v700zM83 907h143v-134h-143v134z" />
    <glyph glyph-name="dotlessi" unicode="&#x131;" horiz-adv-x="277" 
d="M62 510h153v-510h-153v510z" />
    <glyph glyph-name="IJ" unicode="&#x132;" horiz-adv-x="891" 
d="M72 700h165v-700h-165v700zM402 47q-59 59 -59 176v13l142 29v-41q0 -114 87 -114q85 0 85 112v478h165v-473q0 -116 -65 -177.5t-183 -61.5q-113 0 -172 59z" />
    <glyph glyph-name="ij" unicode="&#x133;" horiz-adv-x="549" 
d="M58 724h161v-143h-161v143zM62 510h153v-510h-153v510zM333 724h161v-143h-161v143zM207 -180l34 94q22 -15 45 -15q51 0 51 63v548h153v-543q0 -94 -48.5 -136.5t-120.5 -42.5q-68 0 -114 32z" />
    <glyph glyph-name="Jcircumflex" unicode="&#x134;" horiz-adv-x="582" 
d="M94 47q-59 59 -59 176v13l142 29v-41q0 -114 87 -114q85 0 85 112v478h165v-473q0 -116 -65 -177.5t-183 -61.5q-113 0 -172 59zM487 770l-55 59l-56 -59h-82l88 133h99l88 -133h-82z" />
    <glyph glyph-name="jcircumflex" unicode="&#x135;" horiz-adv-x="275" 
d="M-71 -180l35 94q21 -15 45 -15q50 0 50 63v548h154v-543q0 -94 -48.5 -136.5t-121.5 -42.5q-66 0 -114 32zM191 580l-55 59l-56 -59h-82l88 133h99l88 -133h-82z" />
    <glyph glyph-name="uni0136" unicode="&#x136;" horiz-adv-x="665" 
d="M321 333l-84 -102v-231h-165v700h165v-324l246 324h157l-200 -266l211 -434h-182zM403 -59v-129q-17 -41 -39 -75t-55 -72l-55 47q39 28 62.5 50.5t42.5 51.5h-94v127h138z" />
    <glyph glyph-name="uni0137" unicode="&#x137;" horiz-adv-x="555" 
d="M376 319l163 -319h-161l-108 220l-55 -63v-157h-153v740h153v-428l169 198h156zM345 -59v-129q-17 -41 -39 -75t-55 -72l-55 47q39 28 62.5 50.5t42.5 51.5h-94v127h138z" />
    <glyph glyph-name="kgreenlandic" unicode="&#x138;" horiz-adv-x="555" 
d="M376 319l163 -319h-161l-108 220l-55 -63v-157h-153v510h153v-198l169 198h156z" />
    <glyph glyph-name="Lacute" unicode="&#x139;" horiz-adv-x="556" 
d="M525 123v-123h-453v700h165v-577h288zM184 763h-64l32 147h138z" />
    <glyph glyph-name="lacute" unicode="&#x13a;" horiz-adv-x="275" 
d="M62 740h153v-740h-153v740zM168 803h-64l32 147h138z" />
    <glyph glyph-name="uni013B" unicode="&#x13b;" horiz-adv-x="556" 
d="M525 123v-123h-453v700h165v-577h288zM372 -59v-129q-17 -41 -39 -75t-55 -72l-55 47q39 28 62.5 50.5t42.5 51.5h-94v127h138z" />
    <glyph glyph-name="uni013C" unicode="&#x13c;" horiz-adv-x="275" 
d="M62 740h153v-740h-153v740zM208 -59v-129q-17 -41 -39 -75t-55 -72l-55 47q39 28 62.5 50.5t42.5 51.5h-94v127h138z" />
    <glyph glyph-name="Lcaron" unicode="&#x13d;" horiz-adv-x="556" 
d="M525 123v-123h-453v700h165v-577h288zM534 700v-129q-17 -41 -39 -75t-55 -72l-55 47q40 29 63 51t42 50h-94v128h138z" />
    <glyph glyph-name="lcaron" unicode="&#x13e;" horiz-adv-x="423" 
d="M62 740h153v-740h-153v740zM423 740v-129q-17 -41 -39 -75t-55 -72l-55 47q40 29 63 51t42 50h-94v128h138z" />
    <glyph glyph-name="Ldot" unicode="&#x13f;" horiz-adv-x="556" 
d="M525 123v-123h-453v700h165v-577h288zM325 429h155v-157h-155v157z" />
    <glyph glyph-name="ldot" unicode="&#x140;" horiz-adv-x="460" 
d="M62 740h153v-740h-153v740zM291 429h155v-157h-155v157z" />
    <glyph glyph-name="Lslash" unicode="&#x141;" horiz-adv-x="587" 
d="M556 123v-123h-453v284l-103 -32v65l103 32v351h165v-300l153 48v-65l-153 -48v-212h288z" />
    <glyph glyph-name="lslash" unicode="&#x142;" horiz-adv-x="366" 
d="M366 409l-106 -41v-368h-154v310l-106 -41v63l106 41v367h154v-309l106 41v-63z" />
    <glyph glyph-name="Nacute" unicode="&#x143;" horiz-adv-x="711" 
d="M639 700v-700h-169l-272 512v-512h-126v700h197l244 -457v457h126zM385 763h-64l32 147h138z" />
    <glyph glyph-name="nacute" unicode="&#x144;" horiz-adv-x="586" 
d="M487 476.5q40 -45.5 40 -130.5v-346h-154v326q0 37 -16.5 57t-46.5 20q-42 0 -67.5 -38.5t-27.5 -118.5v-246h-153v510h148v-120h2q19 61 61 96.5t104 35.5q70 0 110 -45.5zM324 573h-64l32 147h138z" />
    <glyph glyph-name="uni0145" unicode="&#x145;" horiz-adv-x="711" 
d="M639 700v-700h-169l-272 512v-512h-126v700h197l244 -457v457h126zM425 -59v-129q-17 -41 -39 -75t-55 -72l-55 47q39 28 62.5 50.5t42.5 51.5h-94v127h138z" />
    <glyph glyph-name="uni0146" unicode="&#x146;" horiz-adv-x="586" 
d="M487 476.5q40 -45.5 40 -130.5v-346h-154v326q0 37 -16.5 57t-46.5 20q-42 0 -67.5 -38.5t-27.5 -118.5v-246h-153v510h148v-120h2q19 61 61 96.5t104 35.5q70 0 110 -45.5zM364 -59v-129q-17 -41 -39 -75t-55 -72l-55 47q39 28 62.5 50.5t42.5 51.5h-94v127h138z" />
    <glyph glyph-name="Ncaron" unicode="&#x147;" horiz-adv-x="711" 
d="M639 700v-700h-169l-272 512v-512h-126v700h197l244 -457v457h126zM492 903l-88 -133h-99l-88 133h82l56 -59l55 59h82z" />
    <glyph glyph-name="ncaron" unicode="&#x148;" horiz-adv-x="586" 
d="M487 476.5q40 -45.5 40 -130.5v-346h-154v326q0 37 -16.5 57t-46.5 20q-42 0 -67.5 -38.5t-27.5 -118.5v-246h-153v510h148v-120h2q19 61 61 96.5t104 35.5q70 0 110 -45.5zM431 713l-88 -133h-99l-88 133h82l56 -59l55 59h82z" />
    <glyph glyph-name="Eng" unicode="&#x14a;" horiz-adv-x="711" 
d="M639 700v-729q0 -85 -50.5 -134t-130.5 -49q-102 0 -162 72l66 97q18 -30 38.5 -42t44.5 -12q27 0 45 18.5t18 49.5v32l-310 523v-526h-126v700h197l244 -404v404h126z" />
    <glyph glyph-name="eng" unicode="&#x14b;" horiz-adv-x="586" 
d="M487 476.5q40 -45.5 40 -130.5v-379q0 -94 -48.5 -136.5t-120.5 -42.5q-68 0 -114 32l34 94q23 -15 45 -15q50 0 50 63v364q0 37 -16.5 57t-46.5 20q-42 0 -67.5 -38.5t-27.5 -118.5v-246h-153v510h148v-120h2q19 61 61 96.5t104 35.5q70 0 110 -45.5z" />
    <glyph glyph-name="Omacron" unicode="&#x14c;" horiz-adv-x="720" 
d="M191 32q-72 44 -111 126t-39 192t39 192t111 126t169 44q98 0 170 -44t110.5 -126t38.5 -192t-38.5 -192t-110.5 -126t-170 -44q-97 0 -169 44zM469 181q38 59 38 169t-38 169.5t-109 59.5t-109.5 -59.5t-38.5 -169.5t38.5 -169t109.5 -59t109 59zM215 877h290v-79h-290
v79z" />
    <glyph glyph-name="omacron" unicode="&#x14d;" horiz-adv-x="574" 
d="M104 59q-67 71 -67 196q0 124 67 195.5t183 71.5t183 -71.5t67 -195.5q0 -125 -67 -196t-183 -71t-183 71zM357 142q25 39 25 113q0 73 -25 112.5t-70 39.5q-46 0 -71 -39.5t-25 -112.5q0 -74 25 -113t71 -39q45 0 70 39zM142 687h290v-79h-290v79z" />
    <glyph glyph-name="Obreve" unicode="&#x14e;" horiz-adv-x="720" 
d="M191 32q-72 44 -111 126t-39 192t39 192t111 126t169 44q98 0 170 -44t110.5 -126t38.5 -192t-38.5 -192t-110.5 -126t-170 -44q-97 0 -169 44zM469 181q38 59 38 169t-38 169.5t-109 59.5t-109.5 -59.5t-38.5 -169.5t38.5 -169t109.5 -59t109 59zM264.5 808
q-35.5 33 -37.5 91h81q2 -26 15.5 -40.5t38.5 -14.5t38.5 14.5t15.5 40.5h81q-1 -58 -37 -91t-98 -33t-97.5 33z" />
    <glyph glyph-name="obreve" unicode="&#x14f;" horiz-adv-x="574" 
d="M104 59q-67 71 -67 196q0 124 67 195.5t183 71.5t183 -71.5t67 -195.5q0 -125 -67 -196t-183 -71t-183 71zM357 142q25 39 25 113q0 73 -25 112.5t-70 39.5q-46 0 -71 -39.5t-25 -112.5q0 -74 25 -113t71 -39q45 0 70 39zM191.5 618q-35.5 33 -37.5 91h81
q2 -26 15.5 -40.5t38.5 -14.5t38.5 14.5t15.5 40.5h81q-1 -58 -37 -91t-98 -33t-97.5 33z" />
    <glyph glyph-name="Ohungarumlaut" unicode="&#x150;" horiz-adv-x="720" 
d="M191 32q-72 44 -111 126t-39 192t39 192t111 126t169 44q98 0 170 -44t110.5 -126t38.5 -192t-38.5 -192t-110.5 -126t-170 -44q-97 0 -169 44zM469 181q38 59 38 169t-38 169.5t-109 59.5t-109.5 -59.5t-38.5 -169.5t38.5 -169t109.5 -59t109 59zM301 763h-64l32 147
h138zM475 763h-64l32 147h138z" />
    <glyph glyph-name="ohungarumlaut" unicode="&#x151;" horiz-adv-x="574" 
d="M104 59q-67 71 -67 196q0 124 67 195.5t183 71.5t183 -71.5t67 -195.5q0 -125 -67 -196t-183 -71t-183 71zM357 142q25 39 25 113q0 73 -25 112.5t-70 39.5q-46 0 -71 -39.5t-25 -112.5q0 -74 25 -113t71 -39q45 0 70 39zM228 573h-64l32 147h138zM402 573h-64l32 147
h138z" />
    <glyph glyph-name="OE" unicode="&#x152;" horiz-adv-x="934" 
d="M121.5 87.5q-80.5 87.5 -80.5 262.5t80.5 262.5t230.5 87.5h536v-121h-281v-160h191v-94h-191v-204h291v-121h-546q-150 0 -230.5 87.5zM442 123v454h-75q-82 0 -121.5 -56t-39.5 -171t39.5 -171t121.5 -56h75z" />
    <glyph glyph-name="oe" unicode="&#x153;" horiz-adv-x="888" 
d="M103.5 59q-66.5 71 -66.5 196q0 124 66.5 195.5t180.5 71.5q112 0 178 -87q64 87 171 87q105 0 161 -63.5t56 -168.5q0 -23 -3 -49h-308q1 -70 25.5 -108.5t73.5 -38.5q37 0 61.5 22t38.5 66l113 -49q-25 -68 -82 -106.5t-142 -38.5q-55 0 -96.5 20t-72.5 63
q-63 -83 -174 -83q-114 0 -180.5 71zM712 310q0 52 -19.5 80.5t-59.5 28.5t-63.5 -28.5t-28.5 -80.5h171zM357 142q25 39 25 113q0 73 -25 112.5t-70 39.5q-46 0 -71 -39.5t-25 -112.5q0 -74 25 -113t71 -39q45 0 70 39z" />
    <glyph glyph-name="Racute" unicode="&#x154;" 
d="M598.5 72.5q8.5 -34.5 36.5 -63.5v-9h-183q-13 28 -18.5 59.5t-5.5 73.5l1 34l2 46q2 51 -17.5 71.5t-68.5 20.5h-108v-305h-165v700h303q116 0 180 -46t64 -135q0 -68 -43.5 -111t-117.5 -55v-2q66 -9 96 -46.5t32 -105.5l2 -41q2 -51 10.5 -85.5zM429 428.5
q26 23.5 26 67.5q0 41 -26 62t-76 21h-116v-174h116q50 0 76 23.5zM360 763h-64l32 147h138z" />
    <glyph glyph-name="racute" unicode="&#x155;" horiz-adv-x="461" 
d="M444 487l-58 -124q-20 17 -36 24.5t-34 7.5q-97 0 -101 -185v-210h-153v510h147v-136h2q16 80 52 114t90 34q47 0 91 -35zM263 573h-64l32 147h138z" />
    <glyph glyph-name="uni0156" unicode="&#x156;" 
d="M598.5 72.5q8.5 -34.5 36.5 -63.5v-9h-183q-13 28 -18.5 59.5t-5.5 73.5l1 34l2 46q2 51 -17.5 71.5t-68.5 20.5h-108v-305h-165v700h303q116 0 180 -46t64 -135q0 -68 -43.5 -111t-117.5 -55v-2q66 -9 96 -46.5t32 -105.5l2 -41q2 -51 10.5 -85.5zM429 428.5
q26 23.5 26 67.5q0 41 -26 62t-76 21h-116v-174h116q50 0 76 23.5zM399 -59v-129q-17 -41 -39 -75t-55 -72l-55 47q39 28 62.5 50.5t42.5 51.5h-94v127h138z" />
    <glyph glyph-name="uni0157" unicode="&#x157;" horiz-adv-x="461" 
d="M444 487l-58 -124q-20 17 -36 24.5t-34 7.5q-97 0 -101 -185v-210h-153v510h147v-136h2q16 80 52 114t90 34q47 0 91 -35zM208 -59v-129q-17 -41 -39 -75t-55 -72l-55 47q39 28 62.5 50.5t42.5 51.5h-94v127h138z" />
    <glyph glyph-name="Rcaron" unicode="&#x158;" 
d="M598.5 72.5q8.5 -34.5 36.5 -63.5v-9h-183q-13 28 -18.5 59.5t-5.5 73.5l1 34l2 46q2 51 -17.5 71.5t-68.5 20.5h-108v-305h-165v700h303q116 0 180 -46t64 -135q0 -68 -43.5 -111t-117.5 -55v-2q66 -9 96 -46.5t32 -105.5l2 -41q2 -51 10.5 -85.5zM429 428.5
q26 23.5 26 67.5q0 41 -26 62t-76 21h-116v-174h116q50 0 76 23.5zM467 903l-88 -133h-99l-88 133h82l56 -59l55 59h82z" />
    <glyph glyph-name="rcaron" unicode="&#x159;" horiz-adv-x="461" 
d="M444 487l-58 -124q-20 17 -36 24.5t-34 7.5q-97 0 -101 -185v-210h-153v510h147v-136h2q16 80 52 114t90 34q47 0 91 -35zM370 713l-88 -133h-99l-88 133h82l56 -59l55 59h82z" />
    <glyph glyph-name="Sacute" unicode="&#x15a;" horiz-adv-x="619" 
d="M125.5 34.5q-70.5 46.5 -95.5 128.5l114 60q18 -61 59.5 -93t101.5 -32q51 0 81.5 24t30.5 64q0 35 -22.5 56.5t-69.5 31.5l-80 17q-95 21 -146.5 73.5t-51.5 135.5q0 66 33 114t91 73t132 25q97 0 163.5 -40t94.5 -115l-116 -49q-37 99 -139 99q-48 0 -76.5 -21
t-28.5 -56q0 -31 21.5 -49.5t63.5 -26.5l79 -17q215 -49 215 -224q0 -65 -35.5 -116.5t-98 -80t-141.5 -28.5q-109 0 -179.5 46.5zM336 763h-64l32 147h138z" />
    <glyph glyph-name="sacute" unicode="&#x15b;" horiz-adv-x="496" 
d="M112 19.5q-55 31.5 -80 88.5l86 57q36 -88 127 -88q38 0 59.5 15.5t21.5 43.5q0 23 -15.5 36.5t-49.5 20.5l-65 12q-75 14 -112.5 52t-37.5 103q0 50 27 87t72.5 56t100.5 19q64 0 117 -26.5t78 -73.5l-84 -52q-35 66 -113 66q-34 0 -52.5 -14.5t-18.5 -36.5
q0 -20 14 -31t45 -16l63 -12q166 -30 166 -164q0 -81 -60.5 -127.5t-155.5 -46.5q-78 0 -133 31.5zM278 573h-64l32 147h138z" />
    <glyph glyph-name="Scircumflex" unicode="&#x15c;" horiz-adv-x="619" 
d="M125.5 34.5q-70.5 46.5 -95.5 128.5l114 60q18 -61 59.5 -93t101.5 -32q51 0 81.5 24t30.5 64q0 35 -22.5 56.5t-69.5 31.5l-80 17q-95 21 -146.5 73.5t-51.5 135.5q0 66 33 114t91 73t132 25q97 0 163.5 -40t94.5 -115l-116 -49q-37 99 -139 99q-48 0 -76.5 -21
t-28.5 -56q0 -31 21.5 -49.5t63.5 -26.5l79 -17q215 -49 215 -224q0 -65 -35.5 -116.5t-98 -80t-141.5 -28.5q-109 0 -179.5 46.5zM361 770l-55 59l-56 -59h-82l88 133h99l88 -133h-82z" />
    <glyph glyph-name="scircumflex" unicode="&#x15d;" horiz-adv-x="496" 
d="M112 19.5q-55 31.5 -80 88.5l86 57q36 -88 127 -88q38 0 59.5 15.5t21.5 43.5q0 23 -15.5 36.5t-49.5 20.5l-65 12q-75 14 -112.5 52t-37.5 103q0 50 27 87t72.5 56t100.5 19q64 0 117 -26.5t78 -73.5l-84 -52q-35 66 -113 66q-34 0 -52.5 -14.5t-18.5 -36.5
q0 -20 14 -31t45 -16l63 -12q166 -30 166 -164q0 -81 -60.5 -127.5t-155.5 -46.5q-78 0 -133 31.5zM303 580l-55 59l-56 -59h-82l88 133h99l88 -133h-82z" />
    <glyph glyph-name="Scedilla" unicode="&#x15e;" horiz-adv-x="619" 
d="M548 100.5q-32 -49.5 -89.5 -78.5t-131.5 -33l-44 -60q30 9 55 9q44 0 71.5 -22t27.5 -54q0 -45 -40 -68t-103 -23q-75 0 -131 37l22 54q49 -35 109 -35q24 0 38 9.5t14 25.5q0 13 -11.5 21t-31.5 8q-29 0 -64 -16l-30 36l58 79q-93 7 -154 53t-83 120l114 60
q18 -61 59.5 -93t101.5 -32q51 0 81.5 24t30.5 64q0 35 -22.5 56.5t-69.5 31.5l-80 17q-95 21 -146.5 73.5t-51.5 135.5q0 66 33 114t91 73t132 25q97 0 163.5 -40t94.5 -115l-116 -49q-37 99 -139 99q-48 0 -76.5 -21t-28.5 -56q0 -31 21.5 -49.5t63.5 -26.5l79 -17
q215 -49 215 -224q0 -63 -32 -112.5z" />
    <glyph glyph-name="scedilla" unicode="&#x15f;" horiz-adv-x="496" 
d="M407.5 40q-53.5 -46 -139.5 -51l-44 -60q30 9 55 9q44 0 71.5 -22t27.5 -54q0 -45 -40 -68t-103 -23q-75 0 -131 37l22 54q49 -35 109 -35q24 0 38 9.5t14 25.5q0 13 -11.5 21t-31.5 8q-29 0 -64 -16l-30 36l58 79q-64 7 -109 37.5t-67 80.5l86 57q36 -88 127 -88
q38 0 59.5 15.5t21.5 43.5q0 23 -15.5 36.5t-49.5 20.5l-65 12q-75 14 -112.5 52t-37.5 103q0 50 27 87t72.5 56t100.5 19q64 0 117 -26.5t78 -73.5l-84 -52q-35 66 -113 66q-34 0 -52.5 -14.5t-18.5 -36.5q0 -20 14 -31t45 -16l63 -12q166 -30 166 -164q0 -76 -53.5 -122z
" />
    <glyph glyph-name="Scaron" unicode="&#x160;" horiz-adv-x="619" 
d="M125.5 34.5q-70.5 46.5 -95.5 128.5l114 60q18 -61 59.5 -93t101.5 -32q51 0 81.5 24t30.5 64q0 35 -22.5 56.5t-69.5 31.5l-80 17q-95 21 -146.5 73.5t-51.5 135.5q0 66 33 114t91 73t132 25q97 0 163.5 -40t94.5 -115l-116 -49q-37 99 -139 99q-48 0 -76.5 -21
t-28.5 -56q0 -31 21.5 -49.5t63.5 -26.5l79 -17q215 -49 215 -224q0 -65 -35.5 -116.5t-98 -80t-141.5 -28.5q-109 0 -179.5 46.5zM443 903l-88 -133h-99l-88 133h82l56 -59l55 59h82z" />
    <glyph glyph-name="scaron" unicode="&#x161;" horiz-adv-x="496" 
d="M112 19.5q-55 31.5 -80 88.5l86 57q36 -88 127 -88q38 0 59.5 15.5t21.5 43.5q0 23 -15.5 36.5t-49.5 20.5l-65 12q-75 14 -112.5 52t-37.5 103q0 50 27 87t72.5 56t100.5 19q64 0 117 -26.5t78 -73.5l-84 -52q-35 66 -113 66q-34 0 -52.5 -14.5t-18.5 -36.5
q0 -20 14 -31t45 -16l63 -12q166 -30 166 -164q0 -81 -60.5 -127.5t-155.5 -46.5q-78 0 -133 31.5zM385 713l-88 -133h-99l-88 133h82l56 -59l55 59h82z" />
    <glyph glyph-name="uni0162" unicode="&#x162;" horiz-adv-x="587" 
d="M325 0l-52 -71q30 9 55 9q44 0 71.5 -22t27.5 -54q0 -45 -40 -68t-103 -23q-75 0 -131 37l22 54q47 -35 109 -35q24 0 38 9.5t14 25.5q0 13 -11.5 21t-31.5 8q-29 0 -64 -16l-30 36l66 89h-54v573h-180v127h525v-127h-180v-573h-51z" />
    <glyph glyph-name="uni0163" unicode="&#x163;" horiz-adv-x="444" 
d="M284 -62q44 0 71 -22t27 -54q0 -45 -40 -68t-103 -23q-75 0 -131 37l22 54q49 -35 109 -35q24 0 38.5 9.5t14.5 25.5q0 13 -12 21t-32 8q-29 0 -64 -16l-29 36l63 87q-89 30 -89 151v265h-96v96h96v143h153v-143h119v-96h-119v-259q0 -57 48 -57q17 0 32 5t34 16l24 -94
q-66 -37 -134 -37h-14l-44 -59q30 9 56 9z" />
    <glyph glyph-name="Tcaron" unicode="&#x164;" horiz-adv-x="587" 
d="M556 573h-180v-573h-165v573h-180v127h525v-127zM431 903l-88 -133h-99l-88 133h82l56 -59l55 59h82z" />
    <glyph glyph-name="tcaron" unicode="&#x165;" horiz-adv-x="444" 
d="M420 25q-66 -37 -134 -37q-157 0 -157 161v265h-96v96h96v143h153v-143h119v-96h-119v-259q0 -57 48 -57q17 0 32 5t34 16zM474 827v-129q-17 -41 -39 -75t-55 -72l-55 47q40 29 63 51t42 50h-94v128h138z" />
    <glyph glyph-name="Tbar" unicode="&#x166;" horiz-adv-x="587" 
d="M376 573v-193h134v-63h-134v-317h-165v317h-133v63h133v193h-180v127h525v-127h-180z" />
    <glyph glyph-name="tbar" unicode="&#x167;" horiz-adv-x="444" 
d="M420 25q-66 -37 -134 -37q-157 0 -157 161v99h-92v58h92v108h-96v96h96v143h153v-143h119v-96h-119v-108h113v-58h-113v-93q0 -57 48 -57q17 0 32 5t34 16z" />
    <glyph glyph-name="Utilde" unicode="&#x168;" horiz-adv-x="662" 
d="M136.5 56q-68.5 68 -68.5 203v441h165v-460q0 -61 28 -92.5t82 -31.5q53 0 81 31.5t28 92.5v460h142v-445q0 -132 -69 -199.5t-189 -67.5q-131 0 -199.5 68zM173 787q5 59 29.5 91t69.5 32q25 0 45 -8.5t42 -28.5l23 -21q11 -10 18 -13.5t15 -3.5q16 0 23.5 16.5
t9.5 58.5l61 -24q-4 -58 -29 -90.5t-70 -32.5q-24 0 -44.5 9t-41.5 29l-23 21q-12 10 -19 13.5t-15 3.5q-16 0 -23.5 -17t-8.5 -59z" />
    <glyph glyph-name="utilde" unicode="&#x169;" horiz-adv-x="586" 
d="M525 510v-510h-149v120h-1q-20 -61 -62 -96.5t-104 -35.5q-70 0 -110 45.5t-40 130.5v346h154v-326q0 -37 16.5 -57t46.5 -20q43 0 68.5 38t26.5 118v247h154zM127 597q5 59 29.5 91t69.5 32q25 0 45 -8.5t42 -28.5l23 -21q11 -10 18 -13.5t15 -3.5q16 0 23.5 16.5
t9.5 58.5l61 -24q-4 -58 -29 -90.5t-70 -32.5q-24 0 -44.5 9t-41.5 29l-23 21q-12 10 -19 13.5t-15 3.5q-16 0 -23.5 -17t-8.5 -59z" />
    <glyph glyph-name="Umacron" unicode="&#x16a;" horiz-adv-x="662" 
d="M136.5 56q-68.5 68 -68.5 203v441h165v-460q0 -61 28 -92.5t82 -31.5q53 0 81 31.5t28 92.5v460h142v-445q0 -132 -69 -199.5t-189 -67.5q-131 0 -199.5 68zM195 877h290v-79h-290v79z" />
    <glyph glyph-name="umacron" unicode="&#x16b;" horiz-adv-x="586" 
d="M525 510v-510h-149v120h-1q-20 -61 -62 -96.5t-104 -35.5q-70 0 -110 45.5t-40 130.5v346h154v-326q0 -37 16.5 -57t46.5 -20q43 0 68.5 38t26.5 118v247h154zM149 687h290v-79h-290v79z" />
    <glyph glyph-name="Ubreve" unicode="&#x16c;" horiz-adv-x="662" 
d="M136.5 56q-68.5 68 -68.5 203v441h165v-460q0 -61 28 -92.5t82 -31.5q53 0 81 31.5t28 92.5v460h142v-445q0 -132 -69 -199.5t-189 -67.5q-131 0 -199.5 68zM245.5 808q-35.5 33 -37.5 91h81q2 -26 15.5 -40.5t38.5 -14.5t38.5 14.5t15.5 40.5h81q-1 -58 -37 -91t-98 -33
t-97.5 33z" />
    <glyph glyph-name="ubreve" unicode="&#x16d;" horiz-adv-x="586" 
d="M525 510v-510h-149v120h-1q-20 -61 -62 -96.5t-104 -35.5q-70 0 -110 45.5t-40 130.5v346h154v-326q0 -37 16.5 -57t46.5 -20q43 0 68.5 38t26.5 118v247h154zM199.5 618q-35.5 33 -37.5 91h81q2 -26 15.5 -40.5t38.5 -14.5t38.5 14.5t15.5 40.5h81q-1 -58 -37 -91
t-98 -33t-97.5 33z" />
    <glyph glyph-name="Uring" unicode="&#x16e;" horiz-adv-x="662" 
d="M136.5 56q-68.5 68 -68.5 203v441h165v-460q0 -61 28 -92.5t82 -31.5q53 0 81 31.5t28 92.5v460h142v-445q0 -132 -69 -199.5t-189 -67.5q-131 0 -199.5 68zM272.5 770q-27.5 26 -27.5 67t27.5 66.5t69.5 25.5q40 0 67 -26t27 -66q0 -42 -26.5 -67.5t-67.5 -25.5
q-42 0 -69.5 26zM369.5 806.5q10.5 11.5 10.5 30.5q0 18 -10.5 29.5t-27.5 11.5q-18 0 -29.5 -11.5t-11.5 -29.5q0 -19 11.5 -30.5t29.5 -11.5q17 0 27.5 11.5z" />
    <glyph glyph-name="uring" unicode="&#x16f;" horiz-adv-x="586" 
d="M525 510v-510h-149v120h-1q-20 -61 -62 -96.5t-104 -35.5q-70 0 -110 45.5t-40 130.5v346h154v-326q0 -37 16.5 -57t46.5 -20q43 0 68.5 38t26.5 118v247h154zM226.5 580q-27.5 26 -27.5 67t27.5 66.5t69.5 25.5q40 0 67 -26t27 -66q0 -42 -26.5 -67.5t-67.5 -25.5
q-42 0 -69.5 26zM323.5 616.5q10.5 11.5 10.5 30.5q0 18 -10.5 29.5t-27.5 11.5q-18 0 -29.5 -11.5t-11.5 -29.5q0 -19 11.5 -30.5t29.5 -11.5q17 0 27.5 11.5z" />
    <glyph glyph-name="Uhungarumlaut" unicode="&#x170;" horiz-adv-x="662" 
d="M136.5 56q-68.5 68 -68.5 203v441h165v-460q0 -61 28 -92.5t82 -31.5q53 0 81 31.5t28 92.5v460h142v-445q0 -132 -69 -199.5t-189 -67.5q-131 0 -199.5 68zM282 763h-64l32 147h138zM456 763h-64l32 147h138z" />
    <glyph glyph-name="uhungarumlaut" unicode="&#x171;" horiz-adv-x="586" 
d="M525 510v-510h-149v120h-1q-20 -61 -62 -96.5t-104 -35.5q-70 0 -110 45.5t-40 130.5v346h154v-326q0 -37 16.5 -57t46.5 -20q43 0 68.5 38t26.5 118v247h154zM236 573h-64l32 147h138zM410 573h-64l32 147h138z" />
    <glyph glyph-name="Uogonek" unicode="&#x172;" horiz-adv-x="662" 
d="M417 -83q0 -27 15 -42.5t47 -15.5q21 0 46 7l-7 -61q-45 -13 -80 -13q-55 0 -83 28.5t-28 76.5q0 46 41 93q-20 -2 -32 -2q-131 0 -199.5 68t-68.5 203v441h165v-460q0 -61 28 -92.5t82 -31.5q53 0 81 31.5t28 92.5v460h142v-445q0 -77 -27.5 -132.5t-87.5 -102.5
q-62 -48 -62 -103z" />
    <glyph glyph-name="uogonek" unicode="&#x173;" horiz-adv-x="586" 
d="M460.5 -127.5q14.5 -14.5 44.5 -14.5q18 0 48 8l-7 -61q-45 -13 -80 -13q-55 0 -83 28t-28 74q0 31 19 58.5t53 47.5h-51v120h-1q-20 -61 -62 -96.5t-104 -35.5q-70 0 -110 45.5t-40 130.5v346h154v-326q0 -37 16.5 -57t46.5 -20q43 0 68.5 38t26.5 118v247h154v-510
q-42 -22 -60.5 -43t-18.5 -46q0 -24 14.5 -38.5z" />
    <glyph glyph-name="Wcircumflex" unicode="&#x174;" horiz-adv-x="916" 
d="M889 700l-159 -700h-167l-108 439l-112 -439h-165l-151 700h165l96 -497l127 497h117l122 -498l105 498h130zM515 770l-55 59l-56 -59h-82l88 133h99l88 -133h-82z" />
    <glyph glyph-name="wcircumflex" unicode="&#x175;" horiz-adv-x="756" 
d="M734 510l-124 -510h-145l-86 301l-89 -301h-144l-124 510h155l73 -328l98 328h97l96 -336l77 336h116zM451 580l-55 59l-56 -59h-82l88 133h99l88 -133h-82z" />
    <glyph glyph-name="Ycircumflex" unicode="&#x176;" horiz-adv-x="628" 
d="M396 269v-269h-165v265l-225 435h182l147 -293l151 293h136zM391 770l-55 59l-56 -59h-82l88 133h99l88 -133h-82z" />
    <glyph glyph-name="ycircumflex" unicode="&#x177;" horiz-adv-x="570" 
d="M551 510l-214 -565q-60 -157 -202 -157q-41 0 -73 13.5t-50 37.5l50 92q31 -39 73 -39q31 0 51 21t39 67l-199 530h165l113 -325l117 325h130zM358 580l-55 59l-56 -59h-82l88 133h99l88 -133h-82z" />
    <glyph glyph-name="Ydieresis" unicode="&#x178;" horiz-adv-x="628" 
d="M396 269v-269h-165v265l-225 435h182l147 -293l151 293h136zM175 899h125v-124h-125v124zM371 899h126v-124h-126v124z" />
    <glyph glyph-name="Zacute" unicode="&#x179;" horiz-adv-x="580" 
d="M535 598l-296 -476h296v-122h-498v106l296 473h-290v121h492v-102zM319 763h-64l32 147h138z" />
    <glyph glyph-name="zacute" unicode="&#x17a;" horiz-adv-x="480" 
d="M437 100v-100h-399v93l221 319h-213v98h389v-83l-225 -327h227zM271 573h-64l32 147h138z" />
    <glyph glyph-name="Zdotaccent" unicode="&#x17b;" horiz-adv-x="580" 
d="M535 598l-296 -476h296v-122h-498v106l296 473h-290v121h492v-102zM218 907h143v-134h-143v134z" />
    <glyph glyph-name="zdotaccent" unicode="&#x17c;" horiz-adv-x="480" 
d="M437 100v-100h-399v93l221 319h-213v98h389v-83l-225 -327h227zM169 717h143v-134h-143v134z" />
    <glyph glyph-name="Zcaron" unicode="&#x17d;" horiz-adv-x="580" 
d="M535 598l-296 -476h296v-122h-498v106l296 473h-290v121h492v-102zM426 903l-88 -133h-99l-88 133h82l56 -59l55 59h82z" />
    <glyph glyph-name="zcaron" unicode="&#x17e;" horiz-adv-x="480" 
d="M437 100v-100h-399v93l221 319h-213v98h389v-83l-225 -327h227zM378 713l-88 -133h-99l-88 133h82l56 -59l55 59h82z" />
    <glyph glyph-name="florin" unicode="&#x192;" horiz-adv-x="529" 
d="M374.5 577q-17.5 -20 -24.5 -64l-25 -144h125v-95h-142l-51 -296q-16 -93 -70.5 -141.5t-134.5 -48.5q-61 0 -107 27l44 103q21 -15 46 -15q29 0 46.5 19.5t24.5 62.5l50 289h-114v95h131l26 153q16 93 70.5 141.5t134.5 48.5q63 0 107 -27l-44 -103q-21 15 -46 15
q-29 0 -46.5 -20z" />
    <glyph glyph-name="uni01B5" unicode="&#x1b5;" horiz-adv-x="580" 
d="M535 598l-135 -217h113v-62h-151l-123 -197h296v-122h-498v106l133 213h-111v62h150l124 198h-290v121h492v-102z" />
    <glyph glyph-name="uni01B6" unicode="&#x1b6;" horiz-adv-x="480" 
d="M437 100v-100h-399v93l91 132h-74v59h115l89 128h-213v98h389v-83l-98 -143h84v-59h-125l-86 -125h227z" />
    <glyph glyph-name="AEacute" unicode="&#x1fc;" horiz-adv-x="860" 
d="M824 121v-121h-374l-45 158h-209l-45 -158h-137l218 700h582v-121h-365l49 -160h227v-94h-198l63 -204h234zM379 252l-78 277l-79 -277h157zM463 763h-64l32 147h138z" />
    <glyph glyph-name="aeacute" unicode="&#x1fd;" horiz-adv-x="829" 
d="M679 182l112 -49q-24 -68 -81 -106.5t-144 -38.5q-72 0 -123.5 27.5t-78.5 77.5q-23 -50 -67 -77.5t-102 -27.5q-75 0 -119.5 39t-44.5 102q0 56 30 90t74 50t104 27q41 7 61 15.5t28 23.5v20q0 30 -15.5 45.5t-42.5 15.5q-70 0 -98 -89l-119 41q24 71 82 112.5t141 41.5
q99 0 144 -61q28 30 67.5 45.5t85.5 15.5q106 0 162 -63t56 -169q0 -23 -3 -49h-308q2 -71 26.5 -109t72.5 -38q71 0 100 88zM510 390.5q-24 -28.5 -29 -80.5h171q0 109 -79 109q-39 0 -63 -28.5zM295.5 104q24.5 22 32.5 67v103h-1q-9 -16 -26 -27t-47 -19
q-37 -12 -57.5 -31t-20.5 -52q0 -30 17.5 -46.5t46.5 -16.5q31 0 55.5 22zM449 573h-64l32 147h138z" />
    <glyph glyph-name="uni0218" unicode="&#x218;" horiz-adv-x="619" 
d="M125.5 34.5q-70.5 46.5 -95.5 128.5l114 60q18 -61 59.5 -93t101.5 -32q51 0 81.5 24t30.5 64q0 35 -22.5 56.5t-69.5 31.5l-80 17q-95 21 -146.5 73.5t-51.5 135.5q0 66 33 114t91 73t132 25q97 0 163.5 -40t94.5 -115l-116 -49q-37 99 -139 99q-48 0 -76.5 -21
t-28.5 -56q0 -31 21.5 -49.5t63.5 -26.5l79 -17q215 -49 215 -224q0 -65 -35.5 -116.5t-98 -80t-141.5 -28.5q-109 0 -179.5 46.5zM373 -59v-129q-17 -41 -39 -75t-55 -72l-55 47q39 28 62.5 50.5t42.5 51.5h-94v127h138z" />
    <glyph glyph-name="uni0219" unicode="&#x219;" horiz-adv-x="496" 
d="M112 19.5q-55 31.5 -80 88.5l86 57q36 -88 127 -88q38 0 59.5 15.5t21.5 43.5q0 23 -15.5 36.5t-49.5 20.5l-65 12q-75 14 -112.5 52t-37.5 103q0 50 27 87t72.5 56t100.5 19q64 0 117 -26.5t78 -73.5l-84 -52q-35 66 -113 66q-34 0 -52.5 -14.5t-18.5 -36.5
q0 -20 14 -31t45 -16l63 -12q166 -30 166 -164q0 -81 -60.5 -127.5t-155.5 -46.5q-78 0 -133 31.5zM314 -59v-129q-17 -41 -39 -75t-55 -72l-55 47q39 28 62.5 50.5t42.5 51.5h-94v127h138z" />
    <glyph glyph-name="uni021A" unicode="&#x21a;" horiz-adv-x="587" 
d="M556 573h-180v-573h-165v573h-180v127h525v-127zM363 -59v-129q-17 -41 -39 -75t-55 -72l-55 47q39 28 62.5 50.5t42.5 51.5h-94v127h138z" />
    <glyph glyph-name="uni021B" unicode="&#x21b;" horiz-adv-x="444" 
d="M420 25q-66 -37 -134 -37q-157 0 -157 161v265h-96v96h96v143h153v-143h119v-96h-119v-259q0 -57 48 -57q17 0 32 5t34 16zM318 -59v-129q-17 -41 -39 -75t-55 -72l-55 47q39 28 62.5 50.5t42.5 51.5h-94v127h138z" />
    <glyph glyph-name="uni0237" unicode="&#x237;" horiz-adv-x="275" 
d="M-71 -180l35 94q21 -15 45 -15q50 0 50 63v548h154v-543q0 -94 -48.5 -136.5t-121.5 -42.5q-66 0 -114 32z" />
    <glyph glyph-name="circumflex" unicode="&#x2c6;" horiz-adv-x="401" 
d="M256 580l-55 59l-56 -59h-82l88 133h99l88 -133h-82z" />
    <glyph glyph-name="caron" unicode="&#x2c7;" horiz-adv-x="401" 
d="M338 713l-88 -133h-99l-88 133h82l56 -59l55 59h82z" />
    <glyph glyph-name="uni02C9" unicode="&#x2c9;" horiz-adv-x="416" 
d="M63 687h290v-79h-290v79z" />
    <glyph glyph-name="breve" unicode="&#x2d8;" horiz-adv-x="396" 
d="M100.5 618q-35.5 33 -37.5 91h81q2 -26 15.5 -40.5t38.5 -14.5t38.5 14.5t15.5 40.5h81q-1 -58 -37 -91t-98 -33t-97.5 33z" />
    <glyph glyph-name="dotaccent" unicode="&#x2d9;" horiz-adv-x="269" 
d="M63 717h143v-134h-143v134z" />
    <glyph glyph-name="ring" unicode="&#x2da;" horiz-adv-x="317" 
d="M90.5 580q-27.5 26 -27.5 67t27.5 66.5t69.5 25.5q40 0 67 -26t27 -66q0 -42 -26.5 -67.5t-67.5 -25.5q-42 0 -69.5 26zM187.5 616.5q10.5 11.5 10.5 30.5q0 18 -10.5 29.5t-27.5 11.5q-18 0 -29.5 -11.5t-11.5 -29.5q0 -19 11.5 -30.5t29.5 -11.5q17 0 27.5 11.5z" />
    <glyph glyph-name="ogonek" unicode="&#x2db;" horiz-adv-x="324" 
d="M173 -208q-54 0 -82 28t-28 74q0 43 35 77t92 54l42 -25q-41 -22 -60 -43t-19 -46q0 -24 14.5 -38.5t44.5 -14.5q19 0 49 8l-7 -61q-45 -13 -81 -13z" />
    <glyph glyph-name="tilde" unicode="&#x2dc;" horiz-adv-x="462" 
d="M63 597q5 59 29.5 91t69.5 32q25 0 45 -8.5t42 -28.5l23 -21q11 -10 18 -13.5t15 -3.5q16 0 23.5 16.5t9.5 58.5l61 -24q-4 -58 -29 -90.5t-70 -32.5q-24 0 -44.5 9t-41.5 29l-23 21q-12 10 -19 13.5t-15 3.5q-16 0 -23.5 -17t-8.5 -59z" />
    <glyph glyph-name="hungarumlaut" unicode="&#x2dd;" horiz-adv-x="477" 
d="M127 573h-64l32 147h138zM307 573h-64l32 147h138z" />
    <glyph glyph-name="gravecomb" unicode="&#x300;" horiz-adv-x="0" 
d="M-31 720l31 -147h-64l-106 147h139z" />
    <glyph glyph-name="acutecomb" unicode="&#x301;" horiz-adv-x="0" 
d="M-106 573h-64l32 147h138z" />
    <glyph glyph-name="uni0302" unicode="&#x302;" horiz-adv-x="0" 
d="M-82 580l-55 59l-56 -59h-82l88 133h99l88 -133h-82z" />
    <glyph glyph-name="tildecomb" unicode="&#x303;" horiz-adv-x="0" 
d="M-336 597q5 59 29.5 91t69.5 32q25 0 45 -8.5t42 -28.5l23 -21q11 -10 18 -13.5t15 -3.5q16 0 23.5 16.5t9.5 58.5l61 -24q-4 -58 -29 -90.5t-70 -32.5q-24 0 -44.5 9t-41.5 29l-23 21q-12 10 -19 13.5t-15 3.5q-16 0 -23.5 -17t-8.5 -59z" />
    <glyph glyph-name="uni0304" unicode="&#x304;" horiz-adv-x="0" 
d="M-290 687h290v-79h-290v79z" />
    <glyph glyph-name="uni0306" unicode="&#x306;" horiz-adv-x="0" 
d="M-232.5 618q-35.5 33 -37.5 91h81q2 -26 15.5 -40.5t38.5 -14.5t38.5 14.5t15.5 40.5h81q-1 -58 -37 -91t-98 -33t-97.5 33z" />
    <glyph glyph-name="uni0307" unicode="&#x307;" horiz-adv-x="0" 
d="M-143 717h143v-134h-143v134z" />
    <glyph glyph-name="uni0308" unicode="&#x308;" horiz-adv-x="0" 
d="M-322 709h125v-124h-125v124zM-126 709h126v-124h-126v124z" />
    <glyph glyph-name="uni030A" unicode="&#x30a;" horiz-adv-x="0" 
d="M-163.5 580q-27.5 26 -27.5 67t27.5 66.5t69.5 25.5q40 0 67 -26t27 -66q0 -42 -26.5 -67.5t-67.5 -25.5q-42 0 -69.5 26zM-66.5 616.5q10.5 11.5 10.5 30.5q0 18 -10.5 29.5t-27.5 11.5q-18 0 -29.5 -11.5t-11.5 -29.5q0 -19 11.5 -30.5t29.5 -11.5q17 0 27.5 11.5z" />
    <glyph glyph-name="uni030B" unicode="&#x30b;" horiz-adv-x="0" 
d="M-280 573h-64l32 147h138zM-106 573h-64l32 147h138z" />
    <glyph glyph-name="uni030C" unicode="&#x30c;" horiz-adv-x="0" 
d="M0 713l-88 -133h-99l-88 133h82l56 -59l55 59h82z" />
    <glyph glyph-name="uni0312" unicode="&#x312;" horiz-adv-x="0" 
d="M-62.5 752.5q-23.5 -22.5 -42.5 -51.5h94v-127h-138v129q18 42 39.5 76t54.5 71l55 -47q-39 -28 -62.5 -50.5z" />
    <glyph glyph-name="uni0326" unicode="&#x326;" horiz-adv-x="0" 
d="M0 -59v-129q-17 -41 -39 -75t-55 -72l-55 47q39 28 62.5 50.5t42.5 51.5h-94v127h138z" />
    <glyph glyph-name="uni0327" unicode="&#x327;" horiz-adv-x="0" 
d="M-98 -62q44 0 71 -22t27 -54q0 -45 -40 -68t-102 -23q-76 0 -132 37l22 54q49 -35 109 -35q24 0 38.5 9.5t14.5 25.5q0 13 -12 21t-32 8q-29 0 -64 -16l-29 36l75 103l51 -13l-53 -72q30 9 56 9z" />
    <glyph glyph-name="uni0328" unicode="&#x328;" horiz-adv-x="0" 
d="M-88 -208q-54 0 -82 28t-28 74q0 43 35 77t92 54l42 -25q-41 -22 -60 -43t-19 -46q0 -24 14.5 -38.5t44.5 -14.5q19 0 49 8l-7 -61q-45 -13 -81 -13z" />
    <glyph glyph-name="uni0394" unicode="&#x394;" horiz-adv-x="677" 
d="M618 83v-83h-559v83l190 617h182zM450 116l-118 433l-119 -433h237z" />
    <glyph glyph-name="uni03A9" unicode="&#x3a9;" horiz-adv-x="762" 
d="M712 104v-104h-287v195q52 29 80.5 79.5t28.5 117.5q0 87 -42.5 140.5t-110.5 53.5t-110.5 -53.5t-42.5 -140.5q0 -67 28 -117.5t80 -79.5v-195h-286v104h199v32q-82 33 -131 101t-49 165q0 95 41.5 165t113 107.5t157.5 37.5t157.5 -37.5t113 -107.5t41.5 -165
q0 -97 -49 -165t-131 -101v-32h199z" />
    <glyph glyph-name="uni03BC" unicode="&#x3bc;" horiz-adv-x="589" 
d="M527 510v-510h-148v120h-2q-20 -61 -60.5 -96t-101.5 -36v-188h-153v710h153v-326q0 -37 16.5 -57t46.5 -20q43 0 68 38t27 118v247h154z" />
    <glyph glyph-name="pi" unicode="&#x3c0;" horiz-adv-x="759" 
d="M710 401h-100v-401h-153v401h-155v-401h-153v401h-100v109h661v-109z" />
    <glyph glyph-name="uni0E3F" unicode="&#xe3f;" horiz-adv-x="618" 
d="M553 102q-29 -46 -83.5 -73.5t-129.5 -28.5v-97h-56v97h-212v700h212v99h56v-99h4q99 0 155.5 -44.5t56.5 -125.5q0 -53 -32.5 -94t-95.5 -56v-2q73 -11 113.5 -55t40.5 -117q0 -58 -29 -104zM284 590h-67v-172h67v172zM397 562.5q-20 21.5 -57 26.5v-170q37 5 57 26.5
t20 58.5t-20 58.5zM284 110v219h-67v-219h67zM407.5 145q23.5 27 23.5 74q0 48 -23.5 75.5t-67.5 32.5v-215q44 6 67.5 33z" />
    <glyph glyph-name="Wgrave" unicode="&#x1e80;" horiz-adv-x="916" 
d="M889 700l-159 -700h-167l-108 439l-112 -439h-165l-151 700h165l96 -497l127 497h117l122 -498l105 498h130zM461 910l31 -147h-64l-106 147h139z" />
    <glyph glyph-name="wgrave" unicode="&#x1e81;" horiz-adv-x="756" 
d="M734 510l-124 -510h-145l-86 301l-89 -301h-144l-124 510h155l73 -328l98 328h97l96 -336l77 336h116zM398 720l31 -147h-64l-106 147h139z" />
    <glyph glyph-name="Wacute" unicode="&#x1e82;" horiz-adv-x="916" 
d="M889 700l-159 -700h-167l-108 439l-112 -439h-165l-151 700h165l96 -497l127 497h117l122 -498l105 498h130zM490 763h-64l32 147h138z" />
    <glyph glyph-name="wacute" unicode="&#x1e83;" horiz-adv-x="756" 
d="M734 510l-124 -510h-145l-86 301l-89 -301h-144l-124 510h155l73 -328l98 328h97l96 -336l77 336h116zM426 573h-64l32 147h138z" />
    <glyph glyph-name="Wdieresis" unicode="&#x1e84;" horiz-adv-x="916" 
d="M889 700l-159 -700h-167l-108 439l-112 -439h-165l-151 700h165l96 -497l127 497h117l122 -498l105 498h130zM299 899h125v-124h-125v124zM495 899h126v-124h-126v124z" />
    <glyph glyph-name="wdieresis" unicode="&#x1e85;" horiz-adv-x="756" 
d="M734 510l-124 -510h-145l-86 301l-89 -301h-144l-124 510h155l73 -328l98 328h97l96 -336l77 336h116zM235 709h125v-124h-125v124zM431 709h126v-124h-126v124z" />
    <glyph glyph-name="uni1E9E" unicode="&#x1e9e;" horiz-adv-x="707" 
d="M566.5 400.5q47.5 -25.5 76 -72.5t28.5 -108q0 -70 -32 -122.5t-87.5 -81t-125.5 -28.5q-100 0 -161 59l40 116q25 -26 50.5 -38t58.5 -12q45 0 72.5 29.5t27.5 77.5q0 46 -27.5 73.5t-73.5 27.5q-20 0 -38 -5.5t-41 -17.5l-43 90l165 192h-62q-83 0 -122 -41t-39 -130
v-409h-165v389q0 166 79.5 238.5t229.5 72.5h230v-109l-143 -164q55 -1 102.5 -26.5z" />
    <glyph glyph-name="Ygrave" unicode="&#x1ef2;" horiz-adv-x="628" 
d="M396 269v-269h-165v265l-225 435h182l147 -293l151 293h136zM337 910l31 -147h-64l-106 147h139z" />
    <glyph glyph-name="ygrave" unicode="&#x1ef3;" horiz-adv-x="570" 
d="M551 510l-214 -565q-60 -157 -202 -157q-41 0 -73 13.5t-50 37.5l50 92q31 -39 73 -39q31 0 51 21t39 67l-199 530h165l113 -325l117 325h130zM305 720l31 -147h-64l-106 147h139z" />
    <glyph glyph-name="endash" unicode="&#x2013;" horiz-adv-x="615" 
d="M83 343h449v-84h-449v84z" />
    <glyph glyph-name="emdash" unicode="&#x2014;" horiz-adv-x="815" 
d="M83 341h649v-80h-649v80z" />
    <glyph glyph-name="quoteleft" unicode="&#x2018;" horiz-adv-x="287" 
d="M161.5 620q-25.5 -25 -47.5 -56h104v-157h-155v158q16 43 40 81.5t60 81.5l61 -55q-37 -28 -62.5 -53z" />
    <glyph glyph-name="quoteright" unicode="&#x2019;" horiz-adv-x="287" 
d="M224 700v-158q-15 -42 -39 -81t-60 -82l-62 55q38 28 64 53t48 56h-105v157h154z" />
    <glyph glyph-name="quotesinglbase" unicode="&#x201a;" horiz-adv-x="284" 
d="M221 157v-158q-32 -82 -96 -163l-62 55q37 29 62 53.5t46 55.5h-105v157h155z" />
    <glyph glyph-name="quotedblleft" unicode="&#x201c;" horiz-adv-x="507" 
d="M161.5 620q-25.5 -25 -47.5 -56h104v-157h-155v158q16 43 40 81.5t60 81.5l61 -55q-37 -28 -62.5 -53zM380.5 619.5q-25.5 -25.5 -47.5 -55.5h104v-157h-154v158q15 42 39 81t60 82l62 -55q-38 -28 -63.5 -53.5z" />
    <glyph glyph-name="quotedblright" unicode="&#x201d;" horiz-adv-x="507" 
d="M70 700h154v-158q-15 -42 -39 -81t-60 -82l-62 55q38 28 64 53t48 56h-105v157zM444 700v-158q-16 -43 -40.5 -82t-59.5 -81l-61 55q38 28 63.5 53.5t47.5 55.5h-105v157h155z" />
    <glyph glyph-name="quotedblbase" unicode="&#x201e;" horiz-adv-x="507" 
d="M70 157h154v-158q-15 -42 -39 -81t-60 -82l-62 55q38 28 64 53t48 56h-105v157zM444 157v-158q-16 -43 -40.5 -82t-59.5 -81l-61 55q38 28 63.5 53.5t47.5 55.5h-105v157h155z" />
    <glyph glyph-name="dagger" unicode="&#x2020;" horiz-adv-x="438" 
d="M396 509h-127v-359h-100v359h-127v90h127v178h100v-178h127v-90z" />
    <glyph glyph-name="daggerdbl" unicode="&#x2021;" horiz-adv-x="438" 
d="M269 531v-134h127v-90h-127v-157h-100v157h-127v90h127v134h-127v90h127v156h100v-156h127v-90h-127z" />
    <glyph glyph-name="bullet" unicode="&#x2022;" horiz-adv-x="430" 
d="M143 176.5q-33 19.5 -52.5 53t-19.5 72.5t19.5 72t52.5 52.5t72 19.5t72 -19.5t52.5 -52.5t19.5 -72t-19.5 -72.5t-52.5 -53t-72 -19.5t-72 19.5z" />
    <glyph glyph-name="ellipsis" unicode="&#x2026;" horiz-adv-x="871" 
d="M63 157h155v-157h-155v157zM358 157h155v-157h-155v157zM653 157h155v-157h-155v157z" />
    <glyph glyph-name="perthousand" unicode="&#x2030;" horiz-adv-x="1033" 
d="M338.5 483.5q-20.5 -34.5 -56.5 -54.5t-81 -20q-44 0 -80 20t-56.5 54.5t-20.5 76.5q0 43 20.5 77.5t56.5 54.5t80 20q45 0 81 -20t56.5 -54.5t20.5 -77.5q0 -42 -20.5 -76.5zM710 700l-509 -700h-105l509 700h105zM151.5 505.5q19.5 -20.5 50.5 -20.5q30 0 49 20.5
t19 54.5t-19 55.5t-49 21.5q-31 0 -50.5 -21.5t-19.5 -55.5t19.5 -54.5zM912 271q36 -20 56.5 -54.5t20.5 -77.5q0 -42 -20.5 -76.5t-56.5 -54.5t-81 -20q-34 0 -63 11.5t-50 32.5q-44 -44 -113 -44q-45 0 -80.5 19.5t-56 54t-20.5 77.5t20.5 77.5t56 54.5t80.5 20
q69 0 113 -44q21 21 50 32.5t63 11.5q45 0 81 -20zM655 84.5q19 20.5 19 54.5t-19 55.5t-49 21.5t-49.5 -21.5t-19.5 -55.5q0 -33 19.5 -54t49.5 -21t49 20.5zM881 84.5q19 20.5 19 54.5t-19 55.5t-49 21.5t-49.5 -21.5t-19.5 -55.5q0 -33 19.5 -54t49.5 -21t49 20.5z" />
    <glyph glyph-name="guilsinglleft" unicode="&#x2039;" horiz-adv-x="341" 
d="M44 267v18l235 218l18 -13l-122 -214l122 -214l-18 -13z" />
    <glyph glyph-name="guilsinglright" unicode="&#x203a;" horiz-adv-x="341" 
d="M297 285v-18l-236 -218l-17 13l122 214l-122 214l17 13z" />
    <glyph glyph-name="uni2042" unicode="&#x2042;" horiz-adv-x="831" 
d="M414 470l-60 -112l-83 60l89 92l-126 22l32 98l114 -55l-17 125h102l-17 -126l114 55l33 -97l-125 -22l87 -92l-82 -60zM620 98l-60 -112l-83 60l89 92l-126 22l32 98l114 -55l-17 125h102l-17 -126l114 55l33 -97l-125 -22l87 -92l-82 -60zM210 98l-60 -112l-83 60
l89 92l-126 22l32 98l114 -55l-17 125h102l-17 -126l114 55l33 -97l-125 -22l87 -92l-82 -60z" />
    <glyph glyph-name="fraction" unicode="&#x2044;" horiz-adv-x="544" 
d="M32 379h480v-58h-480v58z" />
    <glyph glyph-name="uni2070" unicode="&#x2070;" horiz-adv-x="371" 
d="M76 491q-38 47 -38 134t38 134t109 47t109.5 -47t38.5 -134t-38.5 -134t-109.5 -47t-109 47zM242 625q0 110 -56 110q-57 0 -57 -110t57 -110q56 0 56 110z" />
    <glyph glyph-name="uni2074" unicode="&#x2074;" horiz-adv-x="371" 
d="M343 518h-60v-68h-86v68h-169v79l153 203h102v-217h60v-65zM197 583v140l-102 -140h102z" />
    <glyph glyph-name="uni2075" unicode="&#x2075;" horiz-adv-x="335" 
d="M274 662.5q30 -31.5 30 -82.5q0 -63 -40 -99.5t-102 -36.5q-57 0 -90.5 24.5t-43.5 69.5l77 27q3 -26 17 -40.5t38 -14.5q25 0 39 18.5t14 51.5q0 27 -13 43t-34 16q-38 0 -53 -45l-71 22l28 184h218v-66h-164l-12 -87h1q24 47 82 47q49 0 79 -31.5z" />
    <glyph glyph-name="uni2076" unicode="&#x2076;" horiz-adv-x="351" 
d="M287.5 646q29.5 -30 29.5 -78q0 -56 -39.5 -90t-101.5 -34q-68 0 -103 43.5t-35 127.5q0 89 40.5 140t111.5 51q47 0 78 -19.5t44 -55.5l-79 -31q-9 40 -43 40q-59 0 -64 -111h3q24 47 83 47q46 0 75.5 -30zM215 525.5q13 15.5 13 43.5q0 24 -12.5 38t-32.5 14
q-43 0 -55 -51q4 -31 16.5 -45.5t34.5 -14.5q23 0 36 15.5z" />
    <glyph glyph-name="uni2077" unicode="&#x2077;" horiz-adv-x="326" 
d="M292 755q-55 -70 -78.5 -138t-22.5 -167h-91q4 87 31.5 156t75.5 126h-173v68h258v-45z" />
    <glyph glyph-name="uni2078" unicode="&#x2078;" horiz-adv-x="358" 
d="M300 611.5q17 -22.5 17 -52.5q0 -55 -39.5 -85t-99.5 -30q-66 0 -102 25t-36 75q0 28 16 49t44 34q-24 13 -35 32t-11 47q0 46 35 73t90 27q57 0 91 -23.5t34 -64.5q0 -22 -14 -40t-38 -30q31 -14 48 -36.5zM148 739.5q-12 -10.5 -12 -27.5q0 -15 9 -24.5t30 -15.5l18 -5
q30 17 30 45q0 17 -11.5 27.5t-31.5 10.5t-32 -10.5zM216.5 518q14.5 13 14.5 36q0 36 -45 46l-26 7q-35 -21 -35 -53q0 -23 14 -36t39 -13q24 0 38.5 13z" />
    <glyph glyph-name="uni2079" unicode="&#x2079;" horiz-adv-x="351" 
d="M277.5 763q35.5 -43 35.5 -128q0 -89 -40.5 -140t-111.5 -51q-47 0 -78 19.5t-44 55.5l78 31q10 -40 44 -40q59 0 63 111h-2q-24 -47 -83 -47q-46 0 -75.5 30t-29.5 78q0 56 39.5 90t100.5 34q68 0 103.5 -43zM202 641q15 12 21 38q-6 61 -51 61q-23 0 -36 -15.5
t-13 -43.5q0 -24 12 -38t33 -14q19 0 34 12z" />
    <glyph glyph-name="uni2080" unicode="&#x2080;" horiz-adv-x="371" 
d="M76 -59q-38 47 -38 134t38 134t109 47t109.5 -47t38.5 -134t-38.5 -134t-109.5 -47t-109 47zM242 75q0 110 -56 110q-57 0 -57 -110t57 -110q56 0 56 110z" />
    <glyph glyph-name="uni2081" unicode="&#x2081;" horiz-adv-x="245" 
d="M195 250v-350h-88v272q-25 -38 -82 -37v73l19 -1q33 0 55 10.5t36 32.5h60z" />
    <glyph glyph-name="uni2082" unicode="&#x2082;" horiz-adv-x="341" 
d="M306 -33v-67h-272v57q68 39 104.5 64.5t57 53.5t20.5 63q0 24 -11.5 37.5t-31.5 13.5q-29 0 -42 -23t-11 -61l-84 7q-1 69 38.5 106.5t102.5 37.5q59 0 93.5 -31t34.5 -83q0 -53 -44 -99.5t-121 -75.5h166z" />
    <glyph glyph-name="uni2083" unicode="&#x2083;" horiz-adv-x="331" 
d="M24 -5l82 23q6 -57 56 -57q22 0 35.5 13t13.5 35q0 23 -14 34t-36 11q-17 0 -34 -6v65q17 -5 30 -5q20 0 33 10.5t13 31.5q0 20 -10.5 31t-30.5 11q-46 0 -52 -55l-76 20q10 47 45 73t88 26q55 0 89 -25.5t34 -69.5q0 -27 -16.5 -47.5t-44.5 -28.5v-1q34 -7 53 -29
t19 -53q0 -49 -39 -78.5t-99 -29.5q-123 0 -139 101z" />
    <glyph glyph-name="uni2084" unicode="&#x2084;" horiz-adv-x="371" 
d="M343 -32h-60v-68h-86v68h-169v79l153 203h102v-217h60v-65zM197 33v140l-102 -140h102z" />
    <glyph glyph-name="uni2085" unicode="&#x2085;" horiz-adv-x="335" 
d="M274 112.5q30 -31.5 30 -82.5q0 -63 -40 -99.5t-102 -36.5q-57 0 -90.5 24.5t-43.5 69.5l77 27q3 -26 17 -40.5t38 -14.5q25 0 39 18.5t14 51.5q0 27 -13 43t-34 16q-38 0 -53 -45l-71 22l28 184h218v-66h-164l-12 -87h1q24 47 82 47q49 0 79 -31.5z" />
    <glyph glyph-name="uni2086" unicode="&#x2086;" horiz-adv-x="351" 
d="M287.5 96q29.5 -30 29.5 -78q0 -56 -39.5 -90t-101.5 -34q-68 0 -103 43.5t-35 127.5q0 89 40.5 140t111.5 51q47 0 78 -19.5t44 -55.5l-79 -31q-9 40 -43 40q-59 0 -64 -111h3q24 47 83 47q46 0 75.5 -30zM215 -24.5q13 15.5 13 43.5q0 24 -12.5 38t-32.5 14
q-43 0 -55 -51q4 -31 16.5 -45.5t34.5 -14.5q23 0 36 15.5z" />
    <glyph glyph-name="uni2087" unicode="&#x2087;" horiz-adv-x="326" 
d="M292 205q-55 -70 -78.5 -138t-22.5 -167h-91q4 87 31.5 156t75.5 126h-173v68h258v-45z" />
    <glyph glyph-name="uni2088" unicode="&#x2088;" horiz-adv-x="358" 
d="M300 61.5q17 -22.5 17 -52.5q0 -55 -39.5 -85t-99.5 -30q-66 0 -102 25t-36 75q0 28 16 49t44 34q-24 13 -35 32t-11 47q0 46 35 73t90 27q57 0 91 -23.5t34 -64.5q0 -22 -14 -40t-38 -30q31 -14 48 -36.5zM148 189.5q-12 -10.5 -12 -27.5q0 -15 9 -24.5t30 -15.5l18 -5
q30 17 30 45q0 17 -11.5 27.5t-31.5 10.5t-32 -10.5zM216.5 -32q14.5 13 14.5 36q0 36 -45 46l-26 7q-35 -21 -35 -53q0 -23 14 -36t39 -13q24 0 38.5 13z" />
    <glyph glyph-name="uni2089" unicode="&#x2089;" horiz-adv-x="351" 
d="M277.5 213q35.5 -43 35.5 -128q0 -89 -40.5 -140t-111.5 -51q-47 0 -78 19.5t-44 55.5l78 31q10 -40 44 -40q59 0 63 111h-2q-24 -47 -83 -47q-46 0 -75.5 30t-29.5 78q0 56 39.5 90t100.5 34q68 0 103.5 -43zM202 91q15 12 21 38q-6 61 -51 61q-23 0 -36 -15.5
t-13 -43.5q0 -24 12 -38t33 -14q19 0 34 12z" />
    <glyph glyph-name="franc" unicode="&#x20a3;" horiz-adv-x="570" 
d="M260 585v-177h191v-97h-191v-82h151v-56h-151v-173h-153v173h-95v56h95v471h429v-115h-276z" />
    <glyph glyph-name="uni20A8" unicode="&#x20a8;" horiz-adv-x="1063" 
d="M546 158q2 -51 10.5 -85.5t36.5 -63.5v-9h-170q-13 28 -18.5 59.5t-5.5 73.5l1 34l2 46q2 51 -17.5 71.5t-68.5 20.5h-91v-305h-153v700h262q116 0 179.5 -46t63.5 -135q0 -68 -43 -111t-118 -55v-2q67 -9 96.5 -46t31.5 -106zM400 428.5q26 23.5 26 67.5q0 41 -26 62
t-76 21h-99v-174h99q50 0 76 23.5zM1029 162q0 -52 -26 -91.5t-73 -61t-108 -21.5q-77 0 -129.5 31.5t-77.5 88.5l84 58q18 -45 48 -67t78 -22q35 0 57 16t22 43q0 47 -64 59l-56 11q-155 30 -155 156q0 75 54.5 117.5t136.5 42.5q60 0 113.5 -26.5t79.5 -73.5l-87 -52
q-37 66 -107 66q-33 0 -51.5 -14.5t-18.5 -36.5q0 -20 14 -31t43 -17l59 -13q164 -36 164 -162z" />
    <glyph glyph-name="uni20A9" unicode="&#x20a9;" horiz-adv-x="928" 
d="M792 388l-16 -78h126v-53h-137l-53 -257h-152l-99 441l-102 -441h-152l-50 257h-131v53h121l-15 78h-106v52h96l-51 260h150l87 -499l117 499h106l112 -499l95 499h118l-53 -260h99v-52h-110z" />
    <glyph glyph-name="uni20AA" unicode="&#x20aa;" horiz-adv-x="708" 
d="M72 700h185q108 0 157.5 -49t49.5 -156v-261h-70v212q0 50 -24 73t-76 23h-130v-542h-92v700zM244 466h70v-308h130q52 0 76 23t24 73v446h92v-482q0 -115 -52 -166.5t-167 -51.5h-173v466z" />
    <glyph glyph-name="dong" unicode="&#x20ab;" horiz-adv-x="633" 
d="M615 597h-88v-597h-147v102h-2q-17 -57 -55.5 -85.5t-90.5 -28.5q-92 0 -143.5 72t-51.5 195q0 80 23.5 140.5t68 93.5t103.5 33q51 0 87 -27.5t53 -82.5h2v185h-170v55h170v88h153v-88h88v-55zM374 274q-3 65 -26 99.5t-63 34.5q-43 0 -67 -39.5t-24 -113.5
q0 -75 24 -114t67 -39q40 0 62.5 33.5t26.5 99.5v39zM61 -69h462v-59h-462v59z" />
    <glyph glyph-name="Euro" unicode="&#x20ac;" horiz-adv-x="703" 
d="M670 184q-27 -97 -98.5 -146.5t-171.5 -49.5q-120 0 -190 69t-87 201h-109l22 53h83q-1 11 -1 33q0 30 1 45h-105l22 53h89q19 131 93.5 200.5t194.5 69.5q103 0 168.5 -46t84.5 -135l-145 -39q-23 100 -108 100q-52 0 -85 -37.5t-45 -112.5h255l-22 -53h-239
q-1 -14 -1 -45q0 -22 1 -33h261l-22 -53h-235q21 -150 125 -150q87 0 116 110z" />
    <glyph glyph-name="uni20AD" unicode="&#x20ad;" horiz-adv-x="636" 
d="M445 0l-196 349v-349h-153v353h-95v56h95v291h153v-291h8l204 291h153l-208 -291h162v-56h-162l209 -353h-170z" />
    <glyph glyph-name="uni20B1" unicode="&#x20b1;" horiz-adv-x="698" 
d="M686 512h-76q1 -7 1 -23q0 -15 -1 -22h76v-41h-83q-19 -68 -79 -104.5t-154 -36.5h-110v-285h-154v426h-94v41h94v45h-94v42h94v146h264q94 0 154 -37.5t79 -108.5h83v-42zM260 554h197q-27 46 -105 46h-92v-46zM470 512h-210v-45h210q1 7 1 22q0 16 -1 23zM457 426h-197
v-46h92q80 0 105 46z" />
    <glyph glyph-name="uni20B4" unicode="&#x20b4;" horiz-adv-x="719" 
d="M684 446v-52h-650v52h336l39 9q36 11 52.5 29.5t16.5 46.5q0 37 -27.5 59.5t-75.5 22.5q-107 0 -146 -103l-113 50q32 74 100.5 113t158.5 39q110 0 177 -53.5t67 -148.5q0 -33 -12 -64h77zM34 315h650v-52h-370l-7 -2q-30 -13 -43.5 -31.5t-13.5 -46.5q0 -42 29 -65.5
t79 -23.5q58 0 98.5 30.5t58.5 85.5l116 -54q-31 -77 -108 -122.5t-179 -45.5q-116 0 -181 56t-65 152q0 37 11 67h-75v52z" />
    <glyph glyph-name="uni20B8" unicode="&#x20b8;" horiz-adv-x="578" 
d="M532 700v-87h-486v87h486zM46 536h486v-115h-166v-421h-153v421h-167v115z" />
    <glyph glyph-name="uni20B9" unicode="&#x20b9;" horiz-adv-x="604" 
d="M414 598v-1q55 -22 68 -68h81v-54h-78q-7 -50 -48 -81.5t-111 -40.5v-2q66 -8 95 -45t32 -107l3 -41q3 -53 11.5 -86.5t35.5 -62.5v-9h-177q-15 31 -19 68.5t-3 98.5v40q1 54 -23 76t-81 22h-145v100h172q92 0 106 70h-278v54h278q-17 61 -106 61h-172v110h508v-102h-149
z" />
    <glyph glyph-name="uni20BA" unicode="&#x20ba;" horiz-adv-x="583" 
d="M557 252v-24q0 -112 -61 -170t-184 -58h-209v270l-95 -28v53l95 28v77l-95 -28v54l95 28v246h153v-202l166 49v-53l-166 -49v-78l166 49v-53l-166 -49v-198h61q54 0 79.5 28.5t25.5 83.5v50z" />
    <glyph glyph-name="uni20BD" unicode="&#x20bd;" horiz-adv-x="640" 
d="M260 285v-82h186v-56h-186v-147h-154v147h-94v56h94v497h265q114 0 177.5 -55t63.5 -156q0 -98 -63.5 -151t-177.5 -53h-111zM433 563q-28 26 -80 26h-93v-198h93q52 0 80 25.5t28 72.5q0 48 -28 74z" />
    <glyph glyph-name="uni20BF" unicode="&#x20bf;" horiz-adv-x="618" 
d="M529.5 71.5q-52.5 -55.5 -145.5 -68.5v-100h-55v97h-47v-97h-55v97h-155v700h155v99h55v-99h47v99h55v-101q81 -8 126.5 -52t45.5 -116q0 -53 -32.5 -94t-95.5 -56v-2q73 -11 113.5 -55t40.5 -117q0 -79 -52.5 -134.5zM386.5 565q-24.5 21 -71.5 21h-90v-164h89
q97 0 97 82q0 40 -24.5 61zM395.5 140.5q30.5 26.5 30.5 79.5q0 52 -29.5 79t-86.5 27h-85v-212h82q58 0 88.5 26.5z" />
    <glyph glyph-name="uni2113" unicode="&#x2113;" horiz-adv-x="503" 
d="M472 97q-26 -56 -70 -82.5t-95 -26.5q-86 0 -132 57t-57 172l-22 -9q-9 -4 -22.5 -9.5t-31.5 -11.5l-26 81q52 19 97 41v6q0 199 52.5 298t148.5 99q60 0 93 -36t33 -99q0 -78 -46.5 -148.5t-130.5 -129.5q0 -107 14 -152t47 -45q18 0 32 12t28 44zM284.5 574
q-14.5 -48 -19.5 -163q80 79 80 168q0 20 -6 31.5t-18 11.5q-22 0 -36.5 -48z" />
    <glyph glyph-name="uni2114" unicode="&#x2114;" horiz-adv-x="918" 
d="M833.5 450.5q47.5 -71.5 47.5 -195.5q0 -123 -52.5 -195t-144.5 -72q-53 0 -91.5 26t-56.5 78l-17 -92h-129v597h-121v-597h-153v597h-89v55h89v88h153v-88h121v88h154v-88h169v-55h-169v-185h1q18 54 59 82t92 28q90 0 137.5 -71.5zM702 141q23 39 23 114t-23 114
t-67 39q-41 0 -65 -35t-26 -99v-43q4 -65 27.5 -97t63.5 -32q44 0 67 39z" />
    <glyph glyph-name="uni2116" unicode="&#x2116;" horiz-adv-x="1272" 
d="M639 700v-700h-169l-272 512v-512h-126v700h197l244 -457v457h126zM802 249q-67 71 -67 196q0 124 67 195.5t183 71.5t183 -71.5t67 -195.5q0 -125 -67 -196t-183 -71t-183 71zM1055 332q25 39 25 113q0 73 -25 112.5t-70 39.5q-46 0 -71 -39.5t-25 -112.5q0 -74 25 -113
t71 -39q45 0 70 39zM761 84h449v-84h-449v84z" />
    <glyph glyph-name="uni2117" unicode="&#x2117;" horiz-adv-x="614" 
d="M434 678q58 -34 92 -92.5t34 -126.5q0 -69 -33.5 -127t-91.5 -92t-128 -34q-69 0 -127 34t-92 92t-34 127q0 68 34 126.5t92 92.5t127 34t127 -34zM411 281q47 28 74.5 75.5t27.5 104.5q0 55 -27.5 101.5t-74.5 74t-103 27.5t-103.5 -27.5t-75 -74t-27.5 -101.5
q0 -57 27.5 -104.5t74.5 -75.5t104 -28q56 0 103 28zM403.5 576q27.5 -23 27.5 -62t-27.5 -62t-73.5 -23h-47v-110h-72v280h119q46 0 73.5 -23zM360 515q0 32 -35 32h-42v-66h42q35 0 35 34z" />
    <glyph glyph-name="uni2120" unicode="&#x2120;" horiz-adv-x="674" 
d="M264 508q0 -41 -32.5 -67t-80.5 -26q-36 0 -64 12.5t-42 37.5l42 42q22 -39 64 -39q21 0 31.5 8t10.5 22q0 11 -6.5 17.5t-22.5 10.5l-33 6q-84 16 -84 85q0 41 29 64.5t74 23.5q71 0 103 -50l-43 -35q-11 19 -25.5 27.5t-33.5 8.5q-18 0 -28 -7.5t-10 -19.5
q0 -18 27 -25l37 -7q87 -18 87 -89zM616 700v-280h-69v201l-72 -201h-33l-68 198v-198h-57v280h98l54 -156l58 156h89z" />
    <glyph glyph-name="trademark" unicode="&#x2122;" horiz-adv-x="683" 
d="M263 644h-73v-224h-72v224h-74v56h219v-56zM625 700v-280h-69v198l-71 -198h-34l-68 198v-198h-56v280h97l54 -156l58 156h89z" />
    <glyph glyph-name="uni2126" unicode="&#x2126;" horiz-adv-x="762" 
d="M712 104v-104h-287v195q52 29 80.5 79.5t28.5 117.5q0 87 -42.5 140.5t-110.5 53.5t-110.5 -53.5t-42.5 -140.5q0 -67 28 -117.5t80 -79.5v-195h-286v104h199v32q-82 33 -131 101t-49 165q0 95 41.5 165t113 107.5t157.5 37.5t157.5 -37.5t113 -107.5t41.5 -165
q0 -97 -49 -165t-131 -101v-32h199z" />
    <glyph glyph-name="estimated" unicode="&#x212e;" horiz-adv-x="658" 
d="M612 159q-35 -82 -105 -126.5t-166 -44.5q-91 0 -158 39.5t-102.5 110.5t-35.5 163q0 86 38 157.5t106 113t153 41.5q75 0 135 -35t94 -99.5t34 -150.5q0 -18 -1 -27h-414v-213q60 -54 151 -54q163 0 228 150zM342 567q-88 0 -152 -54v-167h287v171q-53 50 -135 50z" />
    <glyph glyph-name="uni2153" unicode="&#x2153;" horiz-adv-x="544" 
d="M405 516v-66h-265v66h94v206q-25 -38 -82 -37v73l19 -1q33 0 55 10.5t36 32.5h59v-284h84zM32 379h480v-58h-480v58zM134 -5l82 23q6 -57 56 -57q22 0 35.5 13t13.5 35q0 23 -14 34t-36 11q-16 0 -34 -6v65q17 -5 30 -5q20 0 33 10.5t13 31.5q0 20 -10.5 31t-30.5 11
q-46 0 -52 -55l-76 20q10 47 45.5 73t88.5 26q54 0 88 -25.5t34 -69.5q0 -27 -16.5 -47.5t-44.5 -28.5v-1q34 -7 53 -29t19 -53q0 -49 -39 -78.5t-99 -29.5q-123 0 -139 101z" />
    <glyph glyph-name="uni2154" unicode="&#x2154;" horiz-adv-x="544" 
d="M409 517v-67h-272v57q68 38 105 63.5t57 54t20 63.5q0 24 -11.5 37.5t-31.5 13.5q-29 0 -41.5 -23t-10.5 -61l-85 7q-1 69 38.5 106.5t102.5 37.5q59 0 93.5 -31t34.5 -83q0 -53 -44 -99.5t-121 -75.5h166zM32 379h480v-58h-480v58zM134 -5l82 23q6 -57 56 -57
q22 0 35.5 13t13.5 35q0 23 -14 34t-36 11q-16 0 -34 -6v65q17 -5 30 -5q20 0 33 10.5t13 31.5q0 20 -10.5 31t-30.5 11q-46 0 -52 -55l-76 20q10 47 45.5 73t88.5 26q54 0 88 -25.5t34 -69.5q0 -27 -16.5 -47.5t-44.5 -28.5v-1q34 -7 53 -29t19 -53q0 -49 -39 -78.5
t-99 -29.5q-123 0 -139 101z" />
    <glyph glyph-name="oneeighth" unicode="&#x215b;" horiz-adv-x="544" 
d="M405 516v-66h-265v66h94v206q-25 -38 -82 -37v73l19 -1q33 0 55 10.5t36 32.5h59v-284h84zM32 379h480v-58h-480v58zM410 9q0 -55 -39.5 -85t-99.5 -30q-66 0 -101.5 25t-35.5 75q0 28 16 49.5t43 33.5q-46 25 -46 79q0 46 35.5 73t89.5 27q57 0 91 -23.5t34 -64.5
q0 -22 -14 -40t-38 -30q65 -29 65 -89zM241 189.5q-12 -10.5 -12 -27.5q0 -15 9 -24.5t30 -15.5l18 -5q30 17 30 45q0 17 -11.5 27.5t-31.5 10.5t-32 -10.5zM309.5 -32q14.5 13 14.5 36q0 36 -45 46l-26 7q-35 -21 -35 -53q0 -23 14 -36t39 -13q24 0 38.5 13z" />
    <glyph glyph-name="threeeighths" unicode="&#x215c;" horiz-adv-x="544" 
d="M134 545l82 23q6 -57 56 -57q22 0 35.5 13t13.5 35q0 23 -14 34t-36 11q-16 0 -34 -6v65q17 -5 30 -5q20 0 33 10.5t13 31.5q0 20 -10.5 31t-30.5 11q-46 0 -52 -55l-76 20q10 47 45.5 73t88.5 26q54 0 88 -25.5t34 -69.5q0 -27 -16.5 -47.5t-44.5 -28.5v-1q34 -7 53 -29
t19 -53q0 -49 -39 -78.5t-99 -29.5q-123 0 -139 101zM32 379h480v-58h-480v58zM410 9q0 -55 -39.5 -85t-99.5 -30q-66 0 -101.5 25t-35.5 75q0 28 16 49.5t43 33.5q-46 25 -46 79q0 46 35.5 73t89.5 27q57 0 91 -23.5t34 -64.5q0 -22 -14 -40t-38 -30q65 -29 65 -89z
M241 189.5q-12 -10.5 -12 -27.5q0 -15 9 -24.5t30 -15.5l18 -5q30 17 30 45q0 17 -11.5 27.5t-31.5 10.5t-32 -10.5zM309.5 -32q14.5 13 14.5 36q0 36 -45 46l-26 7q-35 -21 -35 -53q0 -23 14 -36t39 -13q24 0 38.5 13z" />
    <glyph glyph-name="fiveeighths" unicode="&#x215d;" horiz-adv-x="544" 
d="M379.5 662.5q30.5 -31.5 30.5 -82.5q0 -63 -40 -99.5t-102 -36.5q-113 0 -134 94l76 27q4 -27 18 -41t38 -14q25 0 39 18.5t14 51.5q0 27 -13 43t-34 16q-38 0 -53 -45l-71 22l27 184h219v-66h-165l-12 -87h1q26 47 82 47q49 0 79.5 -31.5zM32 379h480v-58h-480v58z
M410 9q0 -55 -39.5 -85t-99.5 -30q-66 0 -101.5 25t-35.5 75q0 28 16 49.5t43 33.5q-46 25 -46 79q0 46 35.5 73t89.5 27q57 0 91 -23.5t34 -64.5q0 -22 -14 -40t-38 -30q65 -29 65 -89zM241 189.5q-12 -10.5 -12 -27.5q0 -15 9 -24.5t30 -15.5l18 -5q30 17 30 45
q0 17 -11.5 27.5t-31.5 10.5t-32 -10.5zM309.5 -32q14.5 13 14.5 36q0 36 -45 46l-26 7q-35 -21 -35 -53q0 -23 14 -36t39 -13q24 0 38.5 13z" />
    <glyph glyph-name="seveneighths" unicode="&#x215e;" horiz-adv-x="544" 
d="M401 755q-54 -70 -78 -138.5t-23 -166.5h-91q4 87 31.5 156t75.5 126h-172v68h257v-45zM32 379h480v-58h-480v58zM410 9q0 -55 -39.5 -85t-99.5 -30q-66 0 -101.5 25t-35.5 75q0 28 16 49.5t43 33.5q-46 25 -46 79q0 46 35.5 73t89.5 27q57 0 91 -23.5t34 -64.5
q0 -22 -14 -40t-38 -30q65 -29 65 -89zM241 189.5q-12 -10.5 -12 -27.5q0 -15 9 -24.5t30 -15.5l18 -5q30 17 30 45q0 17 -11.5 27.5t-31.5 10.5t-32 -10.5zM309.5 -32q14.5 13 14.5 36q0 36 -45 46l-26 7q-35 -21 -35 -53q0 -23 14 -36t39 -13q24 0 38.5 13z" />
    <glyph glyph-name="arrowleft" unicode="&#x2190;" horiz-adv-x="701" 
d="M182 296l115 -149l-42 -38l-228 230v18l228 230l42 -38l-116 -150h481v-103h-480z" />
    <glyph glyph-name="arrowup" unicode="&#x2191;" horiz-adv-x="520" 
d="M208 512l-149 -115l-38 42l230 229h18l230 -229l-38 -42l-150 117v-481h-103v479z" />
    <glyph glyph-name="arrowright" unicode="&#x2192;" horiz-adv-x="701" 
d="M518 374l-114 149l42 38l228 -230v-18l-228 -230l-42 38l116 151h-481v102h479z" />
    <glyph glyph-name="arrowdown" unicode="&#x2193;" horiz-adv-x="520" 
d="M312 188l149 115l38 -42l-230 -228h-19l-229 228l38 42l150 -117v482h103v-480z" />
    <glyph glyph-name="uni2196" unicode="&#x2196;" horiz-adv-x="588" 
d="M140 433l-24 -186l-57 3l2 324l13 13l323 1l3 -57l-189 -24l341 -340l-73 -73z" />
    <glyph glyph-name="uni2197" unicode="&#x2197;" horiz-adv-x="589" 
d="M375 496l-186 24l3 57l324 -2l13 -13l1 -323l-57 -3l-24 189l-340 -341l-73 73z" />
    <glyph glyph-name="uni2198" unicode="&#x2198;" horiz-adv-x="588" 
d="M447 245l25 186l57 -3l-2 -324l-13 -13l-323 -1l-4 57l189 24l-340 340l72 73z" />
    <glyph glyph-name="uni2199" unicode="&#x2199;" horiz-adv-x="589" 
d="M214 173l186 -24l-3 -57l-323 2l-13 13l-1 323l56 3l24 -189l341 341l72 -73z" />
    <glyph glyph-name="partialdiff" unicode="&#x2202;" horiz-adv-x="613" 
d="M394 646.5q84 -62.5 132 -151t48 -196.5q0 -93 -33 -163.5t-95 -109t-147 -38.5q-78 0 -137.5 30.5t-91.5 86t-32 128.5q0 66 29 118t79 80.5t111 28.5q95 0 146 -69h5q-24 82 -89.5 137.5t-174.5 93.5l59 123q107 -36 191 -98.5zM392 153.5q30 49.5 29 137.5
q-41 69 -114 69q-52 0 -84.5 -35t-32.5 -93t31 -93t82 -35q59 0 89 49.5z" />
    <glyph glyph-name="uni2206" unicode="&#x2206;" horiz-adv-x="677" 
d="M618 83v-83h-559v83l190 617h182zM450 116l-118 433l-119 -433h237z" />
    <glyph glyph-name="product" unicode="&#x220f;" horiz-adv-x="760" 
d="M724 584h-103v-684h-153v684h-175v-684h-153v684h-104v116h688v-116z" />
    <glyph glyph-name="summation" unicode="&#x2211;" horiz-adv-x="548" 
d="M45 -1l176 301l-176 302v98h458v-116h-287l164 -284l-164 -284h287v-116h-458v99z" />
    <glyph glyph-name="minus" unicode="&#x2212;" horiz-adv-x="561" 
d="M68 366h425v-94h-425v94z" />
    <glyph glyph-name="uni2215" unicode="&#x2215;" horiz-adv-x="377" 
d="M263 777h110l-279 -933h-110z" />
    <glyph glyph-name="uni2219" unicode="&#x2219;" horiz-adv-x="430" 
d="M143 176.5q-33 19.5 -52.5 53t-19.5 72.5t19.5 72t52.5 52.5t72 19.5t72 -19.5t52.5 -52.5t19.5 -72t-19.5 -72.5t-52.5 -53t-72 -19.5t-72 19.5z" />
    <glyph glyph-name="radical" unicode="&#x221a;" horiz-adv-x="707" 
d="M682 700l-233 -700h-180l-126 301h-117v116h217l108 -268l182 551h149z" />
    <glyph glyph-name="infinity" unicode="&#x221e;" horiz-adv-x="961" 
d="M793.5 537q47.5 -26 74.5 -72.5t27 -104.5t-27.5 -105t-76 -73.5t-108.5 -26.5q-65 0 -115.5 29t-94.5 92q-77 -121 -201 -121q-58 0 -105 26t-74 72.5t-27 104.5t27.5 105t76 73.5t108.5 26.5q65 0 115.5 -29t93.5 -92q78 121 201 121q58 0 105.5 -26zM767 279
q34 33 34 85q0 53 -34 87.5t-86 34.5q-46 0 -82.5 -28t-67.5 -87l9 -15q35 -58 68 -84t74 -26q51 0 85 33zM362 259.5q36 27.5 68 86.5l-10 17q-33 58 -66 83.5t-75 25.5q-51 0 -85 -33t-34 -85q0 -53 34 -87.5t86 -34.5q46 0 82 27.5z" />
    <glyph glyph-name="integral" unicode="&#x222b;" horiz-adv-x="403" 
d="M-42 -186l28 102q24 -13 49 -13q28 0 43.5 19t15.5 57v542q0 97 50.5 144t134.5 47q55 0 105 -26l-29 -102q-24 13 -48 13q-60 0 -60 -76v-542q0 -97 -50 -144t-134 -47q-56 0 -105 26z" />
    <glyph glyph-name="approxequal" unicode="&#x2248;" horiz-adv-x="592" 
d="M78 465q50 23 109 23q42 0 111 -13q7 -1 43 -7t69 -6q56 0 104 20v-95q-51 -20 -104 -20q-33 0 -69 6t-43 7q-69 13 -111 13q-58 0 -109 -22v94zM78 251q50 23 109 23q42 0 111 -13q7 -1 43 -7t69 -6q56 0 104 20v-95q-48 -20 -104 -20q-33 0 -69 6t-43 7q-69 13 -111 13
q-59 0 -109 -23v95z" />
    <glyph glyph-name="notequal" unicode="&#x2260;" horiz-adv-x="592" 
d="M359 382l-54 -126h209v-94h-249l-42 -99h-72l42 99h-115v94h155l54 126h-209v94h249l42 99h72l-42 -99h115v-94h-155z" />
    <glyph glyph-name="lessequal" unicode="&#x2264;" horiz-adv-x="578" 
d="M78 325v101l422 129v-91l-298 -88l298 -89v-91zM78 159h422v-88h-422v88z" />
    <glyph glyph-name="greaterequal" unicode="&#x2265;" horiz-adv-x="578" 
d="M78 287l298 89l-298 88v91l422 -129v-101l-422 -129v91zM78 159h422v-88h-422v88z" />
    <glyph glyph-name="uni2460" unicode="&#x2460;" horiz-adv-x="922" 
d="M665.5 702.5q93.5 -54.5 148 -148t54.5 -204.5t-54.5 -204.5t-148 -148t-204.5 -54.5t-204.5 54.5t-148 148t-54.5 204.5t54.5 204.5t148 148t204.5 54.5t204.5 -54.5zM631 50.5q78 46.5 124 126t46 174.5q0 94 -46 173.5t-124 125.5t-170 46q-93 0 -171.5 -46
t-124 -125.5t-45.5 -173.5q0 -95 45.5 -175t124 -126t171.5 -46q92 0 170 46.5zM397 529q35 12 56 45h78v-448h-115v353q-30 -52 -108 -52v92q54 -2 89 10z" />
    <glyph glyph-name="uni2461" unicode="&#x2461;" horiz-adv-x="922" 
d="M665.5 702.5q93.5 -54.5 148 -148t54.5 -204.5t-54.5 -204.5t-148 -148t-204.5 -54.5t-204.5 54.5t-148 148t-54.5 204.5t54.5 204.5t148 148t204.5 54.5t204.5 -54.5zM631 50.5q78 46.5 124 126t46 174.5q0 94 -46 173.5t-124 125.5t-170 46q-93 0 -171.5 -46
t-124 -125.5t-45.5 -173.5q0 -95 45.5 -175t124 -126t171.5 -46q92 0 170 46.5zM576.5 310q-56.5 -58 -160.5 -97h220v-87h-356v72q86 46 136 82t74.5 72.5t24.5 80.5q0 26 -13.5 43t-39.5 17q-32 0 -50 -26t-16 -78l-114 9q0 90 51.5 137t133.5 47q75 0 120.5 -37.5
t45.5 -108.5q0 -68 -56.5 -126z" />
    <glyph glyph-name="uni2462" unicode="&#x2462;" horiz-adv-x="922" 
d="M256.5 -2.5q-93.5 54.5 -148 148t-54.5 204.5t54.5 204.5t148 148t204.5 54.5t204.5 -54.5t148 -148t54.5 -204.5t-54.5 -204.5t-148 -148t-204.5 -54.5t-204.5 54.5zM631 50.5q78 46.5 124 126t46 174.5q0 94 -46 173.5t-124 125.5t-170 46q-93 0 -171.5 -46
t-124 -125.5t-45.5 -173.5q0 -95 45.5 -175t124 -126t171.5 -46q92 0 170 46.5zM278 253l105 27q8 -74 76 -74q31 0 49.5 17.5t18.5 45.5q0 29 -20 44.5t-50 15.5q-19 0 -43 -8v73q24 -4 34 -4q30 0 48 14.5t18 40.5q0 24 -14.5 37t-39.5 13q-28 0 -45.5 -16.5t-22.5 -47.5
l-100 26q15 59 62 92t116 33q70 0 114 -32.5t44 -87.5q0 -36 -23.5 -62.5t-61.5 -36.5v-1q48 -9 73.5 -37t25.5 -71q0 -62 -52.5 -99t-127.5 -37q-163 0 -184 135z" />
    <glyph glyph-name="uni2463" unicode="&#x2463;" horiz-adv-x="922" 
d="M665.5 702.5q93.5 -54.5 148 -148t54.5 -204.5t-54.5 -204.5t-148 -148t-204.5 -54.5t-204.5 54.5t-148 148t-54.5 204.5t54.5 204.5t148 148t204.5 54.5t204.5 -54.5zM631 50.5q78 46.5 124 126t46 174.5q0 94 -46 173.5t-124 125.5t-170 46q-93 0 -171.5 -46
t-124 -125.5t-45.5 -173.5q0 -95 45.5 -175t124 -126t171.5 -46q92 0 170 46.5zM572 297h80v-84h-80v-87h-112v87h-224v105l204 256h132v-277zM460 297v184l-139 -184h139z" />
    <glyph glyph-name="uni2464" unicode="&#x2464;" horiz-adv-x="922" 
d="M665.5 702.5q93.5 -54.5 148 -148t54.5 -204.5t-54.5 -204.5t-148 -148t-204.5 -54.5t-204.5 54.5t-148 148t-54.5 204.5t54.5 204.5t148 148t204.5 54.5t204.5 -54.5zM631 50.5q78 46.5 124 126t46 174.5q0 94 -46 173.5t-124 125.5t-170 46q-93 0 -171.5 -46
t-124 -125.5t-45.5 -173.5q0 -95 45.5 -175t124 -126t171.5 -46q92 0 170 46.5zM600 398q38 -40 38 -110q0 -79 -52 -124.5t-136 -45.5q-141 0 -173 116l100 39q5 -34 24 -52t49 -18q32 0 51 22.5t19 62.5q0 38 -17 59t-48 21q-47 0 -69 -58l-92 30l37 234h286v-83h-215
l-18 -119h1q17 33 46.5 49.5t66.5 16.5q64 0 102 -40z" />
    <glyph glyph-name="uni2465" unicode="&#x2465;" horiz-adv-x="922" 
d="M665.5 702.5q93.5 -54.5 148 -148t54.5 -204.5t-54.5 -204.5t-148 -148t-204.5 -54.5t-204.5 54.5t-148 148t-54.5 204.5t54.5 204.5t148 148t204.5 54.5t204.5 -54.5zM631 50.5q78 46.5 124 126t46 174.5q0 94 -46 173.5t-124 125.5t-170 46q-93 0 -171.5 -46
t-124 -125.5t-45.5 -173.5q0 -95 45.5 -175t124 -126t171.5 -46q92 0 170 46.5zM608.5 379q35.5 -38 35.5 -101q0 -72 -50.5 -116t-130.5 -44q-91 0 -138 55.5t-47 163.5q0 114 53.5 179.5t145.5 65.5q126 0 160 -99l-103 -38q-11 53 -57 53q-36 0 -56.5 -37.5t-23.5 -112.5
h2q16 33 45 51t68 18q61 0 96.5 -38zM510.5 223q17.5 20 17.5 56q0 31 -17 49t-44 18q-24 0 -42.5 -15.5t-26.5 -46.5q8 -81 65 -81q30 0 47.5 20z" />
    <glyph glyph-name="uni2466" unicode="&#x2466;" horiz-adv-x="922" 
d="M665.5 702.5q93.5 -54.5 148 -148t54.5 -204.5t-54.5 -204.5t-148 -148t-204.5 -54.5t-204.5 54.5t-148 148t-54.5 204.5t54.5 204.5t148 148t204.5 54.5t204.5 -54.5zM631 50.5q78 46.5 124 126t46 174.5q0 94 -46 173.5t-124 125.5t-170 46q-93 0 -171.5 -46
t-124 -125.5t-45.5 -173.5q0 -95 45.5 -175t124 -126t171.5 -46q92 0 170 46.5zM292 574h338v-58q-69 -94 -98.5 -178.5t-30.5 -211.5h-119q6 110 43 197t102 162h-235v89z" />
    <glyph glyph-name="uni2467" unicode="&#x2467;" horiz-adv-x="922" 
d="M665.5 702.5q93.5 -54.5 148 -148t54.5 -204.5t-54.5 -204.5t-148 -148t-204.5 -54.5t-204.5 54.5t-148 148t-54.5 204.5t54.5 204.5t148 148t204.5 54.5t204.5 -54.5zM631 50.5q78 46.5 124 126t46 174.5q0 94 -46 173.5t-124 125.5t-170 46q-93 0 -171.5 -46
t-124 -125.5t-45.5 -173.5q0 -95 45.5 -175t124 -126t171.5 -46q92 0 170 46.5zM643 262q0 -68 -51 -106t-131 -38q-85 0 -133.5 33t-48.5 93q0 36 21.5 63.5t60.5 41.5q-65 33 -65 105q0 59 46 93.5t120 34.5q77 0 120.5 -30t43.5 -83q0 -29 -17.5 -52t-49.5 -36
q84 -38 84 -119zM418.5 494q-16.5 -13 -16.5 -35q0 -18 12.5 -29.5t40.5 -19.5l26 -6q40 20 40 54q0 23 -16 36t-43 13t-43.5 -13zM510.5 212.5q18.5 15.5 18.5 42.5q0 47 -63 63l-28 7q-47 -25 -47 -69q0 -27 19 -43t51 -16q31 0 49.5 15.5z" />
    <glyph glyph-name="uni2468" unicode="&#x2468;" horiz-adv-x="922" 
d="M665.5 702.5q93.5 -54.5 148 -148t54.5 -204.5t-54.5 -204.5t-148 -148t-204.5 -54.5t-204.5 54.5t-148 148t-54.5 204.5t54.5 204.5t148 148t204.5 54.5t204.5 -54.5zM631 50.5q78 46.5 124 126t46 174.5q0 94 -46 173.5t-124 125.5t-170 46q-93 0 -171.5 -46
t-124 -125.5t-45.5 -173.5q0 -95 45.5 -175t124 -126t171.5 -46q92 0 170 46.5zM596.5 526.5q47.5 -55.5 47.5 -163.5q0 -114 -53.5 -179.5t-145.5 -65.5q-126 0 -160 99l102 38q13 -53 58 -53q36 0 56.5 37.5t22.5 112.5h-1q-16 -33 -45 -51t-68 -18q-61 0 -96.5 38
t-35.5 101q0 72 50.5 116t130.5 44q90 0 137.5 -55.5zM497.5 369.5q18.5 15.5 25.5 45.5q-6 82 -64 82q-30 0 -47.5 -20t-17.5 -56q0 -31 16.5 -49t44.5 -18q24 0 42.5 15.5z" />
    <glyph glyph-name="uni24EA" unicode="&#x24ea;" horiz-adv-x="922" 
d="M256.5 -2.5q-93.5 54.5 -148 148t-54.5 204.5t54.5 204.5t148 148t204.5 54.5t204.5 -54.5t148 -148t54.5 -204.5t-54.5 -204.5t-148 -148t-204.5 -54.5t-204.5 54.5zM631 50.5q78 46.5 124 126t46 174.5q0 94 -46 173.5t-124 125.5t-170 46q-93 0 -171.5 -46
t-124 -125.5t-45.5 -173.5q0 -95 45.5 -175t124 -126t171.5 -46q92 0 170 46.5zM318.5 179.5q-51.5 61.5 -51.5 170.5t51.5 170.5t142.5 61.5t143 -61.5t52 -170.5t-52 -170.5t-143 -61.5t-142.5 61.5zM517.5 247.5q19.5 34.5 19.5 102.5t-19.5 102.5t-55.5 34.5
q-76 0 -76 -137t76 -137q36 0 55.5 34.5z" />
    <glyph glyph-name="uni24FF" unicode="&#x24ff;" horiz-adv-x="922" 
d="M256.5 -2.5q-93.5 54.5 -148 148t-54.5 204.5t54.5 204.5t148 148t204.5 54.5t204.5 -54.5t148 -148t54.5 -204.5t-54.5 -204.5t-148 -148t-204.5 -54.5t-204.5 54.5zM604 179.5q52 61.5 52 170.5t-52 170.5t-143 61.5t-142.5 -61.5t-51.5 -170.5t51.5 -170.5
t142.5 -61.5t143 61.5zM386 350q0 137 76 137q36 0 55.5 -34.5t19.5 -102.5t-19.5 -102.5t-55.5 -34.5q-76 0 -76 137z" />
    <glyph glyph-name="lozenge" unicode="&#x25ca;" horiz-adv-x="624" 
d="M589 350l-191 -350h-171l-192 350l192 350h171zM433 350l-120 235l-121 -235l121 -235z" />
    <glyph glyph-name="uni2776" unicode="&#x2776;" horiz-adv-x="922" 
d="M256.5 -2.5q-93.5 54.5 -148 148t-54.5 204.5t54.5 204.5t148 148t204.5 54.5t204.5 -54.5t148 -148t54.5 -204.5t-54.5 -204.5t-148 -148t-204.5 -54.5t-204.5 54.5zM531 126v448h-78q-21 -33 -56 -45t-89 -10v-92q40 0 66.5 13t41.5 39v-353h115z" />
    <glyph glyph-name="uni2777" unicode="&#x2777;" horiz-adv-x="922" 
d="M256.5 -2.5q-93.5 54.5 -148 148t-54.5 204.5t54.5 204.5t148 148t204.5 54.5t204.5 -54.5t148 -148t54.5 -204.5t-54.5 -204.5t-148 -148t-204.5 -54.5t-204.5 54.5zM636 126v87h-221q105 39 161.5 97t56.5 126q0 71 -45.5 108.5t-120.5 37.5q-82 0 -133.5 -47
t-51.5 -137l114 -9q-2 52 16 78t50 26q26 0 39.5 -17t13.5 -43q0 -44 -24.5 -80.5t-74.5 -72.5t-136 -82v-72h356z" />
    <glyph glyph-name="uni2778" unicode="&#x2778;" horiz-adv-x="922" 
d="M256.5 -2.5q-93.5 54.5 -148 148t-54.5 204.5t54.5 204.5t148 148t204.5 54.5t204.5 -54.5t148 -148t54.5 -204.5t-54.5 -204.5t-148 -148t-204.5 -54.5t-204.5 54.5zM589.5 155q52.5 37 52.5 99q0 43 -25.5 71t-73.5 37v1q38 10 61.5 36.5t23.5 62.5q0 55 -44 87.5
t-114 32.5q-69 0 -116 -33t-62 -92l100 -26q5 31 22.5 47.5t45.5 16.5q25 0 39.5 -13t14.5 -37q0 -26 -18 -40.5t-48 -14.5q-10 0 -34 4v-73q24 8 43 8q30 0 50 -15.5t20 -44.5q0 -28 -18.5 -45.5t-49.5 -17.5q-68 0 -76 74l-105 -27q21 -135 184 -135q75 0 127.5 37z" />
    <glyph glyph-name="uni2779" unicode="&#x2779;" horiz-adv-x="922" 
d="M256.5 -2.5q-93.5 54.5 -148 148t-54.5 204.5t54.5 204.5t148 148t204.5 54.5t204.5 -54.5t148 -148t54.5 -204.5t-54.5 -204.5t-148 -148t-204.5 -54.5t-204.5 54.5zM572 126v87h80v84h-80v277h-132l-204 -256v-105h224v-87h112zM460 480v-183h-139z" />
    <glyph glyph-name="uni277A" unicode="&#x277a;" horiz-adv-x="922" 
d="M256.5 -2.5q-93.5 54.5 -148 148t-54.5 204.5t54.5 204.5t148 148t204.5 54.5t204.5 -54.5t148 -148t54.5 -204.5t-54.5 -204.5t-148 -148t-204.5 -54.5t-204.5 54.5zM586 163.5q52 45.5 52 124.5q0 70 -38 110t-102 40q-37 0 -66.5 -16.5t-46.5 -49.5h-1l19 119h214v83
h-286l-37 -234l92 -30q22 58 69 58q31 0 48 -21t17 -59q0 -40 -19 -62.5t-51 -22.5q-30 0 -49 18t-24 52l-100 -39q32 -116 173 -116q84 0 136 45.5z" />
    <glyph glyph-name="uni277B" unicode="&#x277b;" horiz-adv-x="922" 
d="M256.5 -2.5q-93.5 54.5 -148 148t-54.5 204.5t54.5 204.5t148 148t204.5 54.5t204.5 -54.5t148 -148t54.5 -204.5t-54.5 -204.5t-148 -148t-204.5 -54.5t-204.5 54.5zM593.5 162q50.5 44 50.5 116q0 63 -35.5 101t-96.5 38q-39 0 -68 -18t-45 -51h-1q1 74 21 112t58 38
q46 0 57 -53l103 38q-34 99 -160 99q-92 0 -145.5 -65.5t-53.5 -179.5q0 -108 47 -163.5t138 -55.5q80 0 130.5 44zM398 283q7 32 25.5 47.5t43.5 15.5q27 0 44 -18t17 -49q0 -36 -17.5 -56t-47.5 -20q-57 0 -65 80z" />
    <glyph glyph-name="uni277C" unicode="&#x277c;" horiz-adv-x="922" 
d="M256.5 -2.5q-93.5 54.5 -148 148t-54.5 204.5t54.5 204.5t148 148t204.5 54.5t204.5 -54.5t148 -148t54.5 -204.5t-54.5 -204.5t-148 -148t-204.5 -54.5t-204.5 54.5zM501 126q1 127 30.5 211.5t98.5 178.5v58h-338v-89h235q-65 -74 -102 -161t-43 -198h119z" />
    <glyph glyph-name="uni277D" unicode="&#x277d;" horiz-adv-x="922" 
d="M256.5 -2.5q-93.5 54.5 -148 148t-54.5 204.5t54.5 204.5t148 148t204.5 54.5t204.5 -54.5t148 -148t54.5 -204.5t-54.5 -204.5t-148 -148t-204.5 -54.5t-204.5 54.5zM592 156q51 38 51 106q0 82 -86 119q33 13 51 35.5t18 52.5q0 53 -43.5 83t-120.5 30
q-74 0 -120 -34.5t-46 -93.5q0 -72 67 -104q-39 -15 -61.5 -42.5t-22.5 -63.5q0 -60 48.5 -93t133.5 -33q80 0 131 38zM455 410q-28 8 -40.5 19.5t-12.5 29.5q0 22 16.5 35t43.5 13t43 -13t16 -36q0 -35 -42 -53zM410 213q-19 16 -19 43q0 46 50 68l25 -6q63 -16 63 -63
q0 -27 -18.5 -42.5t-49.5 -15.5q-32 0 -51 16z" />
    <glyph glyph-name="uni277E" unicode="&#x277e;" horiz-adv-x="922" 
d="M256.5 -2.5q-93.5 54.5 -148 148t-54.5 204.5t54.5 204.5t148 148t204.5 54.5t204.5 -54.5t148 -148t54.5 -204.5t-54.5 -204.5t-148 -148t-204.5 -54.5t-204.5 54.5zM590.5 183.5q53.5 65.5 53.5 179.5q0 108 -47.5 163.5t-137.5 55.5q-80 0 -130.5 -44t-50.5 -116
q0 -63 35.5 -101t96.5 -38q39 0 68 18t45 51h1q-1 -74 -21 -112t-58 -38q-45 0 -58 53l-102 -38q34 -99 160 -99q92 0 145.5 65.5zM410.5 372q-16.5 18 -16.5 49q0 36 17.5 56t47.5 20q57 0 65 -80q-7 -32 -25.5 -47.5t-43.5 -15.5q-28 0 -44.5 18z" />
    <glyph glyph-name="uniF001" unicode="&#xf001;" horiz-adv-x="1029" 
d="M410 373q0 -46 -24.5 -81.5t-69 -55.5t-103.5 -20q-77 0 -126 30.5t-69 85.5l87 45q13 -39 41 -59t67 -20q32 0 52 14t20 38q0 39 -59 51l-55 11q-142 30 -142 148q0 69 51.5 108.5t131.5 39.5q68 0 115.5 -26.5t68.5 -75.5l-90 -40q-23 62 -93 62q-30 0 -47.5 -12
t-17.5 -33q0 -18 13.5 -28.5t41.5 -16.5l54 -12q153 -33 153 -153zM809 600h-122v-376h-130v376h-122v100h374v-100zM966 381v-157h-155v157h155z" />
    <glyph glyph-name="uniF002" unicode="&#xf002;" horiz-adv-x="1423" 
d="M765 472.5q39 -37.5 39 -99.5q0 -46 -24.5 -81.5t-69 -55.5t-103.5 -20q-77 0 -126.5 31t-68.5 85l87 45q13 -39 40.5 -59t66.5 -20q33 0 52.5 14t19.5 38q0 39 -59 51l-54 11q-142 30 -142 148q0 69 51.5 108.5t131.5 39.5q68 0 115 -26.5t68 -75.5l-89 -40
q-25 62 -94 62q-30 0 -47 -12.5t-17 -32.5q0 -18 13.5 -28.5t41.5 -16.5l53 -12q76 -16 115 -53.5zM177 320h196v-96h-326v476h319v-95h-189v-91h127v-73h-127v-121zM1203 600h-121v-376h-131v376h-121v100h373v-100zM1360 381v-157h-155v157h155z" />
    <glyph glyph-name="uniF003" unicode="&#xf003;" horiz-adv-x="1453" 
d="M177 321h194v-97h-324v476h130v-379zM703 600h-121v-376h-131v376h-121v100h373v-100zM1118.5 640.5q56.5 -59.5 56.5 -178.5t-56.5 -178.5t-162.5 -59.5h-187v476h187q106 0 162.5 -59.5zM1019.5 354.5q24.5 33.5 24.5 107.5t-24.5 107.5t-74.5 33.5h-45v-282h45
q50 0 74.5 33.5zM1390 381v-157h-154v157h154z" />
    <glyph glyph-name="uniF004" unicode="&#xf004;" horiz-adv-x="1227" 
d="M81.5 279q-56.5 63 -56.5 177q0 80 29.5 137t81 86t117.5 29q78 0 129 -39.5t66 -118.5l-116 -30q-14 85 -79 85q-43 0 -67.5 -37.5t-24.5 -111.5q0 -136 88 -136q66 0 85 96l118 -27q-19 -88 -76 -130.5t-138 -42.5q-100 0 -156.5 63zM558.5 282.5
q-61.5 66.5 -61.5 179.5t61.5 179.5t166.5 66.5q104 0 165 -66.5t61 -179.5t-61 -179.5t-165 -66.5q-105 0 -166.5 66.5zM792.5 357.5q23.5 36.5 23.5 104.5t-23.5 104.5t-67.5 36.5q-45 0 -68.5 -36.5t-23.5 -104.5t23.5 -104.5t68.5 -36.5q44 0 67.5 36.5zM1009 381h155
v-157h-155v157z" />
    <glyph glyph-name="uniF005" unicode="&#xf005;" horiz-adv-x="1953" 
d="M765 472.5q39 -37.5 39 -99.5q0 -46 -24.5 -81.5t-69 -55.5t-103.5 -20q-77 0 -126.5 31t-68.5 85l87 45q13 -39 40.5 -59t66.5 -20q33 0 52.5 14t19.5 38q0 39 -59 51l-54 11q-142 30 -142 148q0 69 51.5 108.5t131.5 39.5q68 0 115 -26.5t68 -75.5l-89 -40
q-25 62 -94 62q-30 0 -47 -12.5t-17 -32.5q0 -18 13.5 -28.5t41.5 -16.5l53 -12q76 -16 115 -53.5zM177 320h196v-96h-326v476h319v-95h-189v-91h127v-73h-127v-121zM1203 600h-122v-376h-130v376h-122v100h374v-100zM1617.5 640.5q56.5 -59.5 56.5 -178.5t-56.5 -178.5
t-161.5 -59.5h-187v476h187q105 0 161.5 -59.5zM1519.5 354.5q24.5 33.5 24.5 107.5t-24.5 107.5t-75.5 33.5h-45v-282h45q51 0 75.5 33.5zM1890 381v-157h-155v157h155z" />
    <glyph glyph-name="uniF006" unicode="&#xf006;" horiz-adv-x="1196" 
d="M415 330q2 -35 8 -57.5t26 -42.5v-6h-138q-11 21 -13.5 46t-2.5 67v32q2 31 -9.5 45t-44.5 14h-68v-204h-125v476h217q82 0 127 -31.5t45 -92.5q0 -45 -30.5 -74.5t-82.5 -37.5v-1q49 -7 68.5 -33.5t21.5 -70.5zM861.5 640.5q56.5 -59.5 56.5 -178.5t-56.5 -178.5
t-162.5 -59.5h-187v476h187q106 0 162.5 -59.5zM313 558q0 26 -17 38.5t-49 12.5h-74v-106h74q66 0 66 55zM762.5 354.5q24.5 33.5 24.5 107.5t-24.5 107.5t-75.5 33.5h-45v-282h45q51 0 75.5 33.5zM1133 381v-157h-154v157h154z" />
    <glyph glyph-name="uniF007" unicode="&#xf007;" horiz-adv-x="1473" 
d="M1082 416l118 -27q-19 -88 -76 -130.5t-138 -42.5q-100 0 -156 63t-56 177q0 80 29 137t80.5 86t117.5 29q78 0 129.5 -39.5t66.5 -118.5l-116 -30q-14 85 -79 85q-43 0 -67.5 -37.5t-24.5 -111.5q0 -136 87 -136q67 0 85 96zM72 700h130v-476h-130v476zM603 700h99v-476
h-133l-175 328v-328h-99v476h155l153 -285v285zM1410 381v-157h-155v157h155z" />
    <glyph glyph-name="uniF8FF" unicode="&#xf8ff;" horiz-adv-x="735" 
d="M78.5 6.5q-6.5 6.5 -6.5 15.5v595q0 7 4.5 13.5t11.5 8.5l270 78l10 2l10 -2l270 -78q7 -2 11.5 -8.5t4.5 -13.5v-595q0 -9 -6.5 -15.5t-15.5 -6.5l-7 1l-267 77l-267 -77l-7 -1q-9 0 -15.5 6.5zM346 669l-230 -67q4 -62 35 -114t82.5 -84.5t112.5 -37.5v303z
M502.5 403.5q51.5 32.5 82.5 84.5t35 114l-230 67v-303q61 5 112.5 37.5zM346 118v204q-73 6 -134 43.5t-97 97.5v-412zM621 463q-37 -60 -97.5 -97.5t-133.5 -43.5v-204l231 -67v412z" />
    <glyph glyph-name="i.loclTRK" horiz-adv-x="277" 
d="M62 510h153v-510h-153v510zM67 717h143v-134h-143v134z" />
    <glyph glyph-name="a.sup" horiz-adv-x="419" 
d="M399 357q-33 -21 -69 -21q-37 0 -58.5 18t-23.5 52h-1q-15 -35 -44 -53t-66 -18q-50 0 -78.5 27t-28.5 71q0 58 41 83t105 35q30 5 42 10t19 17v12q0 42 -41 42q-24 0 -40.5 -15.5t-24.5 -44.5l-84 29q17 50 58 78.5t101 28.5q66 0 101 -30.5t35 -89.5v-154q0 -23 17 -23
q9 0 23 8zM215.5 416.5q16.5 13.5 21.5 44.5v72h-1q-5 -10 -15 -16.5t-32 -14.5q-31 -10 -44 -23t-13 -33t12.5 -31.5t33.5 -11.5t37.5 13.5z" />
    <glyph glyph-name="b.sup" horiz-adv-x="432" 
d="M366.5 659q34.5 -50 34.5 -137q0 -86 -37.5 -136.5t-102.5 -50.5q-36 0 -63 17.5t-38 51.5h-1l-12 -61h-93v518h112v-227h1q12 36 40 55.5t63 19.5q62 0 96.5 -50zM285 522q0 50 -15 76.5t-43 26.5q-27 0 -43.5 -24.5t-17.5 -67.5v-24q2 -44 18 -67t43 -23q58 0 58 103z
" />
    <glyph glyph-name="c.sup" horiz-adv-x="390" 
d="M75 385q-44 50 -44 137q0 56 22.5 98.5t62.5 65t91 22.5q60 0 99.5 -28t52.5 -86l-90 -25q-13 60 -57 60q-33 0 -51 -27.5t-18 -79.5q0 -51 16.5 -78.5t48.5 -27.5q48 0 65 69l89 -28q-16 -59 -59 -90.5t-105 -31.5q-79 0 -123 50z" />
    <glyph glyph-name="d.sup" horiz-adv-x="430" 
d="M378 861v-518h-108v66h-1q-12 -36 -38.5 -55t-61.5 -19q-65 0 -101.5 50t-36.5 137q0 86 37.5 136.5t101.5 50.5q72 0 95 -73h1v225h112zM266 533q-2 44 -17 68t-42 24q-29 0 -45 -26.5t-16 -76.5t16 -76.5t45 -26.5q54 0 59 91v23z" />
    <glyph glyph-name="e.sup" horiz-adv-x="394" 
d="M362 437q-19 -48 -59.5 -75t-101.5 -27q-82 0 -126 50.5t-44 136.5q0 83 48.5 135t126.5 52q74 0 114.5 -45t40.5 -120q0 -11 -2 -35h-213q1 -45 17.5 -70.5t48.5 -25.5q49 0 68 59zM166.5 614.5q-15.5 -19.5 -18.5 -54.5h113q-2 74 -53 74q-26 0 -41.5 -19.5z" />
    <glyph glyph-name="f.sup" horiz-adv-x="325" 
d="M210 700h84v-69h-84v-288h-109v288h-64v69h64v41q0 63 36 95.5t95 32.5q40 0 74 -17l-21 -75q-16 9 -36 9q-18 0 -28.5 -11.5t-10.5 -33.5v-41z" />
    <glyph glyph-name="g.sup" horiz-adv-x="400" 
d="M359.5 392q32.5 -25 32.5 -73q0 -60 -55.5 -92t-149.5 -32q-167 0 -167 73q0 22 16 36t42 20v1q-24 8 -37.5 25t-13.5 42q0 59 75 84q-29 16 -45 43.5t-16 63.5q0 59 41 92.5t114 33.5q52 0 89 -17q-5 18 -5 30q0 29 18 47t49 18q30 0 51 -16l-23 -68q-18 15 -34 15
q-15 0 -25 -10t-10 -30q44 -32 44 -95q0 -60 -40.5 -93.5t-113.5 -33.5q-38 0 -71 10q-14 -10 -14 -24q0 -25 38 -25h118q60 0 92.5 -25zM157.5 627.5q-13.5 -15.5 -13.5 -44.5t13.5 -45t37.5 -16t37.5 15.5t13.5 45.5q0 28 -13.5 44t-37.5 16t-37.5 -15.5zM292 291
q0 28 -45 28h-127h-9q-17 -11 -17 -29q0 -42 93 -42q105 0 105 43z" />
    <glyph glyph-name="h.sup" horiz-adv-x="433" 
d="M352 676q29 -32 29 -90v-243h-110v223q0 26 -11 39.5t-31 13.5q-29 0 -47 -27t-19 -83v-166h-109v518h109v-235h1q12 36 39.5 59t69.5 23q50 0 79 -32z" />
    <glyph glyph-name="i.sup" horiz-adv-x="207" 
d="M47 851h114v-102h-114v102zM50 700h109v-357h-109v357z" />
    <glyph glyph-name="j.sup" horiz-adv-x="207" 
d="M47 851h114v-102h-114v102zM-42 218l24 70q18 -11 35 -11q32 0 32 40v383h110v-382q0 -62 -33.5 -92.5t-85.5 -30.5q-47 0 -82 23z" />
    <glyph glyph-name="k.sup" horiz-adv-x="415" 
d="M279 567l113 -224h-118l-72 151l-36 -41v-110h-112v518h112v-296l113 135h113z" />
    <glyph glyph-name="l.sup" horiz-adv-x="215" 
d="M163 861v-518h-109v518h109z" />
    <glyph glyph-name="m.sup" horiz-adv-x="610" 
d="M530.5 680q27.5 -28 27.5 -86v-251h-109v231q0 24 -9.5 36t-25.5 12q-50 0 -53 -90v-189h-109v231q0 24 -10 36t-26 12q-51 0 -53 -94v-185h-109v357h105v-72h1q13 38 38.5 59t62.5 21q38 0 62.5 -20.5t31.5 -58.5h2q13 38 40 58.5t62 20.5q44 0 71.5 -28z" />
    <glyph glyph-name="n.sup" horiz-adv-x="432" 
d="M350.5 676.5q29.5 -31.5 29.5 -90.5v-243h-109v228q0 25 -11.5 39t-31.5 14q-29 0 -46.5 -26.5t-18.5 -81.5v-173h-109v357h105v-74h1q15 37 42.5 59.5t69.5 22.5q49 0 78.5 -31.5z" />
    <glyph glyph-name="o.sup" horiz-adv-x="414" 
d="M78 384.5q-47 49.5 -47 137.5q0 87 47 136.5t129 49.5t129 -49.5t47 -136.5q0 -88 -47 -137.5t-129 -49.5t-129 49.5zM255 444q17 27 17 78t-17 78t-48 27t-48 -27.5t-17 -77.5q0 -51 16.5 -78t48.5 -27q31 0 48 27z" />
    <glyph glyph-name="p.sup" horiz-adv-x="432" 
d="M365.5 658.5q34.5 -50.5 34.5 -137.5q0 -86 -36.5 -136t-100.5 -50q-36 0 -60.5 18.5t-35.5 53.5h-1v-204h-112v497h108v-67h1q12 36 40 56t64 20q64 0 98.5 -50.5zM270 445q15 26 15 76q0 51 -15 77.5t-44 26.5q-27 0 -42.5 -23.5t-17.5 -68.5v-23q2 -43 17.5 -67
t42.5 -24q29 0 44 26z" />
    <glyph glyph-name="q.sup" horiz-adv-x="432" 
d="M378 700v-497h-112v206h-1q-12 -36 -39 -55t-62 -19q-62 0 -97.5 50t-35.5 136q0 85 39.5 136.5t104.5 51.5q35 0 60 -17.5t37 -52.5l12 61h94zM249 443q16 24 17 67v25q-2 43 -17.5 66.5t-41.5 23.5q-29 0 -45 -26.5t-16 -77.5q0 -50 16 -76t45 -26q26 0 42 24z" />
    <glyph glyph-name="r.sup" horiz-adv-x="333" 
d="M322 682l-41 -86q-25 24 -51 24q-29 0 -48 -30.5t-19 -97.5v-149h-109v357h104v-84h1q11 49 35.5 70.5t60.5 21.5t67 -26z" />
    <glyph glyph-name="s.sup" horiz-adv-x="367" 
d="M89.5 356q-38.5 21 -57.5 60l64 44q26 -59 86 -59q26 0 40.5 11t14.5 29q0 14 -10 22t-32 13l-45 9q-108 21 -108 108q0 54 40 84.5t99 30.5q46 0 83.5 -17.5t56.5 -48.5l-63 -40q-24 43 -75 43q-23 0 -35.5 -9t-12.5 -24q0 -13 9 -20t28 -11l49 -9q113 -22 113 -115
q0 -57 -42.5 -89.5t-107.5 -32.5q-56 0 -94.5 21z" />
    <glyph glyph-name="t.sup" horiz-adv-x="327" 
d="M293 356q-42 -21 -85 -21q-55 0 -83.5 28.5t-28.5 84.5v183h-59v69h59v101h110v-101h77v-69h-77v-180q0 -36 33 -36q13 0 37 10z" />
    <glyph glyph-name="u.sup" horiz-adv-x="432" 
d="M378 700v-357h-105v74h-1q-15 -37 -42.5 -59.5t-69.5 -22.5q-49 0 -78.5 32t-29.5 90v243h109v-227q0 -26 11.5 -39.5t32.5 -13.5q28 0 45.5 26t18.5 81v173h109z" />
    <glyph glyph-name="v.sup" horiz-adv-x="413" 
d="M386 700l-119 -357h-121l-120 357h115l75 -247l79 247h91z" />
    <glyph glyph-name="w.sup" horiz-adv-x="555" 
d="M528 700l-86 -357h-104l-59 207l-60 -207h-106l-87 357h110l51 -229l68 229h70l67 -230l52 230h84z" />
    <glyph glyph-name="x.sup" horiz-adv-x="406" 
d="M263 343l-70 113l-70 -113h-103l118 183l-104 174h119l62 -103l65 103h95l-106 -168l117 -189h-123z" />
    <glyph glyph-name="y.sup" horiz-adv-x="415" 
d="M393 700l-145 -388q-21 -58 -58.5 -87.5t-86.5 -29.5q-58 0 -87 35l36 70q23 -25 50 -25q19 0 33 13.5t28 42.5l-138 369h121l74 -218l77 218h96z" />
    <glyph glyph-name="z.sup" horiz-adv-x="359" 
d="M314 416v-73h-279v68l151 218h-146v71h273v-61l-156 -223h157z" />
    <glyph glyph-name="f_f.dlig" horiz-adv-x="814" 
d="M654 510h125v-96h-125v-414h-154v414h-216v-414h-153v414h-98v96h98v55q0 94 50.5 140.5t134.5 46.5q63 0 117 -33l-30 -102q-31 20 -60 20q-28 0 -43.5 -18.5t-15.5 -53.5v-55h216v55q0 94 50.5 140.5t134.5 46.5q63 0 117 -33l-30 -102q-31 20 -59 20q-29 0 -44 -18
t-15 -54v-55z" />
    <glyph glyph-name="t_t.dlig" horiz-adv-x="809" 
d="M785 25q-68 -37 -135 -37q-156 0 -156 161v265h-212v-259q0 -57 48 -57q17 0 32 5t34 16l24 -94q-66 -37 -134 -37q-157 0 -157 161v265h-96v96h96v143h153v-143h212v143h153v-143h119v-96h-119v-259q0 -57 48 -57q17 0 31.5 5t33.5 16z" />
    <glyph glyph-name="a.sc" horiz-adv-x="551" 
d="M344 118h-170l-34 -118h-126l179 560h168l176 -560h-159zM320 203l-61 214l-61 -214h122z" />
    <glyph glyph-name="aacute.sc" horiz-adv-x="551" 
d="M344 118h-170l-34 -118h-126l179 560h168l176 -560h-159zM320 203l-61 214l-61 -214h122zM305 623h-64l32 147h138z" />
    <glyph glyph-name="abreve.sc" horiz-adv-x="551" 
d="M344 118h-170l-34 -118h-126l179 560h168l176 -560h-159zM320 203l-61 214l-61 -214h122zM180.5 668q-35.5 33 -37.5 91h81q2 -26 15.5 -40.5t38.5 -14.5t38.5 14.5t15.5 40.5h81q-1 -58 -37 -91t-98 -33t-97.5 33z" />
    <glyph glyph-name="acircumflex.sc" horiz-adv-x="551" 
d="M344 118h-170l-34 -118h-126l179 560h168l176 -560h-159zM320 203l-61 214l-61 -214h122zM330 630l-55 59l-56 -59h-82l88 133h99l88 -133h-82z" />
    <glyph glyph-name="adieresis.sc" horiz-adv-x="551" 
d="M344 118h-170l-34 -118h-126l179 560h168l176 -560h-159zM320 203l-61 214l-61 -214h122zM114 759h125v-124h-125v124zM310 759h126v-124h-126v124z" />
    <glyph glyph-name="agrave.sc" horiz-adv-x="551" 
d="M344 118h-170l-34 -118h-126l179 560h168l176 -560h-159zM320 203l-61 214l-61 -214h122zM277 770l31 -147h-64l-106 147h139z" />
    <glyph glyph-name="amacron.sc" horiz-adv-x="551" 
d="M344 118h-170l-34 -118h-126l179 560h168l176 -560h-159zM320 203l-61 214l-61 -214h122zM130 737h290v-79h-290v79z" />
    <glyph glyph-name="aogonek.sc" horiz-adv-x="551" 
d="M473.5 -127.5q14.5 -14.5 44.5 -14.5q18 0 48 8l-7 -61q-45 -13 -80 -13q-55 0 -83 28t-28 74q0 31 19 58.5t53 47.5h-62l-34 118h-170l-34 -118h-126l179 560h168l176 -560q-41 -22 -59.5 -43t-18.5 -46q0 -24 14.5 -38.5zM320 203l-61 214l-61 -214h122z" />
    <glyph glyph-name="aring.sc" horiz-adv-x="551" 
d="M344 118h-170l-34 -118h-126l179 560h168l176 -560h-159zM320 203l-61 214l-61 -214h122zM207.5 630q-27.5 26 -27.5 67t27.5 66.5t69.5 25.5q40 0 67 -26t27 -66q0 -42 -26.5 -67.5t-67.5 -25.5q-42 0 -69.5 26zM304.5 666.5q10.5 11.5 10.5 30.5q0 18 -10.5 29.5
t-27.5 11.5q-18 0 -29.5 -11.5t-11.5 -29.5q0 -19 11.5 -30.5t29.5 -11.5q17 0 27.5 11.5z" />
    <glyph glyph-name="atilde.sc" horiz-adv-x="551" 
d="M344 118h-170l-34 -118h-126l179 560h168l176 -560h-159zM320 203l-61 214l-61 -214h122zM108 647q5 59 29.5 91t69.5 32q25 0 45 -8.5t42 -28.5l23 -21q11 -10 18 -13.5t15 -3.5q16 0 23.5 16.5t9.5 58.5l61 -24q-4 -58 -29 -90.5t-70 -32.5q-24 0 -44.5 9t-41.5 29
l-23 21q-12 10 -19 13.5t-15 3.5q-16 0 -23.5 -17t-8.5 -59z" />
    <glyph glyph-name="ae.sc" horiz-adv-x="744" 
d="M710 111v-111h-332l-34 118h-170l-34 -118h-126l179 560h508v-111h-305l35 -111h197v-85h-171l45 -142h208zM320 203l-61 214l-61 -214h122z" />
    <glyph glyph-name="aeacute.sc" horiz-adv-x="744" 
d="M710 111v-111h-332l-34 118h-170l-34 -118h-126l179 560h508v-111h-305l35 -111h197v-85h-171l45 -142h208zM320 203l-61 214l-61 -214h122zM411 623h-64l32 147h138z" />
    <glyph glyph-name="b.sc" horiz-adv-x="553" 
d="M484.5 259.5q35.5 -35.5 35.5 -91.5q0 -75 -57.5 -121.5t-160.5 -46.5h-236v560h249q86 0 134.5 -35.5t48.5 -101.5q0 -42 -28 -75t-86 -43v-2q65 -8 100.5 -43.5zM344.5 443q-19.5 15 -55.5 15h-78v-117h78q36 0 55.5 15t19.5 43q0 29 -19.5 44zM352.5 121.5
q23.5 19.5 23.5 56.5t-23 56.5t-67 19.5h-75v-152h73q45 0 68.5 19.5z" />
    <glyph glyph-name="c.sc" horiz-adv-x="576" 
d="M104 63q-67 75 -67 209q0 94 35 161.5t96.5 103t140.5 35.5q92 0 154 -48t79 -140l-137 -35q-17 101 -95 101q-51 0 -82 -45.5t-31 -132.5q0 -77 27 -118t79 -41q82 0 103 113l140 -31q-22 -104 -90 -155.5t-165 -51.5q-120 0 -187 75z" />
    <glyph glyph-name="cacute.sc" horiz-adv-x="576" 
d="M104 63q-67 75 -67 209q0 94 35 161.5t96.5 103t140.5 35.5q92 0 154 -48t79 -140l-137 -35q-17 101 -95 101q-51 0 -82 -45.5t-31 -132.5q0 -77 27 -118t79 -41q82 0 103 113l140 -31q-22 -104 -90 -155.5t-165 -51.5q-120 0 -187 75zM335 623h-64l32 147h138z" />
    <glyph glyph-name="ccaron.sc" horiz-adv-x="576" 
d="M104 63q-67 75 -67 209q0 94 35 161.5t96.5 103t140.5 35.5q92 0 154 -48t79 -140l-137 -35q-17 101 -95 101q-51 0 -82 -45.5t-31 -132.5q0 -77 27 -118t79 -41q82 0 103 113l140 -31q-22 -104 -90 -155.5t-165 -51.5q-120 0 -187 75zM442 763l-88 -133h-99l-88 133h82
l56 -59l55 59h82z" />
    <glyph glyph-name="ccedilla.sc" horiz-adv-x="576" 
d="M465 47.5q-60 -51.5 -146 -58.5l-43 -60q30 9 55 9q44 0 71.5 -22t27.5 -54q0 -45 -40 -68t-103 -23q-77 0 -132 37l23 54q47 -35 108 -35q25 0 39 9.5t14 25.5q0 13 -12 21t-32 8q-29 0 -64 -16l-29 36l57 78q-105 11 -163.5 84.5t-58.5 198.5q0 94 35 161.5t96.5 103
t140.5 35.5q92 0 154 -48t79 -140l-137 -35q-17 101 -95 101q-51 0 -82 -45.5t-31 -132.5q0 -77 27 -118t79 -41q82 0 103 113l140 -31q-21 -96 -81 -147.5z" />
    <glyph glyph-name="ccircumflex.sc" horiz-adv-x="576" 
d="M104 63q-67 75 -67 209q0 94 35 161.5t96.5 103t140.5 35.5q92 0 154 -48t79 -140l-137 -35q-17 101 -95 101q-51 0 -82 -45.5t-31 -132.5q0 -77 27 -118t79 -41q82 0 103 113l140 -31q-22 -104 -90 -155.5t-165 -51.5q-120 0 -187 75zM360 630l-55 59l-56 -59h-82
l88 133h99l88 -133h-82z" />
    <glyph glyph-name="cdotaccent.sc" horiz-adv-x="576" 
d="M104 63q-67 75 -67 209q0 94 35 161.5t96.5 103t140.5 35.5q92 0 154 -48t79 -140l-137 -35q-17 101 -95 101q-51 0 -82 -45.5t-31 -132.5q0 -77 27 -118t79 -41q82 0 103 113l140 -31q-22 -104 -90 -155.5t-165 -51.5q-120 0 -187 75zM234 767h143v-134h-143v134z" />
    <glyph glyph-name="d.sc" horiz-adv-x="585" 
d="M480 490.5q68 -69.5 68 -210.5t-68 -210.5t-194 -69.5h-220v560h220q126 0 194 -69.5zM367.5 152q31.5 40 31.5 128t-31.5 128t-95.5 40h-57v-336h57q64 0 95.5 40z" />
    <glyph glyph-name="eth.sc" horiz-adv-x="595" 
d="M490 490.5q68 -69.5 68 -210.5t-68 -210.5t-194 -69.5h-220v251h-76v58h76v251h220q126 0 194 -69.5zM377.5 152q31.5 40 31.5 128t-31.5 128t-95.5 40h-57v-139h93v-58h-93v-139h57q64 0 95.5 40z" />
    <glyph glyph-name="dcaron.sc" horiz-adv-x="585" 
d="M480 490.5q68 -69.5 68 -210.5t-68 -210.5t-194 -69.5h-220v560h220q126 0 194 -69.5zM367.5 152q31.5 40 31.5 128t-31.5 128t-95.5 40h-57v-336h57q64 0 95.5 40zM412 763l-88 -133h-99l-88 133h82l56 -59l55 59h82z" />
    <glyph glyph-name="dcroat.sc" horiz-adv-x="595" 
d="M490 490.5q68 -69.5 68 -210.5t-68 -210.5t-194 -69.5h-220v251h-76v58h76v251h220q126 0 194 -69.5zM377.5 152q31.5 40 31.5 128t-31.5 128t-95.5 40h-57v-139h93v-58h-93v-139h57q64 0 95.5 40z" />
    <glyph glyph-name="e.sc" horiz-adv-x="488" 
d="M454 111v-111h-389v560h380v-111h-227v-111h154v-85h-154v-142h236z" />
    <glyph glyph-name="eacute.sc" horiz-adv-x="488" 
d="M454 111v-111h-389v560h380v-111h-227v-111h154v-85h-154v-142h236zM292 623h-64l32 147h138z" />
    <glyph glyph-name="ebreve.sc" horiz-adv-x="488" 
d="M454 111v-111h-389v560h380v-111h-227v-111h154v-85h-154v-142h236zM166.5 668q-35.5 33 -37.5 91h81q2 -26 15.5 -40.5t38.5 -14.5t38.5 14.5t15.5 40.5h81q-1 -58 -37 -91t-98 -33t-97.5 33z" />
    <glyph glyph-name="ecaron.sc" horiz-adv-x="488" 
d="M454 111v-111h-389v560h380v-111h-227v-111h154v-85h-154v-142h236zM399 763l-88 -133h-99l-88 133h82l56 -59l55 59h82z" />
    <glyph glyph-name="ecircumflex.sc" horiz-adv-x="488" 
d="M454 111v-111h-389v560h380v-111h-227v-111h154v-85h-154v-142h236zM317 630l-55 59l-56 -59h-82l88 133h99l88 -133h-82z" />
    <glyph glyph-name="edieresis.sc" horiz-adv-x="488" 
d="M454 111v-111h-389v560h380v-111h-227v-111h154v-85h-154v-142h236zM101 759h125v-124h-125v124zM297 759h126v-124h-126v124z" />
    <glyph glyph-name="edotaccent.sc" horiz-adv-x="488" 
d="M454 111v-111h-389v560h380v-111h-227v-111h154v-85h-154v-142h236zM190 767h143v-134h-143v134z" />
    <glyph glyph-name="egrave.sc" horiz-adv-x="488" 
d="M454 111v-111h-389v560h380v-111h-227v-111h154v-85h-154v-142h236zM263 770l31 -147h-64l-106 147h139z" />
    <glyph glyph-name="emacron.sc" horiz-adv-x="488" 
d="M454 111v-111h-389v560h380v-111h-227v-111h154v-85h-154v-142h236zM117 737h290v-79h-290v79z" />
    <glyph glyph-name="eogonek.sc" horiz-adv-x="488" 
d="M390.5 -127.5q14.5 -14.5 44.5 -14.5q18 0 48 8l-7 -61q-45 -13 -80 -13q-55 0 -83 28t-28 74q0 31 19 58.5t53 47.5h-292v560h380v-111h-227v-111h154v-85h-154v-142h236v-111q-41 -22 -59.5 -43t-18.5 -46q0 -24 14.5 -38.5z" />
    <glyph glyph-name="f.sc" horiz-adv-x="488" 
d="M220 447v-123h158v-89h-158v-235h-154v560h390v-113h-236z" />
    <glyph glyph-name="g.sc" horiz-adv-x="590" 
d="M537 280v-280h-105l-13 108h-1q-20 -56 -60 -88t-101 -32q-103 0 -161.5 76t-58.5 207q0 92 34.5 160t95.5 104.5t139 36.5q89 0 150.5 -46.5t78.5 -130.5l-132 -32q-8 46 -33 70t-62 24q-58 0 -89 -49t-31 -137q0 -86 30 -129.5t87 -43.5q40 0 67 23.5t33 72.5h-114v86
h246z" />
    <glyph glyph-name="gbreve.sc" horiz-adv-x="590" 
d="M537 280v-280h-105l-13 108h-1q-20 -56 -60 -88t-101 -32q-103 0 -161.5 76t-58.5 207q0 92 34.5 160t95.5 104.5t139 36.5q89 0 150.5 -46.5t78.5 -130.5l-132 -32q-8 46 -33 70t-62 24q-58 0 -89 -49t-31 -137q0 -86 30 -129.5t87 -43.5q40 0 67 23.5t33 72.5h-114v86
h246zM212.5 668q-35.5 33 -37.5 91h81q2 -26 15.5 -40.5t38.5 -14.5t38.5 14.5t15.5 40.5h81q-1 -58 -37 -91t-98 -33t-97.5 33z" />
    <glyph glyph-name="gcircumflex.sc" horiz-adv-x="590" 
d="M537 280v-280h-105l-13 108h-1q-20 -56 -60 -88t-101 -32q-103 0 -161.5 76t-58.5 207q0 92 34.5 160t95.5 104.5t139 36.5q89 0 150.5 -46.5t78.5 -130.5l-132 -32q-8 46 -33 70t-62 24q-58 0 -89 -49t-31 -137q0 -86 30 -129.5t87 -43.5q40 0 67 23.5t33 72.5h-114v86
h246zM362 630l-55 59l-56 -59h-82l88 133h99l88 -133h-82z" />
    <glyph glyph-name="uni0123.sc" horiz-adv-x="590" 
d="M537 280v-280h-105l-13 108h-1q-20 -56 -60 -88t-101 -32q-103 0 -161.5 76t-58.5 207q0 92 34.5 160t95.5 104.5t139 36.5q89 0 150.5 -46.5t78.5 -130.5l-132 -32q-8 46 -33 70t-62 24q-58 0 -89 -49t-31 -137q0 -86 30 -129.5t87 -43.5q40 0 67 23.5t33 72.5h-114v86
h246zM369 -59v-129q-17 -41 -39 -75t-55 -72l-55 47q39 28 62.5 50.5t42.5 51.5h-94v127h138z" />
    <glyph glyph-name="gdotaccent.sc" horiz-adv-x="590" 
d="M537 280v-280h-105l-13 108h-1q-20 -56 -60 -88t-101 -32q-103 0 -161.5 76t-58.5 207q0 92 34.5 160t95.5 104.5t139 36.5q89 0 150.5 -46.5t78.5 -130.5l-132 -32q-8 46 -33 70t-62 24q-58 0 -89 -49t-31 -137q0 -86 30 -129.5t87 -43.5q40 0 67 23.5t33 72.5h-114v86
h246zM236 767h143v-134h-143v134z" />
    <glyph glyph-name="h.sc" horiz-adv-x="605" 
d="M539 560v-560h-153v242h-166v-242h-154v560h154v-213h166v213h153z" />
    <glyph glyph-name="hbar.sc" horiz-adv-x="628" 
d="M628 414h-73v-414h-153v242h-166v-242h-154v414h-82v58h82v88h154v-88h166v88h153v-88h73v-58zM402 414h-166v-67h166v67z" />
    <glyph glyph-name="hcircumflex.sc" horiz-adv-x="605" 
d="M539 560v-560h-153v242h-166v-242h-154v560h154v-213h166v213h153zM358 630l-55 59l-56 -59h-82l88 133h99l88 -133h-82z" />
    <glyph glyph-name="i.sc" horiz-adv-x="286" 
d="M66 560h154v-560h-154v560z" />
    <glyph glyph-name="iacute.sc" horiz-adv-x="286" 
d="M66 560h154v-560h-154v560zM173 623h-64l32 147h138z" />
    <glyph glyph-name="ibreve.sc" horiz-adv-x="286" 
d="M66 560h154v-560h-154v560zM47.5 668q-35.5 33 -37.5 91h81q2 -26 15.5 -40.5t38.5 -14.5t38.5 14.5t15.5 40.5h81q-1 -58 -37 -91t-98 -33t-97.5 33z" />
    <glyph glyph-name="icircumflex.sc" horiz-adv-x="286" 
d="M66 560h154v-560h-154v560zM198 630l-55 59l-56 -59h-82l88 133h99l88 -133h-82z" />
    <glyph glyph-name="idieresis.sc" horiz-adv-x="286" 
d="M66 560h154v-560h-154v560zM-18 759h125v-124h-125v124zM178 759h126v-124h-126v124z" />
    <glyph glyph-name="i.sc.loclTRK" horiz-adv-x="286" 
d="M66 560h154v-560h-154v560zM71 767h143v-134h-143v134z" />
    <glyph glyph-name="igrave.sc" horiz-adv-x="286" 
d="M66 560h154v-560h-154v560zM144 770l31 -147h-64l-106 147h139z" />
    <glyph glyph-name="ij.sc" horiz-adv-x="783" 
d="M66 560h154v-560h-154v560zM357 37.5q-52 49.5 -52 146.5v14l132 27v-41q0 -41 17 -61.5t49 -20.5t48.5 20t16.5 59v379h154v-372q0 -96 -58 -148t-157 -52q-98 0 -150 49.5z" />
    <glyph glyph-name="imacron.sc" horiz-adv-x="286" 
d="M66 560h154v-560h-154v560zM-2 737h290v-79h-290v79z" />
    <glyph glyph-name="iogonek.sc" horiz-adv-x="286" 
d="M155.5 -127.5q14.5 -14.5 44.5 -14.5q18 0 48 8l-7 -61q-45 -13 -80 -13q-54 0 -82 28t-28 74q0 31 19 58.5t53 47.5h-57v560h154v-560q-42 -22 -60.5 -43t-18.5 -46q0 -24 14.5 -38.5z" />
    <glyph glyph-name="itilde.sc" horiz-adv-x="286" 
d="M66 560h154v-560h-154v560zM-25 647q5 59 29.5 91t69.5 32q25 0 45 -8.5t42 -28.5l23 -21q11 -10 18 -13.5t15 -3.5q16 0 23.5 16.5t9.5 58.5l61 -24q-4 -58 -29 -90.5t-70 -32.5q-24 0 -44.5 9t-41.5 29l-23 21q-12 10 -19 13.5t-15 3.5q-16 0 -23.5 -17t-8.5 -59z" />
    <glyph glyph-name="j.sc" horiz-adv-x="514" 
d="M88 37.5q-52 49.5 -52 146.5v14l132 27v-41q0 -41 17 -61.5t49 -20.5t48.5 20t16.5 59v379h154v-372q0 -96 -58 -148t-157 -52q-98 0 -150 49.5z" />
    <glyph glyph-name="jcircumflex.sc" horiz-adv-x="514" 
d="M88 37.5q-52 49.5 -52 146.5v14l132 27v-41q0 -41 17 -61.5t49 -20.5t48.5 20t16.5 59v379h154v-372q0 -96 -58 -148t-157 -52q-98 0 -150 49.5zM431 630l-55 59l-56 -59h-82l88 133h99l88 -133h-82z" />
    <glyph glyph-name="k.sc" horiz-adv-x="582" 
d="M284 259l-64 -73v-186h-154v560h154v-248l195 248h141l-161 -212l170 -348h-167z" />
    <glyph glyph-name="uni0137.sc" horiz-adv-x="582" 
d="M284 259l-64 -73v-186h-154v560h154v-248l195 248h141l-161 -212l170 -348h-167zM368 -59v-129q-17 -41 -39 -75t-55 -72l-55 47q39 28 62.5 50.5t42.5 51.5h-94v127h138z" />
    <glyph glyph-name="l.sc" horiz-adv-x="475" 
d="M446 116v-116h-380v560h154v-444h226z" />
    <glyph glyph-name="lacute.sc" horiz-adv-x="475" 
d="M446 116v-116h-380v560h154v-444h226zM173 623h-64l32 147h138z" />
    <glyph glyph-name="lcaron.sc" horiz-adv-x="475" 
d="M446 116v-116h-380v560h154v-444h226zM453 560v-129q-17 -41 -39 -75t-55 -72l-55 47q40 29 63 51t42 50h-94v128h138z" />
    <glyph glyph-name="uni013C.sc" horiz-adv-x="475" 
d="M446 116v-116h-380v560h154v-444h226zM328 -59v-129q-17 -41 -39 -75t-55 -72l-55 47q39 28 62.5 50.5t42.5 51.5h-94v127h138z" />
    <glyph glyph-name="ldot.sc" horiz-adv-x="511" 
d="M446 116v-116h-380v560h154v-444h226zM296 383h155v-157h-155v157z" />
    <glyph glyph-name="lslash.sc" horiz-adv-x="490" 
d="M461 116v-116h-380v227l-81 -26v60l81 25v274h154v-225l107 33v-59l-107 -34v-159h226z" />
    <glyph glyph-name="m.sc" horiz-adv-x="719" 
d="M653 560v-560h-139v397l-142 -397h-56l-143 397v-397h-107v560h188l115 -303l115 303h169z" />
    <glyph glyph-name="n.sc" horiz-adv-x="607" 
d="M541 560v-560h-150l-212 397v-397h-113v560h176l186 -344v344h113z" />
    <glyph glyph-name="nacute.sc" horiz-adv-x="607" 
d="M541 560v-560h-150l-212 397v-397h-113v560h176l186 -344v344h113zM334 623h-64l32 147h138z" />
    <glyph glyph-name="ncaron.sc" horiz-adv-x="607" 
d="M541 560v-560h-150l-212 397v-397h-113v560h176l186 -344v344h113zM441 763l-88 -133h-99l-88 133h82l56 -59l55 59h82z" />
    <glyph glyph-name="uni0146.sc" horiz-adv-x="607" 
d="M541 560v-560h-150l-212 397v-397h-113v560h176l186 -344v344h113zM373 -59v-129q-17 -41 -39 -75t-55 -72l-55 47q39 28 62.5 50.5t42.5 51.5h-94v127h138z" />
    <glyph glyph-name="eng.sc" horiz-adv-x="611" 
d="M544 560v-578q0 -70 -43 -111t-112 -41q-85 0 -137 56l58 86q16 -21 32 -29.5t35 -8.5q21 0 35.5 13.5t14.5 34.5v23l-248 404v-409h-113v560h177l189 -307v307h112z" />
    <glyph glyph-name="ntilde.sc" horiz-adv-x="607" 
d="M541 560v-560h-150l-212 397v-397h-113v560h176l186 -344v344h113zM137 647q5 59 29.5 91t69.5 32q25 0 45 -8.5t42 -28.5l23 -21q11 -10 18 -13.5t15 -3.5q16 0 23.5 16.5t9.5 58.5l61 -24q-4 -58 -29 -90.5t-70 -32.5q-24 0 -44.5 9t-41.5 29l-23 21q-12 10 -19 13.5
t-15 3.5q-16 0 -23.5 -17t-8.5 -59z" />
    <glyph glyph-name="o.sc" horiz-adv-x="617" 
d="M164.5 24q-61.5 36 -94.5 102t-33 154t33 154t94.5 102t144.5 36t144 -36t94 -102t33 -154t-33 -154t-94 -102t-144 -36t-144.5 36zM390.5 157.5q29.5 43.5 29.5 122.5t-29.5 122.5t-82.5 43.5t-82 -43t-29 -123t29 -123t82 -43t82.5 43.5z" />
    <glyph glyph-name="oacute.sc" horiz-adv-x="617" 
d="M164.5 24q-61.5 36 -94.5 102t-33 154t33 154t94.5 102t144.5 36t144 -36t94 -102t33 -154t-33 -154t-94 -102t-144 -36t-144.5 36zM390.5 157.5q29.5 43.5 29.5 122.5t-29.5 122.5t-82.5 43.5t-82 -43t-29 -123t29 -123t82 -43t82.5 43.5zM338 623h-64l32 147h138z" />
    <glyph glyph-name="obreve.sc" horiz-adv-x="617" 
d="M164.5 24q-61.5 36 -94.5 102t-33 154t33 154t94.5 102t144.5 36t144 -36t94 -102t33 -154t-33 -154t-94 -102t-144 -36t-144.5 36zM390.5 157.5q29.5 43.5 29.5 122.5t-29.5 122.5t-82.5 43.5t-82 -43t-29 -123t29 -123t82 -43t82.5 43.5zM213.5 668q-35.5 33 -37.5 91
h81q2 -26 15.5 -40.5t38.5 -14.5t38.5 14.5t15.5 40.5h81q-1 -58 -37 -91t-98 -33t-97.5 33z" />
    <glyph glyph-name="ocircumflex.sc" horiz-adv-x="617" 
d="M164.5 24q-61.5 36 -94.5 102t-33 154t33 154t94.5 102t144.5 36t144 -36t94 -102t33 -154t-33 -154t-94 -102t-144 -36t-144.5 36zM390.5 157.5q29.5 43.5 29.5 122.5t-29.5 122.5t-82.5 43.5t-82 -43t-29 -123t29 -123t82 -43t82.5 43.5zM363 630l-55 59l-56 -59h-82
l88 133h99l88 -133h-82z" />
    <glyph glyph-name="odieresis.sc" horiz-adv-x="617" 
d="M164.5 24q-61.5 36 -94.5 102t-33 154t33 154t94.5 102t144.5 36t144 -36t94 -102t33 -154t-33 -154t-94 -102t-144 -36t-144.5 36zM390.5 157.5q29.5 43.5 29.5 122.5t-29.5 122.5t-82.5 43.5t-82 -43t-29 -123t29 -123t82 -43t82.5 43.5zM147 759h125v-124h-125v124z
M343 759h126v-124h-126v124z" />
    <glyph glyph-name="ograve.sc" horiz-adv-x="617" 
d="M164.5 24q-61.5 36 -94.5 102t-33 154t33 154t94.5 102t144.5 36t144 -36t94 -102t33 -154t-33 -154t-94 -102t-144 -36t-144.5 36zM390.5 157.5q29.5 43.5 29.5 122.5t-29.5 122.5t-82.5 43.5t-82 -43t-29 -123t29 -123t82 -43t82.5 43.5zM310 770l31 -147h-64l-106 147
h139z" />
    <glyph glyph-name="ohungarumlaut.sc" horiz-adv-x="617" 
d="M164.5 24q-61.5 36 -94.5 102t-33 154t33 154t94.5 102t144.5 36t144 -36t94 -102t33 -154t-33 -154t-94 -102t-144 -36t-144.5 36zM390.5 157.5q29.5 43.5 29.5 122.5t-29.5 122.5t-82.5 43.5t-82 -43t-29 -123t29 -123t82 -43t82.5 43.5zM250 623h-64l32 147h138z
M424 623h-64l32 147h138z" />
    <glyph glyph-name="omacron.sc" horiz-adv-x="617" 
d="M164.5 24q-61.5 36 -94.5 102t-33 154t33 154t94.5 102t144.5 36t144 -36t94 -102t33 -154t-33 -154t-94 -102t-144 -36t-144.5 36zM390.5 157.5q29.5 43.5 29.5 122.5t-29.5 122.5t-82.5 43.5t-82 -43t-29 -123t29 -123t82 -43t82.5 43.5zM163 737h290v-79h-290v79z" />
    <glyph glyph-name="oslash.sc" horiz-adv-x="615" 
d="M546 431q32 -66 32 -152q0 -88 -33 -153.5t-94 -101.5t-144 -36q-55 0 -99 16l-37 -80l-49 22l37 80q-58 36 -90 101.5t-32 151.5q0 88 33 154.5t94 102.5t143 36q55 0 99 -16l37 79l50 -23l-37 -79q58 -36 90 -102zM220 156l133 286q-20 9 -45 9q-56 0 -86 -45t-30 -127
q0 -78 28 -123zM393.5 153q29.5 44 29.5 126q0 79 -28 124l-133 -285q20 -9 46 -9q56 0 85.5 44z" />
    <glyph glyph-name="otilde.sc" horiz-adv-x="617" 
d="M164.5 24q-61.5 36 -94.5 102t-33 154t33 154t94.5 102t144.5 36t144 -36t94 -102t33 -154t-33 -154t-94 -102t-144 -36t-144.5 36zM390.5 157.5q29.5 43.5 29.5 122.5t-29.5 122.5t-82.5 43.5t-82 -43t-29 -123t29 -123t82 -43t82.5 43.5zM141 647q5 59 29.5 91t69.5 32
q25 0 45 -8.5t42 -28.5l23 -21q11 -10 18 -13.5t15 -3.5q16 0 23.5 16.5t9.5 58.5l61 -24q-4 -58 -29 -90.5t-70 -32.5q-24 0 -44.5 9t-41.5 29l-23 21q-12 10 -19 13.5t-15 3.5q-16 0 -23.5 -17t-8.5 -59z" />
    <glyph glyph-name="oe.sc" horiz-adv-x="790" 
d="M104.5 69.5q-67.5 69.5 -67.5 210.5t67.5 210.5t194.5 69.5h450v-113h-228v-107h154v-85h-154v-142h236v-113h-458q-127 0 -194.5 69.5zM368 116v328h-54q-62 0 -92.5 -38.5t-30.5 -125.5t30.5 -125.5t92.5 -38.5h54z" />
    <glyph glyph-name="p.sc" horiz-adv-x="557" 
d="M477.5 516.5q54.5 -43.5 54.5 -124.5q0 -80 -55 -124t-155 -44h-106v-224h-150v560h256q101 0 155.5 -43.5zM361 337q22 18 22 52t-22 52t-63 18h-82v-140h82q41 0 63 18z" />
    <glyph glyph-name="thorn.sc" horiz-adv-x="555" 
d="M474 411.5q55 -44.5 55 -126.5q0 -79 -55.5 -122t-157.5 -43h-100v-120h-150v560h150v-104h100q103 0 158 -44.5zM359.5 233q21.5 18 21.5 52t-21.5 52t-61.5 18h-82v-140h82q40 0 61.5 18z" />
    <glyph glyph-name="q.sc" horiz-adv-x="617" 
d="M601 -17q-16 -41 -50.5 -62.5t-73.5 -21.5q-47 0 -76.5 23t-46.5 69q-22 -3 -48 -3q-82 0 -142.5 36t-93.5 102t-33 154t33 154t93.5 102t142.5 36t143 -36t93.5 -102t32.5 -154q0 -90 -34 -156.5t-96 -101.5q9 -17 19 -23.5t23 -6.5q34 0 52 42zM218.5 408.5
q-31.5 -45.5 -31.5 -128.5q0 -86 33 -130q-2 14 -2 19q0 38 24.5 60.5t61.5 22.5q39 0 63.5 -19.5t38.5 -58.5q19 39 19 106q0 83 -31 128.5t-87 45.5q-57 0 -88.5 -45.5zM307 107q8 0 22 2q-9 41 -21.5 58t-33.5 17q-17 0 -27.5 -12t-10.5 -30q0 -7 1 -11q29 -24 70 -24z
" />
    <glyph glyph-name="r.sc" horiz-adv-x="576" 
d="M514.5 58.5q7.5 -27.5 30.5 -50.5v-8h-163q-13 24 -16.5 54t-2.5 79l1 39q1 37 -15 53t-55 16h-83v-241h-145v560h260q98 0 152 -37t54 -109q0 -54 -36.5 -88t-99.5 -44v-1q57 -8 82 -38.5t26 -82.5l2 -36q1 -38 8.5 -65.5zM363 343.5q21 16.5 21 48.5q0 30 -21 46
t-61 16h-91v-127h91q40 0 61 16.5z" />
    <glyph glyph-name="racute.sc" horiz-adv-x="576" 
d="M514.5 58.5q7.5 -27.5 30.5 -50.5v-8h-163q-13 24 -16.5 54t-2.5 79l1 39q1 37 -15 53t-55 16h-83v-241h-145v560h260q98 0 152 -37t54 -109q0 -54 -36.5 -88t-99.5 -44v-1q57 -8 82 -38.5t26 -82.5l2 -36q1 -38 8.5 -65.5zM363 343.5q21 16.5 21 48.5q0 30 -21 46
t-61 16h-91v-127h91q40 0 61 16.5zM316 623h-64l32 147h138z" />
    <glyph glyph-name="rcaron.sc" horiz-adv-x="576" 
d="M514.5 58.5q7.5 -27.5 30.5 -50.5v-8h-163q-13 24 -16.5 54t-2.5 79l1 39q1 37 -15 53t-55 16h-83v-241h-145v560h260q98 0 152 -37t54 -109q0 -54 -36.5 -88t-99.5 -44v-1q57 -8 82 -38.5t26 -82.5l2 -36q1 -38 8.5 -65.5zM363 343.5q21 16.5 21 48.5q0 30 -21 46
t-61 16h-91v-127h91q40 0 61 16.5zM423 763l-88 -133h-99l-88 133h82l56 -59l55 59h82z" />
    <glyph glyph-name="uni0157.sc" horiz-adv-x="576" 
d="M514.5 58.5q7.5 -27.5 30.5 -50.5v-8h-163q-13 24 -16.5 54t-2.5 79l1 39q1 37 -15 53t-55 16h-83v-241h-145v560h260q98 0 152 -37t54 -109q0 -54 -36.5 -88t-99.5 -44v-1q57 -8 82 -38.5t26 -82.5l2 -36q1 -38 8.5 -65.5zM363 343.5q21 16.5 21 48.5q0 30 -21 46
t-61 16h-91v-127h91q40 0 61 16.5zM362 -59v-129q-17 -41 -39 -75t-55 -72l-55 47q39 28 62.5 50.5t42.5 51.5h-94v127h138z" />
    <glyph glyph-name="s.sc" horiz-adv-x="520" 
d="M104.5 24q-58.5 36 -80.5 100l98 55q15 -46 49.5 -70t83.5 -24q40 0 63 18t23 46q0 48 -70 63l-65 14q-168 35 -168 168q0 82 59 130t157 48q80 0 136.5 -31t77.5 -85l-97 -54q-32 77 -114 77q-37 0 -58.5 -15t-21.5 -41q0 -22 15.5 -35.5t49.5 -20.5l68 -14
q178 -36 178 -177q0 -54 -30.5 -97t-83.5 -67t-120 -24q-91 0 -149.5 36z" />
    <glyph glyph-name="sacute.sc" horiz-adv-x="520" 
d="M104.5 24q-58.5 36 -80.5 100l98 55q15 -46 49.5 -70t83.5 -24q40 0 63 18t23 46q0 48 -70 63l-65 14q-168 35 -168 168q0 82 59 130t157 48q80 0 136.5 -31t77.5 -85l-97 -54q-32 77 -114 77q-37 0 -58.5 -15t-21.5 -41q0 -22 15.5 -35.5t49.5 -20.5l68 -14
q178 -36 178 -177q0 -54 -30.5 -97t-83.5 -67t-120 -24q-91 0 -149.5 36zM290 623h-64l32 147h138z" />
    <glyph glyph-name="scaron.sc" horiz-adv-x="520" 
d="M104.5 24q-58.5 36 -80.5 100l98 55q15 -46 49.5 -70t83.5 -24q40 0 63 18t23 46q0 48 -70 63l-65 14q-168 35 -168 168q0 82 59 130t157 48q80 0 136.5 -31t77.5 -85l-97 -54q-32 77 -114 77q-37 0 -58.5 -15t-21.5 -41q0 -22 15.5 -35.5t49.5 -20.5l68 -14
q178 -36 178 -177q0 -54 -30.5 -97t-83.5 -67t-120 -24q-91 0 -149.5 36zM397 763l-88 -133h-99l-88 133h82l56 -59l55 59h82z" />
    <glyph glyph-name="scedilla.sc" horiz-adv-x="520" 
d="M462 85.5q-26 -40.5 -72.5 -66t-105.5 -30.5l-44 -60q30 9 55 9q44 0 71.5 -22t27.5 -54q0 -45 -40 -68t-103 -23q-76 0 -132 37l23 54q47 -35 108 -35q25 0 39 9.5t14 25.5q0 13 -12 21t-32 8q-29 0 -64 -16l-29 36l57 78q-78 6 -128.5 41.5t-70.5 93.5l98 55
q15 -46 49.5 -70t83.5 -24q40 0 63 18t23 46q0 48 -70 63l-65 14q-168 35 -168 168q0 82 59 130t157 48q80 0 136.5 -31t77.5 -85l-97 -54q-32 77 -114 77q-37 0 -58.5 -15t-21.5 -41q0 -22 15.5 -35.5t49.5 -20.5l68 -14q178 -36 178 -177q0 -50 -26 -90.5z" />
    <glyph glyph-name="scircumflex.sc" horiz-adv-x="520" 
d="M104.5 24q-58.5 36 -80.5 100l98 55q15 -46 49.5 -70t83.5 -24q40 0 63 18t23 46q0 48 -70 63l-65 14q-168 35 -168 168q0 82 59 130t157 48q80 0 136.5 -31t77.5 -85l-97 -54q-32 77 -114 77q-37 0 -58.5 -15t-21.5 -41q0 -22 15.5 -35.5t49.5 -20.5l68 -14
q178 -36 178 -177q0 -54 -30.5 -97t-83.5 -67t-120 -24q-91 0 -149.5 36zM315 630l-55 59l-56 -59h-82l88 133h99l88 -133h-82z" />
    <glyph glyph-name="uni0219.sc" horiz-adv-x="520" 
d="M104.5 24q-58.5 36 -80.5 100l98 55q15 -46 49.5 -70t83.5 -24q40 0 63 18t23 46q0 48 -70 63l-65 14q-168 35 -168 168q0 82 59 130t157 48q80 0 136.5 -31t77.5 -85l-97 -54q-32 77 -114 77q-37 0 -58.5 -15t-21.5 -41q0 -22 15.5 -35.5t49.5 -20.5l68 -14
q178 -36 178 -177q0 -54 -30.5 -97t-83.5 -67t-120 -24q-91 0 -149.5 36zM330 -59v-129q-17 -41 -39 -75t-55 -72l-55 47q39 28 62.5 50.5t42.5 51.5h-94v127h138z" />
    <glyph glyph-name="germandbls.sc" horiz-adv-x="610" 
d="M494 318.5q38 -20.5 61 -57t23 -84.5q0 -57 -27 -99.5t-74.5 -65t-107.5 -22.5q-39 0 -73 11t-59 31l34 106q20 -18 40.5 -26t46.5 -8q34 0 56.5 20t22.5 53q0 32 -22 50.5t-58 18.5q-29 0 -63 -17l-38 82l133 140h-51q-62 0 -94.5 -28t-32.5 -94v-329h-149v313
q0 127 64.5 187t196.5 60h201v-99l-113 -119q45 -3 83 -23.5z" />
    <glyph glyph-name="t.sc" horiz-adv-x="502" 
d="M474 441h-145v-441h-154v441h-146v119h445v-119z" />
    <glyph glyph-name="tbar.sc" horiz-adv-x="502" 
d="M329 441v-135h110v-63h-110v-243h-154v243h-103v63h103v135h-146v119h445v-119h-145z" />
    <glyph glyph-name="tcaron.sc" horiz-adv-x="502" 
d="M474 441h-145v-441h-154v441h-146v119h445v-119zM388 763l-88 -133h-99l-88 133h82l56 -59l55 59h82z" />
    <glyph glyph-name="uni0163.sc" horiz-adv-x="502" 
d="M283 0l-52 -71q30 9 56 9q44 0 71 -22t27 -54q0 -45 -40 -68t-103 -23q-75 0 -131 37l22 54q49 -35 109 -35q24 0 38.5 9.5t14.5 25.5q0 13 -12 21t-32 8q-29 0 -64 -16l-29 36l65 89h-48v441h-146v119h445v-119h-145v-441h-46z" />
    <glyph glyph-name="uni021B.sc" horiz-adv-x="502" 
d="M474 441h-145v-441h-154v441h-146v119h445v-119zM320 -59v-129q-17 -41 -39 -75t-55 -72l-55 47q39 28 62.5 50.5t42.5 51.5h-94v127h138z" />
    <glyph glyph-name="u.sc" horiz-adv-x="573" 
d="M119.5 43.5q-57.5 55.5 -57.5 161.5v355h153v-363q0 -43 21 -66t61 -23q41 0 62 23t21 66v363h132v-355q0 -105 -59 -161t-167 -56q-109 0 -166.5 55.5z" />
    <glyph glyph-name="uacute.sc" horiz-adv-x="573" 
d="M119.5 43.5q-57.5 55.5 -57.5 161.5v355h153v-363q0 -43 21 -66t61 -23q41 0 62 23t21 66v363h132v-355q0 -105 -59 -161t-167 -56q-109 0 -166.5 55.5zM325 623h-64l32 147h138z" />
    <glyph glyph-name="ubreve.sc" horiz-adv-x="573" 
d="M119.5 43.5q-57.5 55.5 -57.5 161.5v355h153v-363q0 -43 21 -66t61 -23q41 0 62 23t21 66v363h132v-355q0 -105 -59 -161t-167 -56q-109 0 -166.5 55.5zM200.5 668q-35.5 33 -37.5 91h81q2 -26 15.5 -40.5t38.5 -14.5t38.5 14.5t15.5 40.5h81q-1 -58 -37 -91t-98 -33
t-97.5 33z" />
    <glyph glyph-name="ucircumflex.sc" horiz-adv-x="573" 
d="M119.5 43.5q-57.5 55.5 -57.5 161.5v355h153v-363q0 -43 21 -66t61 -23q41 0 62 23t21 66v363h132v-355q0 -105 -59 -161t-167 -56q-109 0 -166.5 55.5zM350 630l-55 59l-56 -59h-82l88 133h99l88 -133h-82z" />
    <glyph glyph-name="udieresis.sc" horiz-adv-x="573" 
d="M119.5 43.5q-57.5 55.5 -57.5 161.5v355h153v-363q0 -43 21 -66t61 -23q41 0 62 23t21 66v363h132v-355q0 -105 -59 -161t-167 -56q-109 0 -166.5 55.5zM134 759h125v-124h-125v124zM330 759h126v-124h-126v124z" />
    <glyph glyph-name="ugrave.sc" horiz-adv-x="573" 
d="M119.5 43.5q-57.5 55.5 -57.5 161.5v355h153v-363q0 -43 21 -66t61 -23q41 0 62 23t21 66v363h132v-355q0 -105 -59 -161t-167 -56q-109 0 -166.5 55.5zM297 770l31 -147h-64l-106 147h139z" />
    <glyph glyph-name="uhungarumlaut.sc" horiz-adv-x="573" 
d="M119.5 43.5q-57.5 55.5 -57.5 161.5v355h153v-363q0 -43 21 -66t61 -23q41 0 62 23t21 66v363h132v-355q0 -105 -59 -161t-167 -56q-109 0 -166.5 55.5zM237 623h-64l32 147h138zM411 623h-64l32 147h138z" />
    <glyph glyph-name="umacron.sc" horiz-adv-x="573" 
d="M119.5 43.5q-57.5 55.5 -57.5 161.5v355h153v-363q0 -43 21 -66t61 -23q41 0 62 23t21 66v363h132v-355q0 -105 -59 -161t-167 -56q-109 0 -166.5 55.5zM150 737h290v-79h-290v79z" />
    <glyph glyph-name="uogonek.sc" horiz-adv-x="573" 
d="M366 -62q0 -22 13 -34.5t40 -12.5q14 0 37 5l-6 -53q-37 -10 -69 -10q-48 0 -72 23.5t-24 62.5q0 36 33 72q-9 -1 -30 -1q-226 0 -226 219v351h153v-366q0 -40 20.5 -62t61.5 -22q83 0 83 84v366h132v-351q0 -58 -21.5 -103t-75.5 -89q-49 -37 -49 -79z" />
    <glyph glyph-name="uring.sc" horiz-adv-x="573" 
d="M119.5 43.5q-57.5 55.5 -57.5 161.5v355h153v-363q0 -43 21 -66t61 -23q41 0 62 23t21 66v363h132v-355q0 -105 -59 -161t-167 -56q-109 0 -166.5 55.5zM227.5 630q-27.5 26 -27.5 67t27.5 66.5t69.5 25.5q40 0 67 -26t27 -66q0 -42 -26.5 -67.5t-67.5 -25.5
q-42 0 -69.5 26zM324.5 666.5q10.5 11.5 10.5 30.5q0 18 -10.5 29.5t-27.5 11.5q-18 0 -29.5 -11.5t-11.5 -29.5q0 -19 11.5 -30.5t29.5 -11.5q17 0 27.5 11.5z" />
    <glyph glyph-name="utilde.sc" horiz-adv-x="573" 
d="M119.5 43.5q-57.5 55.5 -57.5 161.5v355h153v-363q0 -43 21 -66t61 -23q41 0 62 23t21 66v363h132v-355q0 -105 -59 -161t-167 -56q-109 0 -166.5 55.5zM128 647q5 59 29.5 91t69.5 32q25 0 45 -8.5t42 -28.5l23 -21q11 -10 18 -13.5t15 -3.5q16 0 23.5 16.5t9.5 58.5
l61 -24q-4 -58 -29 -90.5t-70 -32.5q-24 0 -44.5 9t-41.5 29l-23 21q-12 10 -19 13.5t-15 3.5q-16 0 -23.5 -17t-8.5 -59z" />
    <glyph glyph-name="v.sc" horiz-adv-x="551" 
d="M537 560l-179 -560h-168l-176 560h159l119 -417l119 417h126z" />
    <glyph glyph-name="w.sc" horiz-adv-x="788" 
d="M760 560l-133 -560h-153l-82 322l-87 -322h-151l-126 560h154l74 -380l101 380h105l96 -378l82 378h120z" />
    <glyph glyph-name="wacute.sc" horiz-adv-x="788" 
d="M760 560l-133 -560h-153l-82 322l-87 -322h-151l-126 560h154l74 -380l101 380h105l96 -378l82 378h120zM439 623h-64l32 147h138z" />
    <glyph glyph-name="wcircumflex.sc" horiz-adv-x="788" 
d="M760 560l-133 -560h-153l-82 322l-87 -322h-151l-126 560h154l74 -380l101 380h105l96 -378l82 378h120zM464 630l-55 59l-56 -59h-82l88 133h99l88 -133h-82z" />
    <glyph glyph-name="wdieresis.sc" horiz-adv-x="788" 
d="M760 560l-133 -560h-153l-82 322l-87 -322h-151l-126 560h154l74 -380l101 380h105l96 -378l82 378h120zM248 759h125v-124h-125v124zM444 759h126v-124h-126v124z" />
    <glyph glyph-name="wgrave.sc" horiz-adv-x="788" 
d="M760 560l-133 -560h-153l-82 322l-87 -322h-151l-126 560h154l74 -380l101 380h105l96 -378l82 378h120zM410 770l31 -147h-64l-106 147h139z" />
    <glyph glyph-name="x.sc" horiz-adv-x="567" 
d="M378 0l-109 187l-108 -187h-144l175 283l-159 277h170l99 -172l101 172h132l-161 -260l177 -300h-173z" />
    <glyph glyph-name="y.sc" horiz-adv-x="548" 
d="M351 212v-212h-153v205l-188 355h169l116 -224l118 224h125z" />
    <glyph glyph-name="yacute.sc" horiz-adv-x="548" 
d="M351 212v-212h-153v205l-188 355h169l116 -224l118 224h125zM322 623h-64l32 147h138z" />
    <glyph glyph-name="ycircumflex.sc" horiz-adv-x="548" 
d="M351 212v-212h-153v205l-188 355h169l116 -224l118 224h125zM347 630l-55 59l-56 -59h-82l88 133h99l88 -133h-82z" />
    <glyph glyph-name="ydieresis.sc" horiz-adv-x="548" 
d="M351 212v-212h-153v205l-188 355h169l116 -224l118 224h125zM131 759h125v-124h-125v124zM327 759h126v-124h-126v124z" />
    <glyph glyph-name="ygrave.sc" horiz-adv-x="548" 
d="M351 212v-212h-153v205l-188 355h169l116 -224l118 224h125zM294 770l31 -147h-64l-106 147h139z" />
    <glyph glyph-name="z.sc" horiz-adv-x="512" 
d="M466 464l-235 -351h235v-113h-427v99l234 348h-229v113h422v-96z" />
    <glyph glyph-name="zacute.sc" horiz-adv-x="512" 
d="M466 464l-235 -351h235v-113h-427v99l234 348h-229v113h422v-96zM290 623h-64l32 147h138z" />
    <glyph glyph-name="zcaron.sc" horiz-adv-x="512" 
d="M466 464l-235 -351h235v-113h-427v99l234 348h-229v113h422v-96zM397 763l-88 -133h-99l-88 133h82l56 -59l55 59h82z" />
    <glyph glyph-name="zdotaccent.sc" horiz-adv-x="512" 
d="M466 464l-235 -351h235v-113h-427v99l234 348h-229v113h422v-96zM189 767h143v-134h-143v134z" />
    <glyph glyph-name="uni01B6.sc" horiz-adv-x="512" 
d="M466 464l-104 -155h87v-58h-126l-92 -138h235v-113h-427v99l102 152h-84v58h123l93 138h-229v113h422v-96z" />
    <glyph glyph-name="zero.osf" horiz-adv-x="641" 
d="M118.5 65.5q-73.5 77.5 -73.5 214.5t73.5 214.5t201.5 77.5t202 -77.5t74 -214.5t-74 -214.5t-202 -77.5t-201.5 77.5zM410.5 152.5q32.5 45.5 32.5 127.5t-32.5 127.5t-89.5 45.5t-90 -45.5t-33 -127.5t33 -127.5t90 -45.5t89.5 45.5z" />
    <glyph glyph-name="one.osf" horiz-adv-x="439" 
d="M353 560v-560h-154v430q-46 -83 -165 -80v126q10 -1 30 -1q67 0 111 20t74 65h104z" />
    <glyph glyph-name="two.osf" horiz-adv-x="573" 
d="M518 108v-108h-471v90q111 56 177 101t98 90.5t32 98.5q0 36 -20 58t-53 22q-42 0 -66 -32.5t-20 -98.5l-141 10q-1 75 29 127t83.5 78.5t120.5 26.5q97 0 156 -47t59 -134t-73.5 -160t-211.5 -122h301z" />
    <glyph glyph-name="three.osf" horiz-adv-x="623" 
d="M110 -97q-66 55 -81 159l142 38q7 -67 38 -101t89 -34q53 0 84.5 30.5t31.5 82.5q0 46 -30 72.5t-83 26.5q-27 0 -42 -2.5t-35 -8.5v112q16 -5 30.5 -7t36.5 -2q46 0 75 27t29 71q0 42 -25 66t-67 24q-102 0 -118 -120l-135 35q17 93 85 146.5t178 53.5q104 0 169 -49.5
t65 -135.5q0 -57 -36.5 -98.5t-96.5 -57.5v-2q74 -13 114 -56.5t40 -111.5q0 -65 -35.5 -113t-96 -74t-134.5 -26q-126 0 -192 55z" />
    <glyph glyph-name="four.osf" horiz-adv-x="710" 
d="M666 14h-127v-154h-149v154h-345v139l320 407h174v-433h127v-113zM390 127v301l-228 -301h228z" />
    <glyph glyph-name="five.osf" horiz-adv-x="624" 
d="M467 325.5q49 -29.5 76.5 -85t27.5 -129.5q0 -82 -36 -141.5t-99.5 -90.5t-142.5 -31q-105 0 -170 47.5t-88 138.5l135 53q9 -60 39.5 -92.5t82.5 -32.5q57 0 89 39t32 110q0 68 -28 105.5t-80 37.5q-40 0 -72 -24.5t-49 -77.5l-122 40l55 368h420v-120h-325l-28 -182h2
q23 47 67.5 72t101.5 25q63 0 112 -29.5z" />
    <glyph glyph-name="six.osf" horiz-adv-x="644" 
d="M538.5 396.5q56.5 -60.5 56.5 -163.5q0 -73 -34.5 -128.5t-95 -86t-138.5 -30.5q-134 0 -204 86.5t-70 254.5q0 119 36.5 205.5t103.5 132t157 45.5q92 0 151 -39.5t84 -116.5l-137 -54q-11 50 -35 73t-64 23q-62 0 -97.5 -62t-39.5 -186h2q25 53 69.5 80t103.5 27
q95 0 151.5 -60.5zM408.5 136.5q29.5 34.5 29.5 95.5t-27 95t-77 34q-41 0 -73 -25t-48 -79q12 -155 116 -155q50 0 79.5 34.5z" />
    <glyph glyph-name="seven.osf" horiz-adv-x="592" 
d="M548 560v-80q-69 -96 -112 -185t-65 -194t-24 -241h-159q10 179 68 319t160 261h-371v120h503z" />
    <glyph glyph-name="eight.osf" horiz-adv-x="631" 
d="M548 323.5q36 -47.5 36 -113.5q0 -70 -35 -120t-97 -76t-140 -26q-125 0 -195 51.5t-70 146.5q0 58 34.5 101.5t93.5 66.5q-51 25 -77 66t-26 96q0 60 31.5 104.5t87 68t127.5 23.5q112 0 176 -46t64 -128q0 -48 -30 -84t-82 -57q66 -26 102 -73.5zM244 587
q-28 -23 -28 -63q0 -64 85 -86l43 -11q73 34 73 98q0 39 -27 62t-72 23q-46 0 -74 -23zM398.5 122.5q32.5 28.5 32.5 77.5q0 82 -101 107l-51 14q-83 -42 -83 -123q0 -48 31.5 -76t85.5 -28q53 0 85.5 28.5z" />
    <glyph glyph-name="nine.osf" horiz-adv-x="644" 
d="M521 485.5q70 -86.5 70 -254.5q0 -119 -36.5 -205.5t-103.5 -132t-157 -45.5q-92 0 -151 39.5t-84 116.5l137 54q10 -50 34.5 -73t64.5 -23q62 0 97.5 62t39.5 186h-2q-25 -53 -70 -80t-103 -27q-95 0 -151.5 60.5t-56.5 163.5q0 73 34.5 128.5t95 86t138.5 30.5
q134 0 204 -86.5zM383 224.5q32 25.5 48 79.5q-12 154 -116 154q-50 0 -79.5 -34.5t-29.5 -95.5t26.5 -95t76.5 -34q42 0 74 25.5z" />
    <glyph glyph-name="zero.tf" 
d="M116 81q-75 93 -75 269t75 269t213 93t213.5 -93t75.5 -269t-75.5 -269t-213.5 -93t-213 93zM426 173.5q33 59.5 33 176.5t-33 176.5t-96 59.5q-64 0 -97 -59.5t-33 -176.5t33 -176.5t97 -59.5q63 0 96 59.5z" />
    <glyph glyph-name="one.tf" 
d="M609 116v-116h-557v116h212v462q-29 -47 -82 -73t-117 -25v126l24 -1q75 0 135 25t90 70h104v-584h191z" />
    <glyph glyph-name="two.tf" 
d="M593 116v-116h-525v95q133 77 210.5 136.5t114.5 120t37 131.5q0 53 -26 82t-70 29q-51 0 -80.5 -37t-29.5 -116q0 -17 1 -27l-153 12q-2 94 33 158t96.5 96t139.5 32q112 0 179.5 -57.5t67.5 -163.5q0 -112 -88.5 -207.5t-258.5 -167.5h352z" />
    <glyph glyph-name="three.tf" 
d="M141 43q-66 55 -81 159l142 38q7 -67 38 -101t89 -34q53 0 84.5 30.5t31.5 82.5q0 46 -30 72.5t-83 26.5q-27 0 -42 -2.5t-35 -8.5v112q16 -5 30.5 -7t36.5 -2q46 0 75 27t29 71q0 42 -25 66t-67 24q-102 0 -118 -120l-135 35q17 93 85 146.5t178 53.5q104 0 169 -49.5
t65 -135.5q0 -57 -36.5 -98.5t-96.5 -57.5v-2q74 -13 114 -56.5t40 -111.5q0 -65 -35.5 -113t-96 -74t-134.5 -26q-126 0 -192 55z" />
    <glyph glyph-name="four.tf" 
d="M640 145h-127v-145h-149v145h-345v139l320 416h174v-442h127v-113zM364 258v308l-229 -308h229z" />
    <glyph glyph-name="five.tf" 
d="M494 465.5q49 -29.5 76.5 -85t27.5 -129.5q0 -82 -36 -141.5t-99.5 -90.5t-142.5 -31q-105 0 -170 47.5t-88 138.5l135 53q9 -60 39.5 -92.5t82.5 -32.5q57 0 89 39t32 110q0 68 -28 105.5t-80 37.5q-40 0 -72 -24.5t-49 -77.5l-122 40l55 368h420v-120h-325l-28 -182h2
q23 47 67.5 72t101.5 25q63 0 112 -29.5z" />
    <glyph glyph-name="six.tf" 
d="M544.5 396.5q56.5 -60.5 56.5 -163.5q0 -73 -34.5 -128.5t-95 -86t-138.5 -30.5q-134 0 -204 86.5t-70 254.5q0 119 36.5 205.5t103.5 132t157 45.5q92 0 151 -39.5t84 -116.5l-137 -54q-11 50 -35 73t-64 23q-62 0 -97.5 -62t-39.5 -186h2q25 53 69.5 80t103.5 27
q95 0 151.5 -60.5zM414.5 136.5q29.5 34.5 29.5 95.5t-27 95t-77 34q-41 0 -73 -25t-48 -79q12 -155 116 -155q50 0 79.5 34.5z" />
    <glyph glyph-name="seven.tf" 
d="M583 700v-80q-69 -96 -112 -185t-65 -194t-24 -241h-159q10 179 68 319t160 261h-371v120h503z" />
    <glyph glyph-name="eight.tf" 
d="M563 323.5q36 -47.5 36 -113.5q0 -70 -35 -120t-97 -76t-140 -26q-125 0 -195 51.5t-70 146.5q0 58 34.5 101.5t93.5 66.5q-51 25 -77 66t-26 96q0 60 31.5 104.5t87 68t127.5 23.5q112 0 176 -46t64 -128q0 -48 -30 -84t-82 -57q66 -26 102 -73.5zM259 587
q-28 -23 -28 -63q0 -64 85 -86l43 -11q73 34 73 98q0 39 -27 62t-72 23q-46 0 -74 -23zM413.5 122.5q32.5 28.5 32.5 77.5q0 82 -101 107l-51 14q-83 -42 -83 -123q0 -48 31.5 -76t85.5 -28q53 0 85.5 28.5z" />
    <glyph glyph-name="nine.tf" 
d="M531 625.5q70 -86.5 70 -254.5q0 -119 -36.5 -205.5t-103.5 -132t-157 -45.5q-92 0 -151 39.5t-84 116.5l137 54q10 -50 34.5 -73t64.5 -23q62 0 97.5 62t39.5 186h-2q-25 -53 -70 -80t-103 -27q-95 0 -151.5 60.5t-56.5 163.5q0 73 34.5 128.5t95 86t138.5 30.5
q134 0 204 -86.5zM393 364.5q32 25.5 48 79.5q-12 154 -116 154q-50 0 -79.5 -34.5t-29.5 -95.5t26.5 -95t76.5 -34q42 0 74 25.5z" />
    <glyph glyph-name="zero.tosf" 
d="M128.5 65.5q-73.5 77.5 -73.5 214.5t73.5 214.5t201.5 77.5t202 -77.5t74 -214.5t-74 -214.5t-202 -77.5t-201.5 77.5zM420.5 152.5q32.5 45.5 32.5 127.5t-32.5 127.5t-89.5 45.5t-90 -45.5t-33 -127.5t33 -127.5t90 -45.5t89.5 45.5z" />
    <glyph glyph-name="one.tosf" 
d="M589 108v-108h-517v108h192v329q-26 -45 -71.5 -68.5t-107.5 -22.5v120l24 -1q70 0 122 24.5t83 70.5h104v-452h171z" />
    <glyph glyph-name="two.tosf" 
d="M582 108v-108h-503v90q117 56 186 100.5t102 90t33 99.5q0 36 -20 58.5t-54 22.5q-38 0 -62 -28t-24 -84q0 -13 1 -20l-142 10q-1 75 29 127.5t83.5 79t120.5 26.5q97 0 156.5 -47.5t59.5 -134.5q0 -88 -75 -161t-219 -121h328z" />
    <glyph glyph-name="three.tosf" 
d="M141 -97q-66 55 -81 159l142 38q7 -67 38 -101t89 -34q53 0 84.5 30.5t31.5 82.5q0 46 -30 72.5t-83 26.5q-27 0 -42 -2.5t-35 -8.5v112q16 -5 30.5 -7t36.5 -2q46 0 75 27t29 71q0 42 -25 66t-67 24q-102 0 -118 -120l-135 35q17 93 85 146.5t178 53.5q104 0 169 -49.5
t65 -135.5q0 -57 -36.5 -98.5t-96.5 -57.5v-2q74 -13 114 -56.5t40 -111.5q0 -65 -35.5 -113t-96 -74t-134.5 -26q-126 0 -192 55z" />
    <glyph glyph-name="four.tosf" 
d="M640 5h-127v-145h-149v145h-345v139l320 416h174v-442h127v-113zM364 118v308l-229 -308h229z" />
    <glyph glyph-name="five.tosf" 
d="M494 325.5q49 -29.5 76.5 -85t27.5 -129.5q0 -82 -36 -141.5t-99.5 -90.5t-142.5 -31q-105 0 -170 47.5t-88 138.5l135 53q9 -60 39.5 -92.5t82.5 -32.5q57 0 89 39t32 110q0 68 -28 105.5t-80 37.5q-40 0 -72 -24.5t-49 -77.5l-122 40l55 368h420v-120h-325l-28 -182h2
q23 47 67.5 72t101.5 25q63 0 112 -29.5z" />
    <glyph glyph-name="six.tosf" 
d="M544.5 396.5q56.5 -60.5 56.5 -163.5q0 -73 -34.5 -128.5t-95 -86t-138.5 -30.5q-134 0 -204 86.5t-70 254.5q0 119 36.5 205.5t103.5 132t157 45.5q92 0 151 -39.5t84 -116.5l-137 -54q-11 50 -35 73t-64 23q-62 0 -97.5 -62t-39.5 -186h2q25 53 69.5 80t103.5 27
q95 0 151.5 -60.5zM414.5 136.5q29.5 34.5 29.5 95.5t-27 95t-77 34q-41 0 -73 -25t-48 -79q12 -155 116 -155q50 0 79.5 34.5z" />
    <glyph glyph-name="seven.tosf" 
d="M583 560v-80q-69 -96 -112 -185t-65 -194t-24 -241h-159q10 179 68 319t160 261h-371v120h503z" />
    <glyph glyph-name="eight.tosf" 
d="M563 323.5q36 -47.5 36 -113.5q0 -70 -35 -120t-97 -76t-140 -26q-125 0 -195 51.5t-70 146.5q0 58 34.5 101.5t93.5 66.5q-51 25 -77 66t-26 96q0 60 31.5 104.5t87 68t127.5 23.5q112 0 176 -46t64 -128q0 -48 -30 -84t-82 -57q66 -26 102 -73.5zM259 587
q-28 -23 -28 -63q0 -64 85 -86l43 -11q73 34 73 98q0 39 -27 62t-72 23q-46 0 -74 -23zM413.5 122.5q32.5 28.5 32.5 77.5q0 82 -101 107l-51 14q-83 -42 -83 -123q0 -48 31.5 -76t85.5 -28q53 0 85.5 28.5z" />
    <glyph glyph-name="nine.tosf" 
d="M531 485.5q70 -86.5 70 -254.5q0 -119 -36.5 -205.5t-103.5 -132t-157 -45.5q-92 0 -151 39.5t-84 116.5l137 54q10 -50 34.5 -73t64.5 -23q62 0 97.5 62t39.5 186h-2q-25 -53 -70 -80t-103 -27q-95 0 -151.5 60.5t-56.5 163.5q0 73 34.5 128.5t95 86t138.5 30.5
q134 0 204 -86.5zM393 224.5q32 25.5 48 79.5q-12 154 -116 154q-50 0 -79.5 -34.5t-29.5 -95.5t26.5 -95t76.5 -34q42 0 74 25.5z" />
    <glyph glyph-name="zero.dnom" horiz-adv-x="0" 
d="M70.5 -59q-38.5 47 -38.5 134t38.5 134t109.5 47t109.5 -47t38.5 -134t-38.5 -134t-109.5 -47t-109.5 47zM237 75q0 110 -57 110t-57 -110t57 -110t57 110z" />
    <glyph glyph-name="one.dnom" horiz-adv-x="0" 
d="M312 -34v-66h-265v66h94v206q-25 -38 -82 -37v73l19 -1q33 0 55 10.5t36 32.5h59v-284h84z" />
    <glyph glyph-name="two.dnom" horiz-adv-x="0" 
d="M316 -33v-67h-272v57q68 38 105 63.5t57 54t20 63.5q0 24 -11.5 37.5t-31.5 13.5q-29 0 -41.5 -23t-10.5 -61l-85 7q-1 69 38.5 106.5t102.5 37.5q59 0 93.5 -31t34.5 -83q0 -53 -44 -99.5t-121 -75.5h166z" />
    <glyph glyph-name="three.dnom" horiz-adv-x="0" 
d="M41 -5l82 23q6 -57 56 -57q22 0 35.5 13t13.5 35q0 23 -14 34t-36 11q-16 0 -34 -6v65q17 -5 30 -5q20 0 33 10.5t13 31.5q0 20 -10.5 31t-30.5 11q-46 0 -52 -55l-76 20q10 47 45.5 73t88.5 26q54 0 88 -25.5t34 -69.5q0 -27 -16.5 -47.5t-44.5 -28.5v-1q34 -7 53 -29
t19 -53q0 -49 -39 -78.5t-99 -29.5q-123 0 -139 101z" />
    <glyph glyph-name="four.dnom" horiz-adv-x="0" 
d="M337 -32h-60v-68h-86v68h-169v79l153 203h102v-217h60v-65zM191 33v140l-101 -140h101z" />
    <glyph glyph-name="five.dnom" horiz-adv-x="0" 
d="M287.5 112.5q30.5 -31.5 30.5 -82.5q0 -63 -40 -99.5t-102 -36.5q-113 0 -134 94l76 27q4 -27 18 -41t38 -14q25 0 39 18.5t14 51.5q0 27 -13 43t-34 16q-38 0 -53 -45l-71 22l27 184h219v-66h-165l-12 -87h1q26 47 82 47q49 0 79.5 -31.5z" />
    <glyph glyph-name="six.dnom" horiz-adv-x="0" 
d="M290 96q29 -30 29 -78q0 -56 -39.5 -90t-100.5 -34q-68 0 -103.5 43.5t-35.5 127.5q0 89 41 140t111 51q48 0 79 -19.5t44 -55.5l-79 -31q-10 40 -43 40q-60 0 -64 -111h2q26 47 84 47q46 0 75 -30zM217.5 -24q13.5 16 13.5 43q0 24 -12.5 38t-32.5 14q-19 0 -34.5 -12
t-21.5 -38q7 -61 51 -61q23 0 36.5 16z" />
    <glyph glyph-name="seven.dnom" horiz-adv-x="0" 
d="M308 205q-54 -70 -78 -138.5t-23 -166.5h-91q4 87 31.5 156t75.5 126h-172v68h257v-45z" />
    <glyph glyph-name="eight.dnom" horiz-adv-x="0" 
d="M318 9q0 -55 -39.5 -85t-99.5 -30q-66 0 -101.5 25t-35.5 75q0 28 16 49.5t43 33.5q-46 25 -46 79q0 46 35.5 73t89.5 27q57 0 91 -23.5t34 -64.5q0 -22 -14 -40t-38 -30q65 -29 65 -89zM149 189.5q-12 -10.5 -12 -27.5q0 -15 9 -24.5t30 -15.5l18 -5q30 17 30 45
q0 17 -11.5 27.5t-31.5 10.5t-32 -10.5zM217.5 -32q14.5 13 14.5 36q0 36 -45 46l-26 7q-35 -21 -35 -53q0 -23 14 -36t39 -13q24 0 38.5 13z" />
    <glyph glyph-name="nine.dnom" horiz-adv-x="0" 
d="M284 212.5q35 -43.5 35 -127.5q0 -89 -40.5 -140t-110.5 -51q-48 0 -79 19.5t-44 55.5l79 31q9 -40 43 -40q60 0 64 111h-3q-24 -47 -83 -47q-46 0 -75.5 30t-29.5 78q0 56 39.5 90t101.5 34q68 0 103 -43.5zM229 130q-7 60 -50 60q-23 0 -36.5 -15.5t-13.5 -43.5
q0 -24 12.5 -38t32.5 -14q43 0 55 51z" />
    <glyph glyph-name="zero.numr" horiz-adv-x="0" 
d="M70.5 491q-38.5 47 -38.5 134t38.5 134t109.5 47t109.5 -47t38.5 -134t-38.5 -134t-109.5 -47t-109.5 47zM237 625q0 110 -57 110t-57 -110t57 -110t57 110z" />
    <glyph glyph-name="one.numr" horiz-adv-x="0" 
d="M312 516v-66h-265v66h94v206q-25 -38 -82 -37v73l19 -1q33 0 55 10.5t36 32.5h59v-284h84z" />
    <glyph glyph-name="two.numr" horiz-adv-x="0" 
d="M316 517v-67h-272v57q68 38 105 63.5t57 54t20 63.5q0 24 -11.5 37.5t-31.5 13.5q-29 0 -41.5 -23t-10.5 -61l-85 7q-1 69 38.5 106.5t102.5 37.5q59 0 93.5 -31t34.5 -83q0 -53 -44 -99.5t-121 -75.5h166z" />
    <glyph glyph-name="three.numr" horiz-adv-x="0" 
d="M41 545l82 23q6 -57 56 -57q22 0 35.5 13t13.5 35q0 23 -14 34t-36 11q-16 0 -34 -6v65q17 -5 30 -5q20 0 33 10.5t13 31.5q0 20 -10.5 31t-30.5 11q-46 0 -52 -55l-76 20q10 47 45.5 73t88.5 26q54 0 88 -25.5t34 -69.5q0 -27 -16.5 -47.5t-44.5 -28.5v-1q34 -7 53 -29
t19 -53q0 -49 -39 -78.5t-99 -29.5q-123 0 -139 101z" />
    <glyph glyph-name="four.numr" horiz-adv-x="0" 
d="M337 518h-60v-68h-86v68h-169v79l153 203h102v-217h60v-65zM191 583v140l-101 -140h101z" />
    <glyph glyph-name="five.numr" horiz-adv-x="0" 
d="M287.5 662.5q30.5 -31.5 30.5 -82.5q0 -63 -40 -99.5t-102 -36.5q-113 0 -134 94l76 27q4 -27 18 -41t38 -14q25 0 39 18.5t14 51.5q0 27 -13 43t-34 16q-38 0 -53 -45l-71 22l27 184h219v-66h-165l-12 -87h1q26 47 82 47q49 0 79.5 -31.5z" />
    <glyph glyph-name="six.numr" horiz-adv-x="0" 
d="M288 646q29 -30 29 -78q0 -56 -39.5 -90t-100.5 -34q-68 0 -103.5 43.5t-35.5 127.5q0 89 41 140t111 51q48 0 79 -19.5t44 -55.5l-79 -31q-10 40 -43 40q-60 0 -64 -111h2q26 47 84 47q46 0 75 -30zM215.5 526q13.5 16 13.5 43q0 24 -12.5 38t-32.5 14q-19 0 -34.5 -12
t-21.5 -38q7 -61 51 -61q23 0 36.5 16z" />
    <glyph glyph-name="seven.numr" horiz-adv-x="0" 
d="M308 755q-54 -70 -78 -138.5t-23 -166.5h-91q4 87 31.5 156t75.5 126h-172v68h257v-45z" />
    <glyph glyph-name="eight.numr" horiz-adv-x="0" 
d="M318 559q0 -55 -39.5 -85t-99.5 -30q-66 0 -101.5 25t-35.5 75q0 28 16 49.5t43 33.5q-46 25 -46 79q0 46 35.5 73t89.5 27q57 0 91 -23.5t34 -64.5q0 -22 -14 -40t-38 -30q65 -29 65 -89zM149 739.5q-12 -10.5 -12 -27.5q0 -15 9 -24.5t30 -15.5l18 -5q30 17 30 45
q0 17 -11.5 27.5t-31.5 10.5t-32 -10.5zM217.5 518q14.5 13 14.5 36q0 36 -45 46l-26 7q-35 -21 -35 -53q0 -23 14 -36t39 -13q24 0 38.5 13z" />
    <glyph glyph-name="nine.numr" horiz-adv-x="0" 
d="M284 762.5q35 -43.5 35 -127.5q0 -89 -40.5 -140t-110.5 -51q-48 0 -79 19.5t-44 55.5l79 31q9 -40 43 -40q60 0 64 111h-3q-24 -47 -83 -47q-46 0 -75.5 30t-29.5 78q0 56 39.5 90t101.5 34q68 0 103 -43.5zM229 680q-7 60 -50 60q-23 0 -36.5 -15.5t-13.5 -43.5
q0 -24 12.5 -38t32.5 -14q43 0 55 51z" />
    <glyph glyph-name="zero.sc" horiz-adv-x="590" 
d="M111.5 64q-64.5 76 -64.5 216t64.5 216t183.5 76t184 -76t65 -216t-65 -216t-184 -76t-183.5 76zM370.5 150q25.5 44 25.5 130t-26 130t-74 44q-50 0 -75.5 -44t-25.5 -130t25.5 -130t75.5 -44q49 0 74.5 44z" />
    <glyph glyph-name="one.sc" horiz-adv-x="386" 
d="M315 560v-560h-143v443q-37 -67 -138 -66v115q69 -3 112.5 12.5t70.5 55.5h98z" />
    <glyph glyph-name="two.sc" horiz-adv-x="550" 
d="M497 108v-108h-450v90q109 56 173.5 101t96 90t31.5 97q0 38 -19 60.5t-54 22.5q-43 0 -66 -34t-19 -98l-140 10q-1 75 28.5 127.5t82.5 79t120 26.5q96 0 154.5 -47.5t58.5 -133.5q0 -87 -72 -160.5t-207 -122.5h282z" />
    <glyph glyph-name="three.sc" horiz-adv-x="536" 
d="M34 157l132 35q11 -94 98 -94q40 0 64 22t24 58q0 35 -24.5 54t-66.5 19q-16 0 -30.5 -2.5t-28.5 -6.5v96q24 -7 51 -7q37 0 60 17.5t23 50.5q0 30 -19.5 47.5t-51.5 17.5q-34 0 -57 -20.5t-31 -62.5l-124 32q18 74 77 116.5t146 42.5q89 0 145.5 -41t56.5 -111
q0 -46 -31.5 -78t-81.5 -45v-2q63 -11 97 -45t34 -89q0 -52 -31 -91.5t-83 -60.5t-114 -21q-208 0 -234 169z" />
    <glyph glyph-name="four.sc" horiz-adv-x="587" 
d="M557 109h-103v-109h-139v109h-285v130l261 321h163v-347h103v-104zM315 213v236l-182 -236h182z" />
    <glyph glyph-name="five.sc" horiz-adv-x="530" 
d="M400 366.5q41 -23.5 64 -66t23 -97.5q0 -65 -30 -113.5t-84 -75t-124 -26.5q-91 0 -145 38t-71 111l120 48q7 -43 30.5 -67t64.5 -24q44 0 69.5 29t25.5 79q0 47 -23 73t-63 26q-31 0 -55 -18t-37 -54l-112 32l45 299h361v-107h-270l-22 -138h2q19 36 55.5 55.5
t82.5 19.5q52 0 93 -23.5z" />
    <glyph glyph-name="six.sc" horiz-adv-x="554" 
d="M464 314q47 -48 47 -125q0 -59 -29.5 -104.5t-82 -71t-118.5 -25.5q-113 0 -173.5 70.5t-60.5 204.5q0 95 31 164.5t88.5 107t134.5 37.5t128.5 -32.5t72.5 -93.5l-127 -50q-16 70 -75 70q-48 0 -75 -47t-30 -141h3q20 42 57.5 63t84.5 21q77 0 124 -48zM344.5 119
q22.5 25 22.5 69q0 42 -20.5 66t-58.5 24q-30 0 -55 -18t-37 -57q9 -109 89 -109q37 0 59.5 25z" />
    <glyph glyph-name="seven.sc" horiz-adv-x="506" 
d="M468 560v-72q-59 -76 -94.5 -146t-53.5 -152.5t-18 -189.5h-149q6 137 50 247t121 203h-285v110h429z" />
    <glyph glyph-name="eight.sc" horiz-adv-x="542" 
d="M472.5 260.5q28.5 -37.5 28.5 -90.5q0 -86 -65.5 -134t-166.5 -48q-109 0 -168.5 42t-59.5 118q0 48 28 82t73 52q-79 41 -79 127q0 75 59 119t151 44q97 0 152 -38t55 -103q0 -38 -23 -66.5t-64 -45.5q51 -21 79.5 -58.5zM216 466q-22 -17 -22 -47q0 -47 69 -64l32 -8
q29 14 42.5 31t13.5 40q0 29 -21.5 47t-56.5 18t-57 -17zM337.5 106.5q24.5 20.5 24.5 56.5q0 28 -19 46.5t-59 29.5l-44 11q-63 -31 -63 -89q0 -34 24.5 -54.5t68.5 -20.5q43 0 67.5 20.5z" />
    <glyph glyph-name="nine.sc" horiz-adv-x="554" 
d="M447.5 501.5q60.5 -70.5 60.5 -204.5q0 -95 -31 -164.5t-88.5 -107t-134.5 -37.5q-78 0 -129.5 32.5t-72.5 93.5l127 50q16 -70 75 -70q48 0 75 47t30 141h-2q-20 -42 -57.5 -63t-84.5 -21q-78 0 -125 48t-47 125q0 59 29.5 104.5t82 71t118.5 25.5q114 0 174.5 -70.5z
M321.5 300q24.5 18 36.5 57q-9 109 -88 109q-37 0 -59.5 -25t-22.5 -69q0 -42 20.5 -66t58.5 -24q30 0 54.5 18z" />
    <glyph glyph-name="zero.sc.tf" 
d="M146 64q-65 76 -65 216t65 216t183 76q119 0 184 -76t65 -216t-65 -216t-184 -76q-118 0 -183 76zM404.5 150q25.5 44 25.5 130t-26 130t-74 44q-49 0 -75 -44t-26 -130t26 -130t75 -44t74.5 44z" />
    </font>
</defs>
</svg>
